solid OpenSCAD_Model
  facet normal -1 0 0
    outer loop
      vertex -20.99 -9 0
      vertex -20.99 -8.98357 2
      vertex -20.99 -8.98357 0
    endloop
  endfacet
  facet normal -1 -0 0
    outer loop
      vertex -20.99 -8.98357 2
      vertex -20.99 -9 0
      vertex -20.99 -9 2
    endloop
  endfacet
  facet normal 0 -1 0
    outer loop
      vertex -24 -5.99 0
      vertex -23.9989 -5.99 2
      vertex -24 -5.99 2
    endloop
  endfacet
  facet normal 0 -1 -0
    outer loop
      vertex -23.9989 -5.99 2
      vertex -24 -5.99 0
      vertex -23.9989 -5.99 0
    endloop
  endfacet
  facet normal -0.994522 0.104527 0
    outer loop
      vertex -24 -6 0
      vertex -23.9989 -5.99 2
      vertex -23.9989 -5.99 0
    endloop
  endfacet
  facet normal -0.994522 0.104527 0
    outer loop
      vertex -23.9989 -5.99 2
      vertex -24 -6 0
      vertex -24 -6 2
    endloop
  endfacet
  facet normal -0.994522 -0.104526 0
    outer loop
      vertex -23.9344 -6.62374 0
      vertex -24 -6 2
      vertex -24 -6 0
    endloop
  endfacet
  facet normal -0.994522 -0.104526 0
    outer loop
      vertex -24 -6 2
      vertex -23.9344 -6.62374 0
      vertex -23.9344 -6.62374 2
    endloop
  endfacet
  facet normal -0.406737 -0.913545 0
    outer loop
      vertex -22.5 -8.59808 0
      vertex -21.9271 -8.85317 2
      vertex -22.5 -8.59808 2
    endloop
  endfacet
  facet normal -0.406737 -0.913545 -0
    outer loop
      vertex -21.9271 -8.85317 2
      vertex -22.5 -8.59808 0
      vertex -21.9271 -8.85317 0
    endloop
  endfacet
  facet normal -0.743145 -0.66913 0
    outer loop
      vertex -23.0074 -8.22943 0
      vertex -23.4271 -7.76336 2
      vertex -23.4271 -7.76336 0
    endloop
  endfacet
  facet normal -0.743145 -0.66913 0
    outer loop
      vertex -23.4271 -7.76336 2
      vertex -23.0074 -8.22943 0
      vertex -23.0074 -8.22943 2
    endloop
  endfacet
  facet normal -0.587785 -0.809017 0
    outer loop
      vertex -23.0074 -8.22943 0
      vertex -22.5 -8.59808 2
      vertex -23.0074 -8.22943 2
    endloop
  endfacet
  facet normal -0.587785 -0.809017 -0
    outer loop
      vertex -22.5 -8.59808 2
      vertex -23.0074 -8.22943 0
      vertex -22.5 -8.59808 0
    endloop
  endfacet
  facet normal -0.951056 -0.309019 0
    outer loop
      vertex -23.7406 -7.22021 0
      vertex -23.9344 -6.62374 2
      vertex -23.9344 -6.62374 0
    endloop
  endfacet
  facet normal -0.951056 -0.309019 0
    outer loop
      vertex -23.9344 -6.62374 2
      vertex -23.7406 -7.22021 0
      vertex -23.7406 -7.22021 2
    endloop
  endfacet
  facet normal -0.866026 -0.5 0
    outer loop
      vertex -23.4271 -7.76336 0
      vertex -23.7406 -7.22021 2
      vertex -23.7406 -7.22021 0
    endloop
  endfacet
  facet normal -0.866026 -0.5 0
    outer loop
      vertex -23.7406 -7.22021 2
      vertex -23.4271 -7.76336 0
      vertex -23.4271 -7.76336 2
    endloop
  endfacet
  facet normal -0.207912 -0.978148 0
    outer loop
      vertex -21.9271 -8.85317 0
      vertex -21.3136 -8.98357 2
      vertex -21.9271 -8.85317 2
    endloop
  endfacet
  facet normal -0.207912 -0.978148 -0
    outer loop
      vertex -21.3136 -8.98357 2
      vertex -21.9271 -8.85317 0
      vertex -21.3136 -8.98357 0
    endloop
  endfacet
  facet normal 0 -1 0
    outer loop
      vertex -21.3136 -8.98357 0
      vertex -20.99 -8.98357 2
      vertex -21.3136 -8.98357 2
    endloop
  endfacet
  facet normal 0 -1 -0
    outer loop
      vertex -20.99 -8.98357 2
      vertex -21.3136 -8.98357 0
      vertex -20.99 -8.98357 0
    endloop
  endfacet
  facet normal 0 -1 0
    outer loop
      vertex 23.9836 -5.99 0
      vertex 24 -5.99 2
      vertex 23.9836 -5.99 2
    endloop
  endfacet
  facet normal 0 -1 -0
    outer loop
      vertex 24 -5.99 2
      vertex 23.9836 -5.99 0
      vertex 24 -5.99 0
    endloop
  endfacet
  facet normal 0.999998 -0.00181488 0
    outer loop
      vertex 20.99 -9 2
      vertex 20.99 -8.99895 0
      vertex 20.99 -8.99895 2
    endloop
  endfacet
  facet normal 0.999998 -0.00181488 0
    outer loop
      vertex 20.99 -8.99895 0
      vertex 20.99 -9 2
      vertex 20.99 -9 0
    endloop
  endfacet
  facet normal -0.104537 -0.994521 0
    outer loop
      vertex 20.99 -8.99895 0
      vertex 21 -9 2
      vertex 20.99 -8.99895 2
    endloop
  endfacet
  facet normal -0.104537 -0.994521 -0
    outer loop
      vertex 21 -9 2
      vertex 20.99 -8.99895 0
      vertex 21 -9 0
    endloop
  endfacet
  facet normal 0.104527 -0.994522 0
    outer loop
      vertex 21 -9 0
      vertex 21.6237 -8.93444 2
      vertex 21 -9 2
    endloop
  endfacet
  facet normal 0.104527 -0.994522 0
    outer loop
      vertex 21.6237 -8.93444 2
      vertex 21 -9 0
      vertex 21.6237 -8.93444 0
    endloop
  endfacet
  facet normal 0.913545 -0.406738 0
    outer loop
      vertex 23.5981 -7.5 2
      vertex 23.8532 -6.92705 0
      vertex 23.8532 -6.92705 2
    endloop
  endfacet
  facet normal 0.913545 -0.406738 0
    outer loop
      vertex 23.8532 -6.92705 0
      vertex 23.5981 -7.5 2
      vertex 23.5981 -7.5 0
    endloop
  endfacet
  facet normal 0.66913 -0.743145 0
    outer loop
      vertex 22.7634 -8.42705 0
      vertex 23.2294 -8.00739 2
      vertex 22.7634 -8.42705 2
    endloop
  endfacet
  facet normal 0.66913 -0.743145 0
    outer loop
      vertex 23.2294 -8.00739 2
      vertex 22.7634 -8.42705 0
      vertex 23.2294 -8.00739 0
    endloop
  endfacet
  facet normal 0.809017 -0.587785 0
    outer loop
      vertex 23.2294 -8.00739 2
      vertex 23.5981 -7.5 0
      vertex 23.5981 -7.5 2
    endloop
  endfacet
  facet normal 0.809017 -0.587785 0
    outer loop
      vertex 23.5981 -7.5 0
      vertex 23.2294 -8.00739 2
      vertex 23.2294 -8.00739 0
    endloop
  endfacet
  facet normal 0.309017 -0.951057 0
    outer loop
      vertex 21.6237 -8.93444 0
      vertex 22.2202 -8.74064 2
      vertex 21.6237 -8.93444 2
    endloop
  endfacet
  facet normal 0.309017 -0.951057 0
    outer loop
      vertex 22.2202 -8.74064 2
      vertex 21.6237 -8.93444 0
      vertex 22.2202 -8.74064 0
    endloop
  endfacet
  facet normal 0.500001 -0.866025 0
    outer loop
      vertex 22.2202 -8.74064 0
      vertex 22.7634 -8.42705 2
      vertex 22.2202 -8.74064 2
    endloop
  endfacet
  facet normal 0.500001 -0.866025 0
    outer loop
      vertex 22.7634 -8.42705 2
      vertex 22.2202 -8.74064 0
      vertex 22.7634 -8.42705 0
    endloop
  endfacet
  facet normal 0.978148 -0.207911 0
    outer loop
      vertex 23.8532 -6.92705 2
      vertex 23.9836 -6.31359 0
      vertex 23.9836 -6.31359 2
    endloop
  endfacet
  facet normal 0.978148 -0.207911 0
    outer loop
      vertex 23.9836 -6.31359 0
      vertex 23.8532 -6.92705 2
      vertex 23.8532 -6.92705 0
    endloop
  endfacet
  facet normal 1 -0 0
    outer loop
      vertex 23.9836 -6.31359 2
      vertex 23.9836 -5.99 0
      vertex 23.9836 -5.99 2
    endloop
  endfacet
  facet normal 1 0 0
    outer loop
      vertex 23.9836 -5.99 0
      vertex 23.9836 -6.31359 2
      vertex 23.9836 -6.31359 0
    endloop
  endfacet
  facet normal -1 0 0
    outer loop
      vertex -24 0.0999994 0
      vertex -24 0 2
      vertex -24 0.0999994 2
    endloop
  endfacet
  facet normal -1 0 0
    outer loop
      vertex -24 -5.99 0
      vertex -24 0 2
      vertex -24 0.0999994 0
    endloop
  endfacet
  facet normal -1 -0 0
    outer loop
      vertex -24 0 2
      vertex -24 -5.99 0
      vertex -24 -5.99 2
    endloop
  endfacet
  facet normal 0 0 1
    outer loop
      vertex 24 0.0999994 2
      vertex 23.9895 0.0999994 2
      vertex 24 0 2
    endloop
  endfacet
  facet normal -0 0 1
    outer loop
      vertex -24 0.0999994 2
      vertex -24 0 2
      vertex -23.9895 0.0999994 2
    endloop
  endfacet
  facet normal 0 0 1
    outer loop
      vertex -1.69227 0.0999994 2
      vertex -19.9895 0.0999994 2
      vertex -1.75 0 2
    endloop
  endfacet
  facet normal 0 0 1
    outer loop
      vertex 20 0.0999994 2
      vertex 19.9895 0.0999994 2
      vertex 20 0 2
    endloop
  endfacet
  facet normal 0 0 1
    outer loop
      vertex 24 0 2
      vertex 23.9836 -5.99 2
      vertex 24 -5.99 2
    endloop
  endfacet
  facet normal 0 0 1
    outer loop
      vertex 23.9836 -5.99 2
      vertex 23.8532 -6.92705 2
      vertex 23.9836 -6.31359 2
    endloop
  endfacet
  facet normal -0 0 1
    outer loop
      vertex 20 0 2
      vertex 23.9836 -5.99 2
      vertex 24 0 2
    endloop
  endfacet
  facet normal 0 -0 1
    outer loop
      vertex 20.99 -8.99895 2
      vertex 23.9836 -5.99 2
      vertex 20 0 2
    endloop
  endfacet
  facet normal 0 -0 1
    outer loop
      vertex 23.5981 -7.5 2
      vertex 23.9836 -5.99 2
      vertex 20.99 -8.99895 2
    endloop
  endfacet
  facet normal 0 0 1
    outer loop
      vertex 23.9836 -5.99 2
      vertex 23.5981 -7.5 2
      vertex 23.8532 -6.92705 2
    endloop
  endfacet
  facet normal 0 0 1
    outer loop
      vertex 23.5981 -7.5 2
      vertex 20.99 -8.99895 2
      vertex 23.2294 -8.00739 2
    endloop
  endfacet
  facet normal 0 0 1
    outer loop
      vertex 23.2294 -8.00739 2
      vertex 20.99 -8.99895 2
      vertex 22.7634 -8.42705 2
    endloop
  endfacet
  facet normal 0 0 1
    outer loop
      vertex 22.7634 -8.42705 2
      vertex 20.99 -8.99895 2
      vertex 22.2202 -8.74064 2
    endloop
  endfacet
  facet normal 0 0 1
    outer loop
      vertex 22.2202 -8.74064 2
      vertex 20.99 -8.99895 2
      vertex 21.6237 -8.93444 2
    endloop
  endfacet
  facet normal 0 0 1
    outer loop
      vertex 21.6237 -8.93444 2
      vertex 20.99 -8.99895 2
      vertex 21 -9 2
    endloop
  endfacet
  facet normal -0 0 1
    outer loop
      vertex 1.75 0 2
      vertex 20.99 -8.99895 2
      vertex 20 0 2
    endloop
  endfacet
  facet normal 0 0 1
    outer loop
      vertex 1.75 0 2
      vertex 20 0 2
      vertex 19.9895 0.0999994 2
    endloop
  endfacet
  facet normal -0 0 1
    outer loop
      vertex 0.875 -1.51554 2
      vertex 20.99 -8.99895 2
      vertex 1.75 0 2
    endloop
  endfacet
  facet normal 0 0 1
    outer loop
      vertex 20.99 -8.99895 2
      vertex 0.875 -1.51554 2
      vertex 20.99 -9 2
    endloop
  endfacet
  facet normal -0 0 1
    outer loop
      vertex -0.875 -1.51554 2
      vertex 20.99 -9 2
      vertex 0.875 -1.51554 2
    endloop
  endfacet
  facet normal 0 0 1
    outer loop
      vertex -20 0 2
      vertex -1.75 0 2
      vertex -19.9895 0.0999994 2
    endloop
  endfacet
  facet normal 0 0 1
    outer loop
      vertex -20.99 -8.98357 2
      vertex -1.75 0 2
      vertex -20 0 2
    endloop
  endfacet
  facet normal 0 0 1
    outer loop
      vertex -20 0 2
      vertex -19.9895 0.0999994 2
      vertex -20 0.0999994 2
    endloop
  endfacet
  facet normal 0 0 1
    outer loop
      vertex -1.75 0 2
      vertex -20.99 -8.98357 2
      vertex -0.875 -1.51554 2
    endloop
  endfacet
  facet normal 0 0 1
    outer loop
      vertex -20.99 -9 2
      vertex -0.875 -1.51554 2
      vertex -20.99 -8.98357 2
    endloop
  endfacet
  facet normal 0 0 1
    outer loop
      vertex -0.875 -1.51554 2
      vertex -20.99 -9 2
      vertex 20.99 -9 2
    endloop
  endfacet
  facet normal 0 0 1
    outer loop
      vertex 19.9895 0.0999994 2
      vertex 1.69227 0.0999994 2
      vertex 1.75 0 2
    endloop
  endfacet
  facet normal -0 0 1
    outer loop
      vertex -23.9989 -5.99 2
      vertex -20.99 -8.98357 2
      vertex -20 0 2
    endloop
  endfacet
  facet normal -0 -0 1
    outer loop
      vertex -22.5 -8.59808 2
      vertex -20.99 -8.98357 2
      vertex -23.9989 -5.99 2
    endloop
  endfacet
  facet normal 0 0 1
    outer loop
      vertex -20.99 -8.98357 2
      vertex -21.9271 -8.85317 2
      vertex -21.3136 -8.98357 2
    endloop
  endfacet
  facet normal 0 0 1
    outer loop
      vertex -20.99 -8.98357 2
      vertex -22.5 -8.59808 2
      vertex -21.9271 -8.85317 2
    endloop
  endfacet
  facet normal 0 0 1
    outer loop
      vertex -22.5 -8.59808 2
      vertex -23.9989 -5.99 2
      vertex -23.0074 -8.22943 2
    endloop
  endfacet
  facet normal 0 0 1
    outer loop
      vertex -23.0074 -8.22943 2
      vertex -23.9989 -5.99 2
      vertex -23.4271 -7.76336 2
    endloop
  endfacet
  facet normal 0 0 1
    outer loop
      vertex -23.4271 -7.76336 2
      vertex -23.9989 -5.99 2
      vertex -23.7406 -7.22021 2
    endloop
  endfacet
  facet normal 0 0 1
    outer loop
      vertex -23.7406 -7.22021 2
      vertex -23.9989 -5.99 2
      vertex -23.9344 -6.62374 2
    endloop
  endfacet
  facet normal -0 0 1
    outer loop
      vertex -24 0 2
      vertex -23.9989 -5.99 2
      vertex -20 0 2
    endloop
  endfacet
  facet normal 0 0 1
    outer loop
      vertex -23.9989 -5.99 2
      vertex -24 0 2
      vertex -24 -5.99 2
    endloop
  endfacet
  facet normal 0 0 1
    outer loop
      vertex -23.9344 -6.62374 2
      vertex -23.9989 -5.99 2
      vertex -24 -6 2
    endloop
  endfacet
  facet normal 0 0 1
    outer loop
      vertex 1.69227 0.0999994 2
      vertex 19.563 4.15823 2
      vertex 18.2709 8.13473 2
    endloop
  endfacet
  facet normal 0 0 1
    outer loop
      vertex 1.69227 0.0999994 2
      vertex 18.2709 8.13473 2
      vertex 16.1803 11.7557 2
    endloop
  endfacet
  facet normal 0 0 1
    outer loop
      vertex 0.875 1.51554 2
      vertex 16.1803 11.7557 2
      vertex 13.3826 14.8629 2
    endloop
  endfacet
  facet normal 0 0 1
    outer loop
      vertex 0.875 1.51554 2
      vertex 13.3826 14.8629 2
      vertex 10 17.3205 2
    endloop
  endfacet
  facet normal 0 0 1
    outer loop
      vertex 0.875 1.51554 2
      vertex 10 17.3205 2
      vertex 6.18034 19.0211 2
    endloop
  endfacet
  facet normal 0 0 1
    outer loop
      vertex 0.875 1.51554 2
      vertex 6.18034 19.0211 2
      vertex 2.09057 19.8904 2
    endloop
  endfacet
  facet normal 0 0 1
    outer loop
      vertex 16.1803 11.7557 2
      vertex 0.875 1.51554 2
      vertex 1.69227 0.0999994 2
    endloop
  endfacet
  facet normal 0 0 1
    outer loop
      vertex 19.563 4.15823 2
      vertex 1.69227 0.0999994 2
      vertex 19.9895 0.0999994 2
    endloop
  endfacet
  facet normal 0 0 1
    outer loop
      vertex 2.09057 19.8904 2
      vertex -0.874999 1.51554 2
      vertex 0.875 1.51554 2
    endloop
  endfacet
  facet normal -0 0 1
    outer loop
      vertex -2.09057 19.8904 2
      vertex -0.874999 1.51554 2
      vertex 2.09057 19.8904 2
    endloop
  endfacet
  facet normal -0 0 1
    outer loop
      vertex -6.18034 19.0211 2
      vertex -0.874999 1.51554 2
      vertex -2.09057 19.8904 2
    endloop
  endfacet
  facet normal -0 0 1
    outer loop
      vertex -10 17.3205 2
      vertex -0.874999 1.51554 2
      vertex -6.18034 19.0211 2
    endloop
  endfacet
  facet normal -0 0 1
    outer loop
      vertex -13.3826 14.8629 2
      vertex -0.874999 1.51554 2
      vertex -10 17.3205 2
    endloop
  endfacet
  facet normal -0 0 1
    outer loop
      vertex -16.1803 11.7557 2
      vertex -0.874999 1.51554 2
      vertex -13.3826 14.8629 2
    endloop
  endfacet
  facet normal 0 0 1
    outer loop
      vertex -0.874999 1.51554 2
      vertex -16.1803 11.7557 2
      vertex -1.69227 0.0999994 2
    endloop
  endfacet
  facet normal -0 0 1
    outer loop
      vertex -18.2709 8.13473 2
      vertex -1.69227 0.0999994 2
      vertex -16.1803 11.7557 2
    endloop
  endfacet
  facet normal -0 0 1
    outer loop
      vertex -19.563 4.15823 2
      vertex -1.69227 0.0999994 2
      vertex -18.2709 8.13473 2
    endloop
  endfacet
  facet normal 0 0 1
    outer loop
      vertex -1.69227 0.0999994 2
      vertex -19.563 4.15823 2
      vertex -19.9895 0.0999994 2
    endloop
  endfacet
  facet normal 1 -0 0
    outer loop
      vertex 24 0 2
      vertex 24 0.0999994 0
      vertex 24 0.0999994 2
    endloop
  endfacet
  facet normal 1 0 0
    outer loop
      vertex 24 -5.99 0
      vertex 24 0 2
      vertex 24 -5.99 2
    endloop
  endfacet
  facet normal 1 0 0
    outer loop
      vertex 24 0 2
      vertex 24 -5.99 0
      vertex 24 0.0999994 0
    endloop
  endfacet
  facet normal 0 1 -0
    outer loop
      vertex 24 0.0999994 0
      vertex 23.9895 0.0999994 2
      vertex 24 0.0999994 2
    endloop
  endfacet
  facet normal 0 1 0
    outer loop
      vertex 23.9895 0.0999994 2
      vertex 24 0.0999994 0
      vertex 23.9895 0.0999994 0
    endloop
  endfacet
  facet normal 0 1 -0
    outer loop
      vertex -23.9895 0.0999994 0
      vertex -24 0.0999994 2
      vertex -23.9895 0.0999994 2
    endloop
  endfacet
  facet normal 0 1 0
    outer loop
      vertex -24 0.0999994 2
      vertex -23.9895 0.0999994 0
      vertex -24 0.0999994 0
    endloop
  endfacet
  facet normal -0 0 -1
    outer loop
      vertex 23.9836 -6.31359 0
      vertex 23.8532 -6.92705 0
      vertex 23.9836 -5.99 0
    endloop
  endfacet
  facet normal 0 0 -1
    outer loop
      vertex 24 -5.99 0
      vertex 23.9895 0.0999994 0
      vertex 24 0.0999994 0
    endloop
  endfacet
  facet normal 0 0 -1
    outer loop
      vertex 23.9836 -5.99 0
      vertex 23.9895 0.0999994 0
      vertex 24 -5.99 0
    endloop
  endfacet
  facet normal 0 0 -1
    outer loop
      vertex 23.5981 -7.5 0
      vertex 23.9836 -5.99 0
      vertex 23.8532 -6.92705 0
    endloop
  endfacet
  facet normal 0 0 -1
    outer loop
      vertex 23.9836 -5.99 0
      vertex 23.5981 -7.5 0
      vertex 20.99 -8.99895 0
    endloop
  endfacet
  facet normal -0 0 -1
    outer loop
      vertex 23.9836 -5.99 0
      vertex 20.99 -8.99895 0
      vertex 23.9895 0.0999994 0
    endloop
  endfacet
  facet normal 0 0 -1
    outer loop
      vertex 20.99 -8.99895 0
      vertex 23.5981 -7.5 0
      vertex 23.2294 -8.00739 0
    endloop
  endfacet
  facet normal 0 0 -1
    outer loop
      vertex 20.99 -8.99895 0
      vertex 23.2294 -8.00739 0
      vertex 22.7634 -8.42705 0
    endloop
  endfacet
  facet normal 0 0 -1
    outer loop
      vertex 20.99 -8.99895 0
      vertex 22.7634 -8.42705 0
      vertex 22.2202 -8.74064 0
    endloop
  endfacet
  facet normal 0 0 -1
    outer loop
      vertex 1.75 0 0
      vertex 23.9895 0.0999994 0
      vertex 20.99 -8.99895 0
    endloop
  endfacet
  facet normal 0 0 -1
    outer loop
      vertex 20.99 -8.99895 0
      vertex 22.2202 -8.74064 0
      vertex 21.6237 -8.93444 0
    endloop
  endfacet
  facet normal 0 0 -1
    outer loop
      vertex 20.99 -8.99895 0
      vertex 21.6237 -8.93444 0
      vertex 21 -9 0
    endloop
  endfacet
  facet normal -0 0 -1
    outer loop
      vertex 23.9895 0.0999994 0
      vertex 1.75 0 0
      vertex 23.4755 4.98988 0
    endloop
  endfacet
  facet normal -0 0 -1
    outer loop
      vertex 23.4755 4.98988 0
      vertex 1.75 0 0
      vertex 21.9251 9.76168 0
    endloop
  endfacet
  facet normal 0 0 -1
    outer loop
      vertex 0.875 -1.51554 0
      vertex 20.99 -8.99895 0
      vertex 20.99 -9 0
    endloop
  endfacet
  facet normal -0 0 -1
    outer loop
      vertex 21.9251 9.76168 0
      vertex 1.75 0 0
      vertex 19.4164 14.1068 0
    endloop
  endfacet
  facet normal 0 0 -1
    outer loop
      vertex 0.875 1.51554 0
      vertex 19.4164 14.1068 0
      vertex 1.75 0 0
    endloop
  endfacet
  facet normal -0 0 -1
    outer loop
      vertex 19.4164 14.1068 0
      vertex 0.875 1.51554 0
      vertex 16.0591 17.8355 0
    endloop
  endfacet
  facet normal -0 0 -1
    outer loop
      vertex 16.0591 17.8355 0
      vertex 0.875 1.51554 0
      vertex 12 20.7846 0
    endloop
  endfacet
  facet normal -0 0 -1
    outer loop
      vertex 12 20.7846 0
      vertex 0.875 1.51554 0
      vertex 7.41641 22.8254 0
    endloop
  endfacet
  facet normal 0 0 -1
    outer loop
      vertex 20.99 -8.99895 0
      vertex 0.875 -1.51554 0
      vertex 1.75 0 0
    endloop
  endfacet
  facet normal 0 0 -1
    outer loop
      vertex 20.99 -9 0
      vertex -0.875 -1.51554 0
      vertex 0.875 -1.51554 0
    endloop
  endfacet
  facet normal 0 0 -1
    outer loop
      vertex -0.874999 1.51554 0
      vertex -7.41641 22.8254 0
      vertex -2.50868 23.8685 0
    endloop
  endfacet
  facet normal 0 0 -1
    outer loop
      vertex -0.874999 1.51554 0
      vertex -12 20.7846 0
      vertex -7.41641 22.8254 0
    endloop
  endfacet
  facet normal 0 0 -1
    outer loop
      vertex -0.874999 1.51554 0
      vertex -16.0591 17.8355 0
      vertex -12 20.7846 0
    endloop
  endfacet
  facet normal 0 0 -1
    outer loop
      vertex -20.99 -8.98357 0
      vertex -1.75 0 0
      vertex -0.875 -1.51554 0
    endloop
  endfacet
  facet normal 0 0 -1
    outer loop
      vertex -0.874999 1.51554 0
      vertex -19.4164 14.1068 0
      vertex -16.0591 17.8355 0
    endloop
  endfacet
  facet normal 0 0 -1
    outer loop
      vertex -20.99 -9 0
      vertex -0.875 -1.51554 0
      vertex 20.99 -9 0
    endloop
  endfacet
  facet normal 0 0 -1
    outer loop
      vertex -20.99 -8.98357 0
      vertex -0.875 -1.51554 0
      vertex -20.99 -9 0
    endloop
  endfacet
  facet normal -0 0 -1
    outer loop
      vertex -1.75 0 0
      vertex -20.99 -8.98357 0
      vertex -23.9895 0.0999994 0
    endloop
  endfacet
  facet normal 0 0 -1
    outer loop
      vertex -21.9271 -8.85317 0
      vertex -20.99 -8.98357 0
      vertex -21.3136 -8.98357 0
    endloop
  endfacet
  facet normal 0 0 -1
    outer loop
      vertex -1.75 0 0
      vertex -21.9251 9.76168 0
      vertex -19.4164 14.1068 0
    endloop
  endfacet
  facet normal 0 0 -1
    outer loop
      vertex -22.5 -8.59808 0
      vertex -20.99 -8.98357 0
      vertex -21.9271 -8.85317 0
    endloop
  endfacet
  facet normal 0 0 -1
    outer loop
      vertex -20.99 -8.98357 0
      vertex -22.5 -8.59808 0
      vertex -23.9989 -5.99 0
    endloop
  endfacet
  facet normal 0 0 -1
    outer loop
      vertex -23.9989 -5.99 0
      vertex -22.5 -8.59808 0
      vertex -23.0074 -8.22943 0
    endloop
  endfacet
  facet normal 0 0 -1
    outer loop
      vertex -23.9989 -5.99 0
      vertex -23.0074 -8.22943 0
      vertex -23.4271 -7.76336 0
    endloop
  endfacet
  facet normal 0 0 -1
    outer loop
      vertex -1.75 0 0
      vertex -23.9895 0.0999994 0
      vertex -23.4755 4.98988 0
    endloop
  endfacet
  facet normal 0 0 -1
    outer loop
      vertex -23.9989 -5.99 0
      vertex -23.4271 -7.76336 0
      vertex -23.7406 -7.22021 0
    endloop
  endfacet
  facet normal 0 0 -1
    outer loop
      vertex -23.9989 -5.99 0
      vertex -23.7406 -7.22021 0
      vertex -23.9344 -6.62374 0
    endloop
  endfacet
  facet normal 0 0 -1
    outer loop
      vertex -1.75 0 0
      vertex -23.4755 4.98988 0
      vertex -21.9251 9.76168 0
    endloop
  endfacet
  facet normal 0 0 -1
    outer loop
      vertex -20.99 -8.98357 0
      vertex -23.9989 -5.99 0
      vertex -23.9895 0.0999994 0
    endloop
  endfacet
  facet normal 0 -0 -1
    outer loop
      vertex -23.9989 -5.99 0
      vertex -23.9344 -6.62374 0
      vertex -24 -6 0
    endloop
  endfacet
  facet normal -0 0 -1
    outer loop
      vertex 7.41641 22.8254 0
      vertex 0.875 1.51554 0
      vertex 2.50868 23.8685 0
    endloop
  endfacet
  facet normal 0 0 -1
    outer loop
      vertex -0.874999 1.51554 0
      vertex 2.50868 23.8685 0
      vertex 0.875 1.51554 0
    endloop
  endfacet
  facet normal 0 0 -1
    outer loop
      vertex -19.4164 14.1068 0
      vertex -0.874999 1.51554 0
      vertex -1.75 0 0
    endloop
  endfacet
  facet normal 0 0 -1
    outer loop
      vertex -0.874999 1.51554 0
      vertex -2.50868 23.8685 0
      vertex 2.50868 23.8685 0
    endloop
  endfacet
  facet normal 0 0 -1
    outer loop
      vertex -24 -5.99 0
      vertex -23.9895 0.0999994 0
      vertex -23.9989 -5.99 0
    endloop
  endfacet
  facet normal -0 0 -1
    outer loop
      vertex -23.9895 0.0999994 0
      vertex -24 -5.99 0
      vertex -24 0.0999994 0
    endloop
  endfacet
  facet normal 0 -1 0
    outer loop
      vertex -20.99 -9 0
      vertex 20.99 -9 2
      vertex -20.99 -9 2
    endloop
  endfacet
  facet normal 0 -1 -0
    outer loop
      vertex 20.99 -9 2
      vertex -20.99 -9 0
      vertex 20.99 -9 0
    endloop
  endfacet
  facet normal 0.994522 0.104529 0
    outer loop
      vertex 23.4755 4.98988 10
      vertex 23.9895 0.0999994 2
      vertex 23.4755 4.98988 0
    endloop
  endfacet
  facet normal 0.994522 0.104529 1.09329e-07
    outer loop
      vertex 24 0 10
      vertex 23.9895 0.0999994 2
      vertex 23.4755 4.98988 10
    endloop
  endfacet
  facet normal 0.994523 0.10452 0
    outer loop
      vertex 23.9895 0.0999994 2
      vertex 24 0 10
      vertex 24 0 2
    endloop
  endfacet
  facet normal 0.994522 0.104529 0
    outer loop
      vertex 23.4755 4.98988 0
      vertex 23.9895 0.0999994 2
      vertex 23.9895 0.0999994 0
    endloop
  endfacet
  facet normal -0.994522 0.104529 0
    outer loop
      vertex -23.9895 0.0999994 2
      vertex -23.4755 4.98988 0
      vertex -23.9895 0.0999994 0
    endloop
  endfacet
  facet normal -0.994522 0.104529 0
    outer loop
      vertex -23.4755 4.98988 0
      vertex -23.9895 0.0999994 2
      vertex -23.4755 4.98988 10
    endloop
  endfacet
  facet normal -0.994523 0.10452 0
    outer loop
      vertex -24 0 10
      vertex -23.9895 0.0999994 2
      vertex -24 0 2
    endloop
  endfacet
  facet normal -0.994522 0.104529 1.09329e-07
    outer loop
      vertex -23.9895 0.0999994 2
      vertex -24 0 10
      vertex -23.4755 4.98988 10
    endloop
  endfacet
  facet normal 0 1 -0
    outer loop
      vertex 2.50868 23.8685 0
      vertex -2.50868 23.8685 10
      vertex 2.50868 23.8685 10
    endloop
  endfacet
  facet normal 0 1 0
    outer loop
      vertex -2.50868 23.8685 10
      vertex 2.50868 23.8685 0
      vertex -2.50868 23.8685 0
    endloop
  endfacet
  facet normal 0.587785 0.809017 -0
    outer loop
      vertex 16.0591 17.8355 0
      vertex 12 20.7846 10
      vertex 16.0591 17.8355 10
    endloop
  endfacet
  facet normal 0.587785 0.809017 0
    outer loop
      vertex 12 20.7846 10
      vertex 16.0591 17.8355 0
      vertex 12 20.7846 0
    endloop
  endfacet
  facet normal 0.406737 0.913545 -0
    outer loop
      vertex 12 20.7846 0
      vertex 7.41641 22.8254 10
      vertex 12 20.7846 10
    endloop
  endfacet
  facet normal 0.406737 0.913545 0
    outer loop
      vertex 7.41641 22.8254 10
      vertex 12 20.7846 0
      vertex 7.41641 22.8254 0
    endloop
  endfacet
  facet normal -0.743145 0.669131 0
    outer loop
      vertex -19.4164 14.1068 0
      vertex -16.0591 17.8355 10
      vertex -16.0591 17.8355 0
    endloop
  endfacet
  facet normal -0.743145 0.669131 0
    outer loop
      vertex -16.0591 17.8355 10
      vertex -19.4164 14.1068 0
      vertex -19.4164 14.1068 10
    endloop
  endfacet
  facet normal -0.866026 0.5 0
    outer loop
      vertex -21.9251 9.76168 0
      vertex -19.4164 14.1068 10
      vertex -19.4164 14.1068 0
    endloop
  endfacet
  facet normal -0.866026 0.5 0
    outer loop
      vertex -19.4164 14.1068 10
      vertex -21.9251 9.76168 0
      vertex -21.9251 9.76168 10
    endloop
  endfacet
  facet normal -0.406737 0.913545 0
    outer loop
      vertex -7.41641 22.8254 0
      vertex -12 20.7846 10
      vertex -7.41641 22.8254 10
    endloop
  endfacet
  facet normal -0.406737 0.913545 0
    outer loop
      vertex -12 20.7846 10
      vertex -7.41641 22.8254 0
      vertex -12 20.7846 0
    endloop
  endfacet
  facet normal 0.866026 0.5 0
    outer loop
      vertex 21.9251 9.76168 10
      vertex 19.4164 14.1068 0
      vertex 19.4164 14.1068 10
    endloop
  endfacet
  facet normal 0.866026 0.5 0
    outer loop
      vertex 19.4164 14.1068 0
      vertex 21.9251 9.76168 10
      vertex 21.9251 9.76168 0
    endloop
  endfacet
  facet normal 0.951057 0.309017 0
    outer loop
      vertex 23.4755 4.98988 10
      vertex 21.9251 9.76168 0
      vertex 21.9251 9.76168 10
    endloop
  endfacet
  facet normal 0.951057 0.309017 0
    outer loop
      vertex 21.9251 9.76168 0
      vertex 23.4755 4.98988 10
      vertex 23.4755 4.98988 0
    endloop
  endfacet
  facet normal 0.743145 0.669131 0
    outer loop
      vertex 19.4164 14.1068 10
      vertex 16.0591 17.8355 0
      vertex 16.0591 17.8355 10
    endloop
  endfacet
  facet normal 0.743145 0.669131 0
    outer loop
      vertex 16.0591 17.8355 0
      vertex 19.4164 14.1068 10
      vertex 19.4164 14.1068 0
    endloop
  endfacet
  facet normal 0.207912 0.978148 -0
    outer loop
      vertex 7.41641 22.8254 0
      vertex 2.50868 23.8685 10
      vertex 7.41641 22.8254 10
    endloop
  endfacet
  facet normal 0.207912 0.978148 0
    outer loop
      vertex 2.50868 23.8685 10
      vertex 7.41641 22.8254 0
      vertex 2.50868 23.8685 0
    endloop
  endfacet
  facet normal -0.951057 0.309017 0
    outer loop
      vertex -23.4755 4.98988 0
      vertex -21.9251 9.76168 10
      vertex -21.9251 9.76168 0
    endloop
  endfacet
  facet normal -0.951057 0.309017 0
    outer loop
      vertex -21.9251 9.76168 10
      vertex -23.4755 4.98988 0
      vertex -23.4755 4.98988 10
    endloop
  endfacet
  facet normal 0 0 1
    outer loop
      vertex 23.4755 4.98988 10
      vertex 19.9895 0.0999994 10
      vertex 20 0.0999994 10
    endloop
  endfacet
  facet normal 0 0 1
    outer loop
      vertex 23.4755 4.98988 10
      vertex 19.563 4.15823 10
      vertex 19.9895 0.0999994 10
    endloop
  endfacet
  facet normal 0 0 1
    outer loop
      vertex 18.2709 8.13473 10
      vertex 21.9251 9.76168 10
      vertex 19.4164 14.1068 10
    endloop
  endfacet
  facet normal 0 0 1
    outer loop
      vertex 21.9251 9.76168 10
      vertex 18.2709 8.13473 10
      vertex 19.563 4.15823 10
    endloop
  endfacet
  facet normal 0 0 1
    outer loop
      vertex 19.4164 14.1068 10
      vertex 16.1803 11.7557 10
      vertex 18.2709 8.13473 10
    endloop
  endfacet
  facet normal 0 0 1
    outer loop
      vertex 16.0591 17.8355 10
      vertex 16.1803 11.7557 10
      vertex 19.4164 14.1068 10
    endloop
  endfacet
  facet normal 0 0 1
    outer loop
      vertex 16.0591 17.8355 10
      vertex 13.3826 14.8629 10
      vertex 16.1803 11.7557 10
    endloop
  endfacet
  facet normal 0 0 1
    outer loop
      vertex 12 20.7846 10
      vertex 13.3826 14.8629 10
      vertex 16.0591 17.8355 10
    endloop
  endfacet
  facet normal 0 0 1
    outer loop
      vertex 12 20.7846 10
      vertex 10 17.3205 10
      vertex 13.3826 14.8629 10
    endloop
  endfacet
  facet normal 0 0 1
    outer loop
      vertex 7.41641 22.8254 10
      vertex 10 17.3205 10
      vertex 12 20.7846 10
    endloop
  endfacet
  facet normal 0 0 1
    outer loop
      vertex 7.41641 22.8254 10
      vertex 6.18034 19.0211 10
      vertex 10 17.3205 10
    endloop
  endfacet
  facet normal 0 0 1
    outer loop
      vertex 2.50868 23.8685 10
      vertex 6.18034 19.0211 10
      vertex 7.41641 22.8254 10
    endloop
  endfacet
  facet normal 0 0 1
    outer loop
      vertex 2.50868 23.8685 10
      vertex 2.09057 19.8904 10
      vertex 6.18034 19.0211 10
    endloop
  endfacet
  facet normal 0 0 1
    outer loop
      vertex 2.50868 23.8685 10
      vertex -2.09057 19.8904 10
      vertex 2.09057 19.8904 10
    endloop
  endfacet
  facet normal -0 0 1
    outer loop
      vertex -2.50868 23.8685 10
      vertex -2.09057 19.8904 10
      vertex 2.50868 23.8685 10
    endloop
  endfacet
  facet normal 0 0 1
    outer loop
      vertex -2.50868 23.8685 10
      vertex -6.18034 19.0211 10
      vertex -2.09057 19.8904 10
    endloop
  endfacet
  facet normal -0 0 1
    outer loop
      vertex -7.41641 22.8254 10
      vertex -6.18034 19.0211 10
      vertex -2.50868 23.8685 10
    endloop
  endfacet
  facet normal 0 0 1
    outer loop
      vertex -7.41641 22.8254 10
      vertex -10 17.3205 10
      vertex -6.18034 19.0211 10
    endloop
  endfacet
  facet normal -0 0 1
    outer loop
      vertex -12 20.7846 10
      vertex -10 17.3205 10
      vertex -7.41641 22.8254 10
    endloop
  endfacet
  facet normal 0 0 1
    outer loop
      vertex -12 20.7846 10
      vertex -13.3826 14.8629 10
      vertex -10 17.3205 10
    endloop
  endfacet
  facet normal -0 0 1
    outer loop
      vertex -16.0591 17.8355 10
      vertex -13.3826 14.8629 10
      vertex -12 20.7846 10
    endloop
  endfacet
  facet normal 0 0 1
    outer loop
      vertex -16.0591 17.8355 10
      vertex -16.1803 11.7557 10
      vertex -13.3826 14.8629 10
    endloop
  endfacet
  facet normal -0 0 1
    outer loop
      vertex -19.4164 14.1068 10
      vertex -16.1803 11.7557 10
      vertex -16.0591 17.8355 10
    endloop
  endfacet
  facet normal 0 0 1
    outer loop
      vertex -16.1803 11.7557 10
      vertex -19.4164 14.1068 10
      vertex -18.2709 8.13473 10
    endloop
  endfacet
  facet normal -0 0 1
    outer loop
      vertex -21.9251 9.76168 10
      vertex -18.2709 8.13473 10
      vertex -19.4164 14.1068 10
    endloop
  endfacet
  facet normal 0 0 1
    outer loop
      vertex -18.2709 8.13473 10
      vertex -21.9251 9.76168 10
      vertex -19.563 4.15823 10
    endloop
  endfacet
  facet normal -0 0 1
    outer loop
      vertex -23.4755 4.98988 10
      vertex -19.563 4.15823 10
      vertex -21.9251 9.76168 10
    endloop
  endfacet
  facet normal 0 -0 1
    outer loop
      vertex -20 0.0999994 10
      vertex -19.563 4.15823 10
      vertex -23.4755 4.98988 10
    endloop
  endfacet
  facet normal 0 0 1
    outer loop
      vertex -19.563 4.15823 10
      vertex -20 0.0999994 10
      vertex -19.9895 0.0999994 10
    endloop
  endfacet
  facet normal 0 0 1
    outer loop
      vertex -24 0 10
      vertex -20 0.0999994 10
      vertex -23.4755 4.98988 10
    endloop
  endfacet
  facet normal 0 0 1
    outer loop
      vertex -20 0.0999994 10
      vertex -24 0 10
      vertex -20 0 10
    endloop
  endfacet
  facet normal 0 0 1
    outer loop
      vertex 19.563 4.15823 10
      vertex 23.4755 4.98988 10
      vertex 21.9251 9.76168 10
    endloop
  endfacet
  facet normal 0 0 1
    outer loop
      vertex 23.4755 4.98988 10
      vertex 20 0.0999994 10
      vertex 24 0 10
    endloop
  endfacet
  facet normal 0 0 1
    outer loop
      vertex 24 0 10
      vertex 20 0.0999994 10
      vertex 20 0 10
    endloop
  endfacet
  facet normal -0.587785 0.809017 0
    outer loop
      vertex -12 20.7846 0
      vertex -16.0591 17.8355 10
      vertex -12 20.7846 10
    endloop
  endfacet
  facet normal -0.587785 0.809017 0
    outer loop
      vertex -16.0591 17.8355 10
      vertex -12 20.7846 0
      vertex -16.0591 17.8355 0
    endloop
  endfacet
  facet normal -0.207912 0.978148 0
    outer loop
      vertex -2.50868 23.8685 0
      vertex -7.41641 22.8254 10
      vertex -2.50868 23.8685 10
    endloop
  endfacet
  facet normal -0.207912 0.978148 0
    outer loop
      vertex -7.41641 22.8254 10
      vertex -2.50868 23.8685 0
      vertex -7.41641 22.8254 0
    endloop
  endfacet
  facet normal 0 -1 0
    outer loop
      vertex 20 0 2
      vertex 24 0 10
      vertex 20 0 10
    endloop
  endfacet
  facet normal 0 -1 -0
    outer loop
      vertex 24 0 10
      vertex 20 0 2
      vertex 24 0 2
    endloop
  endfacet
  facet normal 0 -1 0
    outer loop
      vertex -24 0 2
      vertex -20 0 10
      vertex -24 0 10
    endloop
  endfacet
  facet normal 0 -1 -0
    outer loop
      vertex -20 0 10
      vertex -24 0 2
      vertex -20 0 2
    endloop
  endfacet
  facet normal -0.994522 -0.104529 0
    outer loop
      vertex 19.9895 0.0999994 2
      vertex 19.563 4.15823 10
      vertex 19.563 4.15823 2
    endloop
  endfacet
  facet normal -0.994522 -0.104529 0
    outer loop
      vertex 19.563 4.15823 10
      vertex 19.9895 0.0999994 2
      vertex 19.9895 0.0999994 10
    endloop
  endfacet
  facet normal 0.994522 -0.104529 0
    outer loop
      vertex -19.9895 0.0999994 10
      vertex -19.563 4.15823 2
      vertex -19.563 4.15823 10
    endloop
  endfacet
  facet normal 0.994522 -0.104529 0
    outer loop
      vertex -19.563 4.15823 2
      vertex -19.9895 0.0999994 10
      vertex -19.9895 0.0999994 2
    endloop
  endfacet
  facet normal 0 -1 0
    outer loop
      vertex -2.09057 19.8904 2
      vertex 2.09057 19.8904 10
      vertex -2.09057 19.8904 10
    endloop
  endfacet
  facet normal 0 -1 -0
    outer loop
      vertex 2.09057 19.8904 10
      vertex -2.09057 19.8904 2
      vertex 2.09057 19.8904 2
    endloop
  endfacet
  facet normal -0.587785 -0.809017 0
    outer loop
      vertex 10 17.3205 2
      vertex 13.3826 14.8629 10
      vertex 10 17.3205 10
    endloop
  endfacet
  facet normal -0.587785 -0.809017 -0
    outer loop
      vertex 13.3826 14.8629 10
      vertex 10 17.3205 2
      vertex 13.3826 14.8629 2
    endloop
  endfacet
  facet normal -0.406737 -0.913545 0
    outer loop
      vertex 6.18034 19.0211 2
      vertex 10 17.3205 10
      vertex 6.18034 19.0211 10
    endloop
  endfacet
  facet normal -0.406737 -0.913545 -0
    outer loop
      vertex 10 17.3205 10
      vertex 6.18034 19.0211 2
      vertex 10 17.3205 2
    endloop
  endfacet
  facet normal 0.743145 -0.669131 0
    outer loop
      vertex -16.1803 11.7557 10
      vertex -13.3826 14.8629 2
      vertex -13.3826 14.8629 10
    endloop
  endfacet
  facet normal 0.743145 -0.669131 0
    outer loop
      vertex -13.3826 14.8629 2
      vertex -16.1803 11.7557 10
      vertex -16.1803 11.7557 2
    endloop
  endfacet
  facet normal 0.866026 -0.5 0
    outer loop
      vertex -18.2709 8.13473 10
      vertex -16.1803 11.7557 2
      vertex -16.1803 11.7557 10
    endloop
  endfacet
  facet normal 0.866026 -0.5 0
    outer loop
      vertex -16.1803 11.7557 2
      vertex -18.2709 8.13473 10
      vertex -18.2709 8.13473 2
    endloop
  endfacet
  facet normal 0.406737 -0.913545 0
    outer loop
      vertex -10 17.3205 2
      vertex -6.18034 19.0211 10
      vertex -10 17.3205 10
    endloop
  endfacet
  facet normal 0.406737 -0.913545 0
    outer loop
      vertex -6.18034 19.0211 10
      vertex -10 17.3205 2
      vertex -6.18034 19.0211 2
    endloop
  endfacet
  facet normal -0.866026 -0.5 0
    outer loop
      vertex 18.2709 8.13473 2
      vertex 16.1803 11.7557 10
      vertex 16.1803 11.7557 2
    endloop
  endfacet
  facet normal -0.866026 -0.5 0
    outer loop
      vertex 16.1803 11.7557 10
      vertex 18.2709 8.13473 2
      vertex 18.2709 8.13473 10
    endloop
  endfacet
  facet normal -0.951057 -0.309017 0
    outer loop
      vertex 19.563 4.15823 2
      vertex 18.2709 8.13473 10
      vertex 18.2709 8.13473 2
    endloop
  endfacet
  facet normal -0.951057 -0.309017 0
    outer loop
      vertex 18.2709 8.13473 10
      vertex 19.563 4.15823 2
      vertex 19.563 4.15823 10
    endloop
  endfacet
  facet normal -0.743145 -0.669131 0
    outer loop
      vertex 16.1803 11.7557 2
      vertex 13.3826 14.8629 10
      vertex 13.3826 14.8629 2
    endloop
  endfacet
  facet normal -0.743145 -0.669131 0
    outer loop
      vertex 13.3826 14.8629 10
      vertex 16.1803 11.7557 2
      vertex 16.1803 11.7557 10
    endloop
  endfacet
  facet normal -0.207912 -0.978148 0
    outer loop
      vertex 2.09057 19.8904 2
      vertex 6.18034 19.0211 10
      vertex 2.09057 19.8904 10
    endloop
  endfacet
  facet normal -0.207912 -0.978148 -0
    outer loop
      vertex 6.18034 19.0211 10
      vertex 2.09057 19.8904 2
      vertex 6.18034 19.0211 2
    endloop
  endfacet
  facet normal 0.951057 -0.309017 0
    outer loop
      vertex -19.563 4.15823 10
      vertex -18.2709 8.13473 2
      vertex -18.2709 8.13473 10
    endloop
  endfacet
  facet normal 0.951057 -0.309017 0
    outer loop
      vertex -18.2709 8.13473 2
      vertex -19.563 4.15823 10
      vertex -19.563 4.15823 2
    endloop
  endfacet
  facet normal 0.587785 -0.809017 0
    outer loop
      vertex -13.3826 14.8629 2
      vertex -10 17.3205 10
      vertex -13.3826 14.8629 10
    endloop
  endfacet
  facet normal 0.587785 -0.809017 0
    outer loop
      vertex -10 17.3205 10
      vertex -13.3826 14.8629 2
      vertex -10 17.3205 2
    endloop
  endfacet
  facet normal 0.207912 -0.978148 0
    outer loop
      vertex -6.18034 19.0211 2
      vertex -2.09057 19.8904 10
      vertex -6.18034 19.0211 10
    endloop
  endfacet
  facet normal 0.207912 -0.978148 0
    outer loop
      vertex -2.09057 19.8904 10
      vertex -6.18034 19.0211 2
      vertex -2.09057 19.8904 2
    endloop
  endfacet
  facet normal 1 -0 0
    outer loop
      vertex -20 0 10
      vertex -20 0.0999994 2
      vertex -20 0.0999994 10
    endloop
  endfacet
  facet normal 1 0 0
    outer loop
      vertex -20 0.0999994 2
      vertex -20 0 10
      vertex -20 0 2
    endloop
  endfacet
  facet normal -1 0 0
    outer loop
      vertex 20 0 2
      vertex 20 0.0999994 10
      vertex 20 0.0999994 2
    endloop
  endfacet
  facet normal -1 -0 0
    outer loop
      vertex 20 0.0999994 10
      vertex 20 0 2
      vertex 20 0 10
    endloop
  endfacet
  facet normal 0 -1 0
    outer loop
      vertex 19.9895 0.0999994 2
      vertex 20 0.0999994 10
      vertex 19.9895 0.0999994 10
    endloop
  endfacet
  facet normal 0 -1 -0
    outer loop
      vertex 20 0.0999994 10
      vertex 19.9895 0.0999994 2
      vertex 20 0.0999994 2
    endloop
  endfacet
  facet normal 0 -1 0
    outer loop
      vertex -20 0.0999994 2
      vertex -19.9895 0.0999994 10
      vertex -20 0.0999994 10
    endloop
  endfacet
  facet normal 0 -1 -0
    outer loop
      vertex -19.9895 0.0999994 10
      vertex -20 0.0999994 2
      vertex -19.9895 0.0999994 2
    endloop
  endfacet
  facet normal -0.866025 -0.5 0
    outer loop
      vertex 0.875 1.51554 0
      vertex 1.69227 0.0999994 2
      vertex 0.875 1.51554 2
    endloop
  endfacet
  facet normal -0.866025 -0.5 -4.99436e-09
    outer loop
      vertex 1.75 0 0
      vertex 1.69227 0.0999994 2
      vertex 0.875 1.51554 0
    endloop
  endfacet
  facet normal -0.866025 -0.5 0
    outer loop
      vertex 1.69227 0.0999994 2
      vertex 1.75 0 0
      vertex 1.75 0 2
    endloop
  endfacet
  facet normal 0.866025 -0.500001 0
    outer loop
      vertex -1.69227 0.0999994 2
      vertex -0.874999 1.51554 0
      vertex -0.874999 1.51554 2
    endloop
  endfacet
  facet normal 0.866025 -0.5 0
    outer loop
      vertex -1.75 0 0
      vertex -1.69227 0.0999994 2
      vertex -1.75 0 2
    endloop
  endfacet
  facet normal 0.866025 -0.500001 2.22533e-08
    outer loop
      vertex -1.69227 0.0999994 2
      vertex -1.75 0 0
      vertex -0.874999 1.51554 0
    endloop
  endfacet
  facet normal 0 -1 0
    outer loop
      vertex -0.874999 1.51554 0
      vertex 0.875 1.51554 2
      vertex -0.874999 1.51554 2
    endloop
  endfacet
  facet normal 0 -1 -0
    outer loop
      vertex 0.875 1.51554 2
      vertex -0.874999 1.51554 0
      vertex 0.875 1.51554 0
    endloop
  endfacet
  facet normal 0 1 -0
    outer loop
      vertex 0.875 -1.51554 0
      vertex -0.875 -1.51554 2
      vertex 0.875 -1.51554 2
    endloop
  endfacet
  facet normal 0 1 0
    outer loop
      vertex -0.875 -1.51554 2
      vertex 0.875 -1.51554 0
      vertex -0.875 -1.51554 0
    endloop
  endfacet
  facet normal 0.866025 0.5 0
    outer loop
      vertex -0.875 -1.51554 2
      vertex -1.75 0 0
      vertex -1.75 0 2
    endloop
  endfacet
  facet normal 0.866025 0.5 0
    outer loop
      vertex -1.75 0 0
      vertex -0.875 -1.51554 2
      vertex -0.875 -1.51554 0
    endloop
  endfacet
  facet normal -0.866025 0.5 0
    outer loop
      vertex 0.875 -1.51554 0
      vertex 1.75 0 2
      vertex 1.75 0 0
    endloop
  endfacet
  facet normal -0.866025 0.5 0
    outer loop
      vertex 1.75 0 2
      vertex 0.875 -1.51554 0
      vertex 0.875 -1.51554 2
    endloop
  endfacet
endsolid OpenSCAD_Model
