solid OpenSCAD_Model
  facet normal -1 0 0
    outer loop
      vertex -14.55 -2.95 0
      vertex -14.55 -2.80562 8
      vertex -14.55 -2.80562 0
    endloop
  endfacet
  facet normal -1 -0 0
    outer loop
      vertex -14.55 -2.80562 8
      vertex -14.55 -2.95 0
      vertex -14.55 -2.95 8
    endloop
  endfacet
  facet normal -1 0 0
    outer loop
      vertex -14.55 2.80562 0
      vertex -14.55 2.95 8
      vertex -14.55 2.95 0
    endloop
  endfacet
  facet normal -1 -0 0
    outer loop
      vertex -14.55 2.95 8
      vertex -14.55 2.80562 0
      vertex -14.55 2.80562 8
    endloop
  endfacet
  facet normal 0 0 1
    outer loop
      vertex -16.9366 1.73397 8
      vertex -14.55 2.80562 8
      vertex -15.4616 2.80562 8
    endloop
  endfacet
  facet normal 0 0 1
    outer loop
      vertex -17.5 0 8
      vertex -14.55 2.80562 8
      vertex -16.9366 1.73397 8
    endloop
  endfacet
  facet normal 0 0 1
    outer loop
      vertex -14.55 2.80562 8
      vertex -17.5 0 8
      vertex -14.55 -2.80562 8
    endloop
  endfacet
  facet normal 0 0 1
    outer loop
      vertex -14.55 -2.80562 8
      vertex -16.9366 -1.73397 8
      vertex -15.4616 -2.80562 8
    endloop
  endfacet
  facet normal 0 0 1
    outer loop
      vertex -14.55 -2.80562 8
      vertex -17.5 0 8
      vertex -16.9366 -1.73397 8
    endloop
  endfacet
  facet normal 0 0 1
    outer loop
      vertex -14.55 2.80562 8
      vertex -2.95 2.95 8
      vertex -14.55 2.95 8
    endloop
  endfacet
  facet normal 0 0 1
    outer loop
      vertex -2.95 2.95 8
      vertex -14.55 2.80562 8
      vertex -2.95 -2.95 8
    endloop
  endfacet
  facet normal -0 0 1
    outer loop
      vertex -14.55 -2.80562 8
      vertex -2.95 -2.95 8
      vertex -14.55 2.80562 8
    endloop
  endfacet
  facet normal 0 0 1
    outer loop
      vertex -2.95 -2.95 8
      vertex -14.55 -2.80562 8
      vertex -14.55 -2.95 8
    endloop
  endfacet
  facet normal 0 0 1
    outer loop
      vertex -0.874999 1.51554 8
      vertex -2.95 2.95 8
      vertex -1.75 0 8
    endloop
  endfacet
  facet normal 0 0 1
    outer loop
      vertex -2.95 -2.95 8
      vertex -1.75 0 8
      vertex -2.95 2.95 8
    endloop
  endfacet
  facet normal 0 0 1
    outer loop
      vertex -1.75 0 8
      vertex -2.95 -2.95 8
      vertex -2.80562 -14.55 8
    endloop
  endfacet
  facet normal 0 0 1
    outer loop
      vertex -2.80562 -14.55 8
      vertex -2.95 -2.95 8
      vertex -2.95 -14.55 8
    endloop
  endfacet
  facet normal 0 0 1
    outer loop
      vertex 1.73397 16.9366 8
      vertex 2.80562 14.55 8
      vertex 2.80562 15.4616 8
    endloop
  endfacet
  facet normal 0 0 1
    outer loop
      vertex 2.80562 14.55 8
      vertex 1.75 0 8
      vertex 2.80562 -14.55 8
    endloop
  endfacet
  facet normal -0 0 1
    outer loop
      vertex 0.875 -1.51554 8
      vertex 2.80562 -14.55 8
      vertex 1.75 0 8
    endloop
  endfacet
  facet normal 0 0 1
    outer loop
      vertex 3.88578e-15 17.5 8
      vertex 2.80562 14.55 8
      vertex 1.73397 16.9366 8
    endloop
  endfacet
  facet normal 0 0 1
    outer loop
      vertex 2.80562 14.55 8
      vertex 0.875 1.51554 8
      vertex 1.75 0 8
    endloop
  endfacet
  facet normal 0 0 1
    outer loop
      vertex 2.80562 14.55 8
      vertex 3.88578e-15 17.5 8
      vertex -2.80562 14.55 8
    endloop
  endfacet
  facet normal 0 0 1
    outer loop
      vertex -2.95 2.95 8
      vertex 2.80562 14.55 8
      vertex -2.80562 14.55 8
    endloop
  endfacet
  facet normal 0 0 1
    outer loop
      vertex -2.80562 14.55 8
      vertex 3.88578e-15 17.5 8
      vertex -1.73397 16.9366 8
    endloop
  endfacet
  facet normal 0 0 1
    outer loop
      vertex 2.80562 14.55 8
      vertex -2.95 2.95 8
      vertex 0.875 1.51554 8
    endloop
  endfacet
  facet normal 0 0 1
    outer loop
      vertex -2.80562 14.55 8
      vertex -1.73397 16.9366 8
      vertex -2.80562 15.4616 8
    endloop
  endfacet
  facet normal -0 0 1
    outer loop
      vertex 2.80562 14.55 8
      vertex 2.95 2.95 8
      vertex 2.95 14.55 8
    endloop
  endfacet
  facet normal 0 0 1
    outer loop
      vertex 2.95 2.95 8
      vertex 2.80562 14.55 8
      vertex 2.95 -2.95 8
    endloop
  endfacet
  facet normal 0 0 1
    outer loop
      vertex 2.80562 -14.55 8
      vertex 2.95 -2.95 8
      vertex 2.80562 14.55 8
    endloop
  endfacet
  facet normal 0 0 1
    outer loop
      vertex 2.95 -2.95 8
      vertex 2.80562 -14.55 8
      vertex 2.95 -14.55 8
    endloop
  endfacet
  facet normal -0 0 1
    outer loop
      vertex 2.95 2.95 8
      vertex 14.55 2.80562 8
      vertex 14.55 2.95 8
    endloop
  endfacet
  facet normal 0 0 1
    outer loop
      vertex 14.55 2.80562 8
      vertex 2.95 2.95 8
      vertex 14.55 -2.80562 8
    endloop
  endfacet
  facet normal 0 0 1
    outer loop
      vertex 2.95 -2.95 8
      vertex 14.55 -2.80562 8
      vertex 2.95 2.95 8
    endloop
  endfacet
  facet normal 0 0 1
    outer loop
      vertex 14.55 -2.80562 8
      vertex 2.95 -2.95 8
      vertex 14.55 -2.95 8
    endloop
  endfacet
  facet normal 0 0 1
    outer loop
      vertex 14.55 2.80562 8
      vertex 17.5 0 8
      vertex 16.9366 1.73397 8
    endloop
  endfacet
  facet normal -0 0 1
    outer loop
      vertex 14.55 2.80562 8
      vertex 16.9366 1.73397 8
      vertex 15.4616 2.80562 8
    endloop
  endfacet
  facet normal 0 0 1
    outer loop
      vertex 14.55 -2.80562 8
      vertex 17.5 0 8
      vertex 14.55 2.80562 8
    endloop
  endfacet
  facet normal 0 0 1
    outer loop
      vertex 17.5 0 8
      vertex 14.55 -2.80562 8
      vertex 16.9366 -1.73397 8
    endloop
  endfacet
  facet normal 0 0 1
    outer loop
      vertex 16.9366 -1.73397 8
      vertex 14.55 -2.80562 8
      vertex 15.4616 -2.80562 8
    endloop
  endfacet
  facet normal 0 0 1
    outer loop
      vertex -2.80562 -14.55 8
      vertex 2.80562 -14.55 8
      vertex 0.875 -1.51554 8
    endloop
  endfacet
  facet normal 0 -0 1
    outer loop
      vertex -3.88578e-15 -17.5 8
      vertex 2.80562 -14.55 8
      vertex -2.80562 -14.55 8
    endloop
  endfacet
  facet normal 0 0 1
    outer loop
      vertex 2.80562 -14.55 8
      vertex 1.73397 -16.9366 8
      vertex 2.80562 -15.4616 8
    endloop
  endfacet
  facet normal 0 0 1
    outer loop
      vertex -2.80562 -14.55 8
      vertex 0.875 -1.51554 8
      vertex -0.875 -1.51554 8
    endloop
  endfacet
  facet normal 0 0 1
    outer loop
      vertex 2.80562 -14.55 8
      vertex -3.88578e-15 -17.5 8
      vertex 1.73397 -16.9366 8
    endloop
  endfacet
  facet normal 0 0 1
    outer loop
      vertex -2.80562 -14.55 8
      vertex -0.875 -1.51554 8
      vertex -1.75 0 8
    endloop
  endfacet
  facet normal 0 0 1
    outer loop
      vertex -2.95 2.95 8
      vertex -2.80562 14.55 8
      vertex -2.95 14.55 8
    endloop
  endfacet
  facet normal 0 0 1
    outer loop
      vertex 0.875 1.51554 8
      vertex -2.95 2.95 8
      vertex -0.874999 1.51554 8
    endloop
  endfacet
  facet normal 0 0 1
    outer loop
      vertex -3.88578e-15 -17.5 8
      vertex -2.80562 -14.55 8
      vertex -1.73397 -16.9366 8
    endloop
  endfacet
  facet normal 0 0 1
    outer loop
      vertex -1.73397 -16.9366 8
      vertex -2.80562 -14.55 8
      vertex -2.80562 -15.4616 8
    endloop
  endfacet
  facet normal 1 -0 0
    outer loop
      vertex 14.55 -2.95 8
      vertex 14.55 -2.80562 0
      vertex 14.55 -2.80562 8
    endloop
  endfacet
  facet normal 1 0 0
    outer loop
      vertex 14.55 -2.80562 0
      vertex 14.55 -2.95 8
      vertex 14.55 -2.95 0
    endloop
  endfacet
  facet normal 1 -0 0
    outer loop
      vertex 14.55 2.80562 8
      vertex 14.55 2.95 0
      vertex 14.55 2.95 8
    endloop
  endfacet
  facet normal 1 0 0
    outer loop
      vertex 14.55 2.95 0
      vertex 14.55 2.80562 8
      vertex 14.55 2.80562 0
    endloop
  endfacet
  facet normal 0 0 -1
    outer loop
      vertex -16.9366 -1.73397 0
      vertex -14.55 -2.80562 0
      vertex -15.4616 -2.80562 0
    endloop
  endfacet
  facet normal 0 0 -1
    outer loop
      vertex -17.5 0 0
      vertex -14.55 -2.80562 0
      vertex -16.9366 -1.73397 0
    endloop
  endfacet
  facet normal 0 0 -1
    outer loop
      vertex -14.55 -2.80562 0
      vertex -17.5 0 0
      vertex -14.55 2.80562 0
    endloop
  endfacet
  facet normal -0 0 -1
    outer loop
      vertex -14.55 2.80562 0
      vertex -16.9366 1.73397 0
      vertex -15.4616 2.80562 0
    endloop
  endfacet
  facet normal 0 0 -1
    outer loop
      vertex -14.55 2.80562 0
      vertex -17.5 0 0
      vertex -16.9366 1.73397 0
    endloop
  endfacet
  facet normal 0 0 -1
    outer loop
      vertex -14.55 -2.80562 0
      vertex -2.95 -2.95 0
      vertex -14.55 -2.95 0
    endloop
  endfacet
  facet normal 0 0 -1
    outer loop
      vertex -2.95 -2.95 0
      vertex -14.55 -2.80562 0
      vertex -2.95 2.95 0
    endloop
  endfacet
  facet normal 0 0 -1
    outer loop
      vertex -14.55 2.80562 0
      vertex -2.95 2.95 0
      vertex -14.55 -2.80562 0
    endloop
  endfacet
  facet normal -0 0 -1
    outer loop
      vertex -2.95 2.95 0
      vertex -14.55 2.80562 0
      vertex -14.55 2.95 0
    endloop
  endfacet
  facet normal -0 0 -1
    outer loop
      vertex -0.875 -1.51554 0
      vertex -2.95 -2.95 0
      vertex -1.75 0 0
    endloop
  endfacet
  facet normal 0 0 -1
    outer loop
      vertex -2.95 2.95 0
      vertex -1.75 0 0
      vertex -2.95 -2.95 0
    endloop
  endfacet
  facet normal 0 0 -1
    outer loop
      vertex -1.75 0 0
      vertex -2.95 2.95 0
      vertex -2.80562 14.55 0
    endloop
  endfacet
  facet normal -0 0 -1
    outer loop
      vertex -2.80562 14.55 0
      vertex -2.95 2.95 0
      vertex -2.95 14.55 0
    endloop
  endfacet
  facet normal 0 0 -1
    outer loop
      vertex 1.73397 -16.9366 0
      vertex 2.80562 -14.55 0
      vertex 2.80562 -15.4616 0
    endloop
  endfacet
  facet normal 0 0 -1
    outer loop
      vertex 2.80562 -14.55 0
      vertex 1.75 0 0
      vertex 2.80562 14.55 0
    endloop
  endfacet
  facet normal 0 0 -1
    outer loop
      vertex 0.875 1.51554 0
      vertex 2.80562 14.55 0
      vertex 1.75 0 0
    endloop
  endfacet
  facet normal 0 0 -1
    outer loop
      vertex -3.88578e-15 -17.5 0
      vertex 2.80562 -14.55 0
      vertex 1.73397 -16.9366 0
    endloop
  endfacet
  facet normal 0 0 -1
    outer loop
      vertex 2.80562 -14.55 0
      vertex 0.875 -1.51554 0
      vertex 1.75 0 0
    endloop
  endfacet
  facet normal -0 0 -1
    outer loop
      vertex 2.80562 -14.55 0
      vertex -3.88578e-15 -17.5 0
      vertex -2.80562 -14.55 0
    endloop
  endfacet
  facet normal 0 0 -1
    outer loop
      vertex -2.95 -2.95 0
      vertex 2.80562 -14.55 0
      vertex -2.80562 -14.55 0
    endloop
  endfacet
  facet normal 0 0 -1
    outer loop
      vertex -2.80562 -14.55 0
      vertex -3.88578e-15 -17.5 0
      vertex -1.73397 -16.9366 0
    endloop
  endfacet
  facet normal 0 0 -1
    outer loop
      vertex 2.80562 -14.55 0
      vertex -2.95 -2.95 0
      vertex 0.875 -1.51554 0
    endloop
  endfacet
  facet normal 0 0 -1
    outer loop
      vertex -2.80562 -14.55 0
      vertex -1.73397 -16.9366 0
      vertex -2.80562 -15.4616 0
    endloop
  endfacet
  facet normal 0 0 -1
    outer loop
      vertex 2.80562 -14.55 0
      vertex 2.95 -2.95 0
      vertex 2.95 -14.55 0
    endloop
  endfacet
  facet normal -0 0 -1
    outer loop
      vertex 2.95 -2.95 0
      vertex 2.80562 -14.55 0
      vertex 2.95 2.95 0
    endloop
  endfacet
  facet normal 0 0 -1
    outer loop
      vertex 2.80562 14.55 0
      vertex 2.95 2.95 0
      vertex 2.80562 -14.55 0
    endloop
  endfacet
  facet normal 0 0 -1
    outer loop
      vertex 2.95 2.95 0
      vertex 2.80562 14.55 0
      vertex 2.95 14.55 0
    endloop
  endfacet
  facet normal 0 0 -1
    outer loop
      vertex 2.95 -2.95 0
      vertex 14.55 -2.80562 0
      vertex 14.55 -2.95 0
    endloop
  endfacet
  facet normal -0 0 -1
    outer loop
      vertex 14.55 -2.80562 0
      vertex 2.95 -2.95 0
      vertex 14.55 2.80562 0
    endloop
  endfacet
  facet normal 0 0 -1
    outer loop
      vertex 2.95 2.95 0
      vertex 14.55 2.80562 0
      vertex 2.95 -2.95 0
    endloop
  endfacet
  facet normal 0 0 -1
    outer loop
      vertex 14.55 2.80562 0
      vertex 2.95 2.95 0
      vertex 14.55 2.95 0
    endloop
  endfacet
  facet normal 0 0 -1
    outer loop
      vertex 14.55 -2.80562 0
      vertex 17.5 0 0
      vertex 16.9366 -1.73397 0
    endloop
  endfacet
  facet normal 0 0 -1
    outer loop
      vertex 14.55 -2.80562 0
      vertex 16.9366 -1.73397 0
      vertex 15.4616 -2.80562 0
    endloop
  endfacet
  facet normal 0 0 -1
    outer loop
      vertex 14.55 2.80562 0
      vertex 17.5 0 0
      vertex 14.55 -2.80562 0
    endloop
  endfacet
  facet normal 0 0 -1
    outer loop
      vertex 17.5 0 0
      vertex 14.55 2.80562 0
      vertex 16.9366 1.73397 0
    endloop
  endfacet
  facet normal 0 0 -1
    outer loop
      vertex 16.9366 1.73397 0
      vertex 14.55 2.80562 0
      vertex 15.4616 2.80562 0
    endloop
  endfacet
  facet normal 0 0 -1
    outer loop
      vertex -2.80562 14.55 0
      vertex 2.80562 14.55 0
      vertex 0.875 1.51554 0
    endloop
  endfacet
  facet normal 0 -0 -1
    outer loop
      vertex 3.88578e-15 17.5 0
      vertex 2.80562 14.55 0
      vertex -2.80562 14.55 0
    endloop
  endfacet
  facet normal 0 0 -1
    outer loop
      vertex 2.80562 14.55 0
      vertex 1.73397 16.9366 0
      vertex 2.80562 15.4616 0
    endloop
  endfacet
  facet normal 0 0 -1
    outer loop
      vertex -2.80562 14.55 0
      vertex 0.875 1.51554 0
      vertex -0.874999 1.51554 0
    endloop
  endfacet
  facet normal 0 0 -1
    outer loop
      vertex 2.80562 14.55 0
      vertex 3.88578e-15 17.5 0
      vertex 1.73397 16.9366 0
    endloop
  endfacet
  facet normal 0 0 -1
    outer loop
      vertex -2.80562 14.55 0
      vertex -0.874999 1.51554 0
      vertex -1.75 0 0
    endloop
  endfacet
  facet normal 0 0 -1
    outer loop
      vertex -2.95 -2.95 0
      vertex -2.80562 -14.55 0
      vertex -2.95 -14.55 0
    endloop
  endfacet
  facet normal -0 0 -1
    outer loop
      vertex 0.875 -1.51554 0
      vertex -2.95 -2.95 0
      vertex -0.875 -1.51554 0
    endloop
  endfacet
  facet normal 0 0 -1
    outer loop
      vertex 3.88578e-15 17.5 0
      vertex -2.80562 14.55 0
      vertex -1.73397 16.9366 0
    endloop
  endfacet
  facet normal 0 0 -1
    outer loop
      vertex -1.73397 16.9366 0
      vertex -2.80562 14.55 0
      vertex -2.80562 15.4616 0
    endloop
  endfacet
  facet normal 0 -1 0
    outer loop
      vertex -14.55 -2.95 0
      vertex -2.95 -2.95 8
      vertex -14.55 -2.95 8
    endloop
  endfacet
  facet normal 0 -1 -0
    outer loop
      vertex -2.95 -2.95 8
      vertex -14.55 -2.95 0
      vertex -2.95 -2.95 0
    endloop
  endfacet
  facet normal 0 -1 0
    outer loop
      vertex 2.95 -2.95 0
      vertex 14.55 -2.95 8
      vertex 2.95 -2.95 8
    endloop
  endfacet
  facet normal 0 -1 -0
    outer loop
      vertex 14.55 -2.95 8
      vertex 2.95 -2.95 0
      vertex 14.55 -2.95 0
    endloop
  endfacet
  facet normal 0 1 -0
    outer loop
      vertex 14.55 2.95 0
      vertex 2.95 2.95 8
      vertex 14.55 2.95 8
    endloop
  endfacet
  facet normal 0 1 0
    outer loop
      vertex 2.95 2.95 8
      vertex 14.55 2.95 0
      vertex 2.95 2.95 0
    endloop
  endfacet
  facet normal 0 1 -0
    outer loop
      vertex -2.95 2.95 0
      vertex -14.55 2.95 8
      vertex -2.95 2.95 8
    endloop
  endfacet
  facet normal 0 1 0
    outer loop
      vertex -14.55 2.95 8
      vertex -2.95 2.95 0
      vertex -14.55 2.95 0
    endloop
  endfacet
  facet normal 0.951056 0.309017 0
    outer loop
      vertex 17.5 0 8
      vertex 16.9366 1.73397 0
      vertex 16.9366 1.73397 8
    endloop
  endfacet
  facet normal 0.951056 0.309017 0
    outer loop
      vertex 16.9366 1.73397 0
      vertex 17.5 0 8
      vertex 17.5 0 0
    endloop
  endfacet
  facet normal 0 -1 0
    outer loop
      vertex 14.55 -2.80562 0
      vertex 15.4616 -2.80562 8
      vertex 14.55 -2.80562 8
    endloop
  endfacet
  facet normal 0 -1 -0
    outer loop
      vertex 15.4616 -2.80562 8
      vertex 14.55 -2.80562 0
      vertex 15.4616 -2.80562 0
    endloop
  endfacet
  facet normal 0 1 -0
    outer loop
      vertex 15.4616 2.80562 0
      vertex 14.55 2.80562 8
      vertex 15.4616 2.80562 8
    endloop
  endfacet
  facet normal 0 1 0
    outer loop
      vertex 14.55 2.80562 8
      vertex 15.4616 2.80562 0
      vertex 14.55 2.80562 0
    endloop
  endfacet
  facet normal 0.587785 0.809017 -0
    outer loop
      vertex 16.9366 1.73397 0
      vertex 15.4616 2.80562 8
      vertex 16.9366 1.73397 8
    endloop
  endfacet
  facet normal 0.587785 0.809017 0
    outer loop
      vertex 15.4616 2.80562 8
      vertex 16.9366 1.73397 0
      vertex 15.4616 2.80562 0
    endloop
  endfacet
  facet normal 0.951056 -0.309017 0
    outer loop
      vertex 16.9366 -1.73397 8
      vertex 17.5 0 0
      vertex 17.5 0 8
    endloop
  endfacet
  facet normal 0.951056 -0.309017 0
    outer loop
      vertex 17.5 0 0
      vertex 16.9366 -1.73397 8
      vertex 16.9366 -1.73397 0
    endloop
  endfacet
  facet normal 0.587785 -0.809017 0
    outer loop
      vertex 15.4616 -2.80562 0
      vertex 16.9366 -1.73397 8
      vertex 15.4616 -2.80562 8
    endloop
  endfacet
  facet normal 0.587785 -0.809017 0
    outer loop
      vertex 16.9366 -1.73397 8
      vertex 15.4616 -2.80562 0
      vertex 16.9366 -1.73397 0
    endloop
  endfacet
  facet normal -0.951056 0.309017 0
    outer loop
      vertex -17.5 0 0
      vertex -16.9366 1.73397 8
      vertex -16.9366 1.73397 0
    endloop
  endfacet
  facet normal -0.951056 0.309017 0
    outer loop
      vertex -16.9366 1.73397 8
      vertex -17.5 0 0
      vertex -17.5 0 8
    endloop
  endfacet
  facet normal 0 -1 0
    outer loop
      vertex -15.4616 -2.80562 0
      vertex -14.55 -2.80562 8
      vertex -15.4616 -2.80562 8
    endloop
  endfacet
  facet normal 0 -1 -0
    outer loop
      vertex -14.55 -2.80562 8
      vertex -15.4616 -2.80562 0
      vertex -14.55 -2.80562 0
    endloop
  endfacet
  facet normal 0 1 -0
    outer loop
      vertex -14.55 2.80562 0
      vertex -15.4616 2.80562 8
      vertex -14.55 2.80562 8
    endloop
  endfacet
  facet normal 0 1 0
    outer loop
      vertex -15.4616 2.80562 8
      vertex -14.55 2.80562 0
      vertex -15.4616 2.80562 0
    endloop
  endfacet
  facet normal -0.587785 0.809017 0
    outer loop
      vertex -15.4616 2.80562 0
      vertex -16.9366 1.73397 8
      vertex -15.4616 2.80562 8
    endloop
  endfacet
  facet normal -0.587785 0.809017 0
    outer loop
      vertex -16.9366 1.73397 8
      vertex -15.4616 2.80562 0
      vertex -16.9366 1.73397 0
    endloop
  endfacet
  facet normal -0.587785 -0.809017 0
    outer loop
      vertex -16.9366 -1.73397 0
      vertex -15.4616 -2.80562 8
      vertex -16.9366 -1.73397 8
    endloop
  endfacet
  facet normal -0.587785 -0.809017 -0
    outer loop
      vertex -15.4616 -2.80562 8
      vertex -16.9366 -1.73397 0
      vertex -15.4616 -2.80562 0
    endloop
  endfacet
  facet normal -0.951056 -0.309017 0
    outer loop
      vertex -16.9366 -1.73397 0
      vertex -17.5 0 8
      vertex -17.5 0 0
    endloop
  endfacet
  facet normal -0.951056 -0.309017 0
    outer loop
      vertex -17.5 0 8
      vertex -16.9366 -1.73397 0
      vertex -16.9366 -1.73397 8
    endloop
  endfacet
  facet normal 0 -1 0
    outer loop
      vertex 2.80562 -14.55 0
      vertex 2.95 -14.55 8
      vertex 2.80562 -14.55 8
    endloop
  endfacet
  facet normal 0 -1 -0
    outer loop
      vertex 2.95 -14.55 8
      vertex 2.80562 -14.55 0
      vertex 2.95 -14.55 0
    endloop
  endfacet
  facet normal 0 -1 0
    outer loop
      vertex -2.95 -14.55 0
      vertex -2.80562 -14.55 8
      vertex -2.95 -14.55 8
    endloop
  endfacet
  facet normal 0 -1 -0
    outer loop
      vertex -2.80562 -14.55 8
      vertex -2.95 -14.55 0
      vertex -2.80562 -14.55 0
    endloop
  endfacet
  facet normal 0 1 -0
    outer loop
      vertex 2.95 14.55 0
      vertex 2.80562 14.55 8
      vertex 2.95 14.55 8
    endloop
  endfacet
  facet normal 0 1 0
    outer loop
      vertex 2.80562 14.55 8
      vertex 2.95 14.55 0
      vertex 2.80562 14.55 0
    endloop
  endfacet
  facet normal 0 1 -0
    outer loop
      vertex -2.80562 14.55 0
      vertex -2.95 14.55 8
      vertex -2.80562 14.55 8
    endloop
  endfacet
  facet normal 0 1 0
    outer loop
      vertex -2.95 14.55 8
      vertex -2.80562 14.55 0
      vertex -2.95 14.55 0
    endloop
  endfacet
  facet normal 1 -0 0
    outer loop
      vertex 2.95 -14.55 8
      vertex 2.95 -2.95 0
      vertex 2.95 -2.95 8
    endloop
  endfacet
  facet normal 1 0 0
    outer loop
      vertex 2.95 -2.95 0
      vertex 2.95 -14.55 8
      vertex 2.95 -14.55 0
    endloop
  endfacet
  facet normal 1 -0 0
    outer loop
      vertex 2.95 2.95 8
      vertex 2.95 14.55 0
      vertex 2.95 14.55 8
    endloop
  endfacet
  facet normal 1 0 0
    outer loop
      vertex 2.95 14.55 0
      vertex 2.95 2.95 8
      vertex 2.95 2.95 0
    endloop
  endfacet
  facet normal -1 0 0
    outer loop
      vertex -2.95 2.95 0
      vertex -2.95 14.55 8
      vertex -2.95 14.55 0
    endloop
  endfacet
  facet normal -1 -0 0
    outer loop
      vertex -2.95 14.55 8
      vertex -2.95 2.95 0
      vertex -2.95 2.95 8
    endloop
  endfacet
  facet normal -1 0 0
    outer loop
      vertex -2.95 -14.55 0
      vertex -2.95 -2.95 8
      vertex -2.95 -2.95 0
    endloop
  endfacet
  facet normal -1 -0 0
    outer loop
      vertex -2.95 -2.95 8
      vertex -2.95 -14.55 0
      vertex -2.95 -14.55 8
    endloop
  endfacet
  facet normal -0.309017 0.951056 0
    outer loop
      vertex 3.88578e-15 17.5 0
      vertex -1.73397 16.9366 8
      vertex 3.88578e-15 17.5 8
    endloop
  endfacet
  facet normal -0.309017 0.951056 0
    outer loop
      vertex -1.73397 16.9366 8
      vertex 3.88578e-15 17.5 0
      vertex -1.73397 16.9366 0
    endloop
  endfacet
  facet normal 1 -0 0
    outer loop
      vertex 2.80562 14.55 8
      vertex 2.80562 15.4616 0
      vertex 2.80562 15.4616 8
    endloop
  endfacet
  facet normal 1 0 0
    outer loop
      vertex 2.80562 15.4616 0
      vertex 2.80562 14.55 8
      vertex 2.80562 14.55 0
    endloop
  endfacet
  facet normal -1 0 0
    outer loop
      vertex -2.80562 14.55 0
      vertex -2.80562 15.4616 8
      vertex -2.80562 15.4616 0
    endloop
  endfacet
  facet normal -1 -0 0
    outer loop
      vertex -2.80562 15.4616 8
      vertex -2.80562 14.55 0
      vertex -2.80562 14.55 8
    endloop
  endfacet
  facet normal -0.809017 0.587785 0
    outer loop
      vertex -2.80562 15.4616 0
      vertex -1.73397 16.9366 8
      vertex -1.73397 16.9366 0
    endloop
  endfacet
  facet normal -0.809017 0.587785 0
    outer loop
      vertex -1.73397 16.9366 8
      vertex -2.80562 15.4616 0
      vertex -2.80562 15.4616 8
    endloop
  endfacet
  facet normal 0.309017 0.951056 -0
    outer loop
      vertex 1.73397 16.9366 0
      vertex 3.88578e-15 17.5 8
      vertex 1.73397 16.9366 8
    endloop
  endfacet
  facet normal 0.309017 0.951056 0
    outer loop
      vertex 3.88578e-15 17.5 8
      vertex 1.73397 16.9366 0
      vertex 3.88578e-15 17.5 0
    endloop
  endfacet
  facet normal 0.809017 0.587785 0
    outer loop
      vertex 2.80562 15.4616 8
      vertex 1.73397 16.9366 0
      vertex 1.73397 16.9366 8
    endloop
  endfacet
  facet normal 0.809017 0.587785 0
    outer loop
      vertex 1.73397 16.9366 0
      vertex 2.80562 15.4616 8
      vertex 2.80562 15.4616 0
    endloop
  endfacet
  facet normal -0.309017 -0.951056 0
    outer loop
      vertex -1.73397 -16.9366 0
      vertex -3.88578e-15 -17.5 8
      vertex -1.73397 -16.9366 8
    endloop
  endfacet
  facet normal -0.309017 -0.951056 -0
    outer loop
      vertex -3.88578e-15 -17.5 8
      vertex -1.73397 -16.9366 0
      vertex -3.88578e-15 -17.5 0
    endloop
  endfacet
  facet normal 1 -0 0
    outer loop
      vertex 2.80562 -15.4616 8
      vertex 2.80562 -14.55 0
      vertex 2.80562 -14.55 8
    endloop
  endfacet
  facet normal 1 0 0
    outer loop
      vertex 2.80562 -14.55 0
      vertex 2.80562 -15.4616 8
      vertex 2.80562 -15.4616 0
    endloop
  endfacet
  facet normal -1 0 0
    outer loop
      vertex -2.80562 -15.4616 0
      vertex -2.80562 -14.55 8
      vertex -2.80562 -14.55 0
    endloop
  endfacet
  facet normal -1 -0 0
    outer loop
      vertex -2.80562 -14.55 8
      vertex -2.80562 -15.4616 0
      vertex -2.80562 -15.4616 8
    endloop
  endfacet
  facet normal -0.809017 -0.587785 0
    outer loop
      vertex -1.73397 -16.9366 0
      vertex -2.80562 -15.4616 8
      vertex -2.80562 -15.4616 0
    endloop
  endfacet
  facet normal -0.809017 -0.587785 0
    outer loop
      vertex -2.80562 -15.4616 8
      vertex -1.73397 -16.9366 0
      vertex -1.73397 -16.9366 8
    endloop
  endfacet
  facet normal 0.809017 -0.587785 0
    outer loop
      vertex 1.73397 -16.9366 8
      vertex 2.80562 -15.4616 0
      vertex 2.80562 -15.4616 8
    endloop
  endfacet
  facet normal 0.809017 -0.587785 0
    outer loop
      vertex 2.80562 -15.4616 0
      vertex 1.73397 -16.9366 8
      vertex 1.73397 -16.9366 0
    endloop
  endfacet
  facet normal 0.309017 -0.951056 0
    outer loop
      vertex -3.88578e-15 -17.5 0
      vertex 1.73397 -16.9366 8
      vertex -3.88578e-15 -17.5 8
    endloop
  endfacet
  facet normal 0.309017 -0.951056 0
    outer loop
      vertex 1.73397 -16.9366 8
      vertex -3.88578e-15 -17.5 0
      vertex 1.73397 -16.9366 0
    endloop
  endfacet
  facet normal -0.866025 -0.5 0
    outer loop
      vertex 1.75 0 0
      vertex 0.875 1.51554 8
      vertex 0.875 1.51554 0
    endloop
  endfacet
  facet normal -0.866025 -0.5 0
    outer loop
      vertex 0.875 1.51554 8
      vertex 1.75 0 0
      vertex 1.75 0 8
    endloop
  endfacet
  facet normal 0.866025 -0.500001 0
    outer loop
      vertex -1.75 0 8
      vertex -0.874999 1.51554 0
      vertex -0.874999 1.51554 8
    endloop
  endfacet
  facet normal 0.866025 -0.500001 0
    outer loop
      vertex -0.874999 1.51554 0
      vertex -1.75 0 8
      vertex -1.75 0 0
    endloop
  endfacet
  facet normal 0 -1 0
    outer loop
      vertex -0.874999 1.51554 0
      vertex 0.875 1.51554 8
      vertex -0.874999 1.51554 8
    endloop
  endfacet
  facet normal 0 -1 -0
    outer loop
      vertex 0.875 1.51554 8
      vertex -0.874999 1.51554 0
      vertex 0.875 1.51554 0
    endloop
  endfacet
  facet normal 0.866025 0.5 0
    outer loop
      vertex -0.875 -1.51554 8
      vertex -1.75 0 0
      vertex -1.75 0 8
    endloop
  endfacet
  facet normal 0.866025 0.5 0
    outer loop
      vertex -1.75 0 0
      vertex -0.875 -1.51554 8
      vertex -0.875 -1.51554 0
    endloop
  endfacet
  facet normal 0 1 -0
    outer loop
      vertex 0.875 -1.51554 0
      vertex -0.875 -1.51554 8
      vertex 0.875 -1.51554 8
    endloop
  endfacet
  facet normal 0 1 0
    outer loop
      vertex -0.875 -1.51554 8
      vertex 0.875 -1.51554 0
      vertex -0.875 -1.51554 0
    endloop
  endfacet
  facet normal -0.866025 0.5 0
    outer loop
      vertex 0.875 -1.51554 0
      vertex 1.75 0 8
      vertex 1.75 0 0
    endloop
  endfacet
  facet normal -0.866025 0.5 0
    outer loop
      vertex 1.75 0 8
      vertex 0.875 -1.51554 0
      vertex 0.875 -1.51554 8
    endloop
  endfacet
endsolid OpenSCAD_Model
