solid OpenSCAD_Model
  facet normal 0.994522 0.104529 0
    outer loop
      vertex 4.5 0 5
      vertex 4.40166 0.935602 0
      vertex 4.40166 0.935602 5
    endloop
  endfacet
  facet normal 0.994522 0.104529 0
    outer loop
      vertex 4.40166 0.935602 0
      vertex 4.5 0 5
      vertex 4.5 0 0
    endloop
  endfacet
  facet normal -0.994522 0.104529 0
    outer loop
      vertex -4.5 0 0
      vertex -4.40166 0.935602 5
      vertex -4.40166 0.935602 0
    endloop
  endfacet
  facet normal -0.994522 0.104529 0
    outer loop
      vertex -4.40166 0.935602 5
      vertex -4.5 0 0
      vertex -4.5 0 5
    endloop
  endfacet
  facet normal 0 1 -0
    outer loop
      vertex 0.470378 4.47535 0
      vertex -0.470378 4.47535 5
      vertex 0.470378 4.47535 5
    endloop
  endfacet
  facet normal 0 1 0
    outer loop
      vertex -0.470378 4.47535 5
      vertex 0.470378 4.47535 0
      vertex -0.470378 4.47535 0
    endloop
  endfacet
  facet normal 0 -1 0
    outer loop
      vertex -0.470378 -4.47535 0
      vertex 0.470378 -4.47535 5
      vertex -0.470378 -4.47535 5
    endloop
  endfacet
  facet normal 0 -1 -0
    outer loop
      vertex 0.470378 -4.47535 5
      vertex -0.470378 -4.47535 0
      vertex 0.470378 -4.47535 0
    endloop
  endfacet
  facet normal 0.743145 0.66913 0
    outer loop
      vertex 3.64058 2.64503 5
      vertex 3.01109 3.34415 0
      vertex 3.01109 3.34415 5
    endloop
  endfacet
  facet normal 0.743145 0.66913 0
    outer loop
      vertex 3.01109 3.34415 0
      vertex 3.64058 2.64503 5
      vertex 3.64058 2.64503 0
    endloop
  endfacet
  facet normal 0.951057 0.309017 0
    outer loop
      vertex 4.40166 0.935602 5
      vertex 4.11095 1.83031 0
      vertex 4.11095 1.83031 5
    endloop
  endfacet
  facet normal 0.951057 0.309017 0
    outer loop
      vertex 4.11095 1.83031 0
      vertex 4.40166 0.935602 5
      vertex 4.40166 0.935602 0
    endloop
  endfacet
  facet normal -0.587785 0.809017 0
    outer loop
      vertex -2.25 3.89711 0
      vertex -3.01109 3.34415 5
      vertex -2.25 3.89711 5
    endloop
  endfacet
  facet normal -0.587785 0.809017 0
    outer loop
      vertex -3.01109 3.34415 5
      vertex -2.25 3.89711 0
      vertex -3.01109 3.34415 0
    endloop
  endfacet
  facet normal -0.207912 0.978147 0
    outer loop
      vertex -0.470378 4.47535 0
      vertex -1.39058 4.27975 5
      vertex -0.470378 4.47535 5
    endloop
  endfacet
  facet normal -0.207912 0.978147 0
    outer loop
      vertex -1.39058 4.27975 5
      vertex -0.470378 4.47535 0
      vertex -1.39058 4.27975 0
    endloop
  endfacet
  facet normal 0.866025 0.5 0
    outer loop
      vertex 4.11095 1.83031 5
      vertex 3.64058 2.64503 0
      vertex 3.64058 2.64503 5
    endloop
  endfacet
  facet normal 0.866025 0.5 0
    outer loop
      vertex 3.64058 2.64503 0
      vertex 4.11095 1.83031 5
      vertex 4.11095 1.83031 0
    endloop
  endfacet
  facet normal 0.406736 0.913546 -0
    outer loop
      vertex 2.25 3.89711 0
      vertex 1.39058 4.27975 5
      vertex 2.25 3.89711 5
    endloop
  endfacet
  facet normal 0.406736 0.913546 0
    outer loop
      vertex 1.39058 4.27975 5
      vertex 2.25 3.89711 0
      vertex 1.39058 4.27975 0
    endloop
  endfacet
  facet normal 0.207912 0.978147 -0
    outer loop
      vertex 1.39058 4.27975 0
      vertex 0.470378 4.47535 5
      vertex 1.39058 4.27975 5
    endloop
  endfacet
  facet normal 0.207912 0.978147 0
    outer loop
      vertex 0.470378 4.47535 5
      vertex 1.39058 4.27975 0
      vertex 0.470378 4.47535 0
    endloop
  endfacet
  facet normal 0.587785 0.809017 -0
    outer loop
      vertex 3.01109 3.34415 0
      vertex 2.25 3.89711 5
      vertex 3.01109 3.34415 5
    endloop
  endfacet
  facet normal 0.587785 0.809017 0
    outer loop
      vertex 2.25 3.89711 5
      vertex 3.01109 3.34415 0
      vertex 2.25 3.89711 0
    endloop
  endfacet
  facet normal -0.866025 0.5 0
    outer loop
      vertex -4.11095 1.83031 0
      vertex -3.64058 2.64503 5
      vertex -3.64058 2.64503 0
    endloop
  endfacet
  facet normal -0.866025 0.5 0
    outer loop
      vertex -3.64058 2.64503 5
      vertex -4.11095 1.83031 0
      vertex -4.11095 1.83031 5
    endloop
  endfacet
  facet normal -0.743145 0.66913 0
    outer loop
      vertex -3.64058 2.64503 0
      vertex -3.01109 3.34415 5
      vertex -3.01109 3.34415 0
    endloop
  endfacet
  facet normal -0.743145 0.66913 0
    outer loop
      vertex -3.01109 3.34415 5
      vertex -3.64058 2.64503 0
      vertex -3.64058 2.64503 5
    endloop
  endfacet
  facet normal -0.951057 0.309017 0
    outer loop
      vertex -4.40166 0.935602 0
      vertex -4.11095 1.83031 5
      vertex -4.11095 1.83031 0
    endloop
  endfacet
  facet normal -0.951057 0.309017 0
    outer loop
      vertex -4.11095 1.83031 5
      vertex -4.40166 0.935602 0
      vertex -4.40166 0.935602 5
    endloop
  endfacet
  facet normal 0 0 1
    outer loop
      vertex 1.75 0 5
      vertex 4.5 0 5
      vertex 4.40166 0.935602 5
    endloop
  endfacet
  facet normal 0 0 1
    outer loop
      vertex 1.71176 0.363845 5
      vertex 4.40166 0.935602 5
      vertex 4.11095 1.83031 5
    endloop
  endfacet
  facet normal 0 0 1
    outer loop
      vertex 4.5 0 5
      vertex 1.75 0 5
      vertex 4.40166 -0.935602 5
    endloop
  endfacet
  facet normal 0 0 1
    outer loop
      vertex 1.5987 0.711788 5
      vertex 4.11095 1.83031 5
      vertex 3.64058 2.64503 5
    endloop
  endfacet
  facet normal -0 0 1
    outer loop
      vertex 1.71176 -0.363845 5
      vertex 4.40166 -0.935602 5
      vertex 1.75 0 5
    endloop
  endfacet
  facet normal 0 0 1
    outer loop
      vertex 1.41578 1.02862 5
      vertex 3.64058 2.64503 5
      vertex 3.01109 3.34415 5
    endloop
  endfacet
  facet normal 0 0 1
    outer loop
      vertex 4.40166 -0.935602 5
      vertex 1.71176 -0.363845 5
      vertex 4.11095 -1.83031 5
    endloop
  endfacet
  facet normal 0 0 1
    outer loop
      vertex 1.17098 1.3005 5
      vertex 3.01109 3.34415 5
      vertex 2.25 3.89711 5
    endloop
  endfacet
  facet normal -0 0 1
    outer loop
      vertex 1.5987 -0.711788 5
      vertex 4.11095 -1.83031 5
      vertex 1.71176 -0.363845 5
    endloop
  endfacet
  facet normal 0 0 1
    outer loop
      vertex 4.11095 -1.83031 5
      vertex 1.5987 -0.711788 5
      vertex 3.64058 -2.64503 5
    endloop
  endfacet
  facet normal 0 0 1
    outer loop
      vertex 4.40166 0.935602 5
      vertex 1.71176 0.363845 5
      vertex 1.75 0 5
    endloop
  endfacet
  facet normal 0 0 1
    outer loop
      vertex 4.11095 1.83031 5
      vertex 1.5987 0.711788 5
      vertex 1.71176 0.363845 5
    endloop
  endfacet
  facet normal 0 0 1
    outer loop
      vertex 3.64058 2.64503 5
      vertex 1.41578 1.02862 5
      vertex 1.5987 0.711788 5
    endloop
  endfacet
  facet normal 0 0 1
    outer loop
      vertex 0.875 1.51554 5
      vertex 2.25 3.89711 5
      vertex 1.39058 4.27975 5
    endloop
  endfacet
  facet normal 0 0 1
    outer loop
      vertex 3.01109 3.34415 5
      vertex 1.17098 1.3005 5
      vertex 1.41578 1.02862 5
    endloop
  endfacet
  facet normal 0 0 1
    outer loop
      vertex 2.25 3.89711 5
      vertex 0.875 1.51554 5
      vertex 1.17098 1.3005 5
    endloop
  endfacet
  facet normal 0 0 1
    outer loop
      vertex 1.39058 4.27975 5
      vertex 0.540779 1.66435 5
      vertex 0.875 1.51554 5
    endloop
  endfacet
  facet normal 0 0 1
    outer loop
      vertex 0.470378 4.47535 5
      vertex 0.540779 1.66435 5
      vertex 1.39058 4.27975 5
    endloop
  endfacet
  facet normal 0 0 1
    outer loop
      vertex 0.470378 4.47535 5
      vertex 0.182924 1.74041 5
      vertex 0.540779 1.66435 5
    endloop
  endfacet
  facet normal 0 0 1
    outer loop
      vertex 0.470378 4.47535 5
      vertex -0.182924 1.74041 5
      vertex 0.182924 1.74041 5
    endloop
  endfacet
  facet normal -0 0 1
    outer loop
      vertex -0.470378 4.47535 5
      vertex -0.182924 1.74041 5
      vertex 0.470378 4.47535 5
    endloop
  endfacet
  facet normal 0 0 1
    outer loop
      vertex -0.470378 4.47535 5
      vertex -0.540779 1.66435 5
      vertex -0.182924 1.74041 5
    endloop
  endfacet
  facet normal -0 0 1
    outer loop
      vertex -1.39058 4.27975 5
      vertex -0.540779 1.66435 5
      vertex -0.470378 4.47535 5
    endloop
  endfacet
  facet normal 0 0 1
    outer loop
      vertex -0.540779 1.66435 5
      vertex -1.39058 4.27975 5
      vertex -0.874999 1.51554 5
    endloop
  endfacet
  facet normal -0 0 1
    outer loop
      vertex -2.25 3.89711 5
      vertex -0.874999 1.51554 5
      vertex -1.39058 4.27975 5
    endloop
  endfacet
  facet normal 0 0 1
    outer loop
      vertex -0.874999 1.51554 5
      vertex -2.25 3.89711 5
      vertex -1.17098 1.3005 5
    endloop
  endfacet
  facet normal -0 0 1
    outer loop
      vertex -3.01109 3.34415 5
      vertex -1.17098 1.3005 5
      vertex -2.25 3.89711 5
    endloop
  endfacet
  facet normal 0 0 1
    outer loop
      vertex -1.17098 1.3005 5
      vertex -3.01109 3.34415 5
      vertex -1.41578 1.02862 5
    endloop
  endfacet
  facet normal -0 0 1
    outer loop
      vertex -3.64058 2.64503 5
      vertex -1.41578 1.02862 5
      vertex -3.01109 3.34415 5
    endloop
  endfacet
  facet normal 0 0 1
    outer loop
      vertex -1.41578 1.02862 5
      vertex -3.64058 2.64503 5
      vertex -1.5987 0.711788 5
    endloop
  endfacet
  facet normal -0 0 1
    outer loop
      vertex 1.41578 -1.02862 5
      vertex 3.64058 -2.64503 5
      vertex 1.5987 -0.711788 5
    endloop
  endfacet
  facet normal 0 0 1
    outer loop
      vertex 3.64058 -2.64503 5
      vertex 1.41578 -1.02862 5
      vertex 3.01109 -3.34415 5
    endloop
  endfacet
  facet normal -0 0 1
    outer loop
      vertex 1.17098 -1.3005 5
      vertex 3.01109 -3.34415 5
      vertex 1.41578 -1.02862 5
    endloop
  endfacet
  facet normal 0 0 1
    outer loop
      vertex 3.01109 -3.34415 5
      vertex 1.17098 -1.3005 5
      vertex 2.25 -3.89711 5
    endloop
  endfacet
  facet normal -0 0 1
    outer loop
      vertex 0.875 -1.51554 5
      vertex 2.25 -3.89711 5
      vertex 1.17098 -1.3005 5
    endloop
  endfacet
  facet normal 0 0 1
    outer loop
      vertex 2.25 -3.89711 5
      vertex 0.875 -1.51554 5
      vertex 1.39058 -4.27975 5
    endloop
  endfacet
  facet normal -0 0 1
    outer loop
      vertex 0.540779 -1.66435 5
      vertex 1.39058 -4.27975 5
      vertex 0.875 -1.51554 5
    endloop
  endfacet
  facet normal 0 0 1
    outer loop
      vertex 0.540779 -1.66435 5
      vertex 0.470378 -4.47535 5
      vertex 1.39058 -4.27975 5
    endloop
  endfacet
  facet normal -0 0 1
    outer loop
      vertex 0.182924 -1.74041 5
      vertex 0.470378 -4.47535 5
      vertex 0.540779 -1.66435 5
    endloop
  endfacet
  facet normal -0 0 1
    outer loop
      vertex -0.182924 -1.74041 5
      vertex 0.470378 -4.47535 5
      vertex 0.182924 -1.74041 5
    endloop
  endfacet
  facet normal 0 0 1
    outer loop
      vertex -0.182924 -1.74041 5
      vertex -0.470378 -4.47535 5
      vertex 0.470378 -4.47535 5
    endloop
  endfacet
  facet normal 0 0 1
    outer loop
      vertex -0.540779 -1.66435 5
      vertex -0.470378 -4.47535 5
      vertex -0.182924 -1.74041 5
    endloop
  endfacet
  facet normal 0 0 1
    outer loop
      vertex -1.39058 -4.27975 5
      vertex -0.540779 -1.66435 5
      vertex -0.875 -1.51554 5
    endloop
  endfacet
  facet normal 0 0 1
    outer loop
      vertex -2.25 -3.89711 5
      vertex -0.875 -1.51554 5
      vertex -1.17098 -1.3005 5
    endloop
  endfacet
  facet normal 0 0 1
    outer loop
      vertex -0.540779 -1.66435 5
      vertex -1.39058 -4.27975 5
      vertex -0.470378 -4.47535 5
    endloop
  endfacet
  facet normal 0 0 1
    outer loop
      vertex -3.01109 -3.34415 5
      vertex -1.17098 -1.3005 5
      vertex -1.41578 -1.02862 5
    endloop
  endfacet
  facet normal 0 0 1
    outer loop
      vertex -3.64058 -2.64503 5
      vertex -1.41578 -1.02862 5
      vertex -1.5987 -0.711788 5
    endloop
  endfacet
  facet normal 0 0 1
    outer loop
      vertex -4.11095 -1.83031 5
      vertex -1.5987 -0.711788 5
      vertex -1.71176 -0.363845 5
    endloop
  endfacet
  facet normal 0 0 1
    outer loop
      vertex -4.40166 -0.935602 5
      vertex -1.71176 -0.363845 5
      vertex -1.75 0 5
    endloop
  endfacet
  facet normal -0 0 1
    outer loop
      vertex -4.11095 1.83031 5
      vertex -1.5987 0.711788 5
      vertex -3.64058 2.64503 5
    endloop
  endfacet
  facet normal 0 0 1
    outer loop
      vertex -0.875 -1.51554 5
      vertex -2.25 -3.89711 5
      vertex -1.39058 -4.27975 5
    endloop
  endfacet
  facet normal 0 0 1
    outer loop
      vertex -1.5987 0.711788 5
      vertex -4.11095 1.83031 5
      vertex -1.71176 0.363845 5
    endloop
  endfacet
  facet normal 0 0 1
    outer loop
      vertex -1.17098 -1.3005 5
      vertex -3.01109 -3.34415 5
      vertex -2.25 -3.89711 5
    endloop
  endfacet
  facet normal -0 0 1
    outer loop
      vertex -4.40166 0.935602 5
      vertex -1.71176 0.363845 5
      vertex -4.11095 1.83031 5
    endloop
  endfacet
  facet normal 0 0 1
    outer loop
      vertex -1.41578 -1.02862 5
      vertex -3.64058 -2.64503 5
      vertex -3.01109 -3.34415 5
    endloop
  endfacet
  facet normal 0 0 1
    outer loop
      vertex -1.71176 0.363845 5
      vertex -4.40166 0.935602 5
      vertex -1.75 0 5
    endloop
  endfacet
  facet normal 0 0 1
    outer loop
      vertex -1.5987 -0.711788 5
      vertex -4.11095 -1.83031 5
      vertex -3.64058 -2.64503 5
    endloop
  endfacet
  facet normal 0 0 1
    outer loop
      vertex -4.5 0 5
      vertex -1.75 0 5
      vertex -4.40166 0.935602 5
    endloop
  endfacet
  facet normal 0 0 1
    outer loop
      vertex -1.71176 -0.363845 5
      vertex -4.40166 -0.935602 5
      vertex -4.11095 -1.83031 5
    endloop
  endfacet
  facet normal 0 0 1
    outer loop
      vertex -1.75 0 5
      vertex -4.5 0 5
      vertex -4.40166 -0.935602 5
    endloop
  endfacet
  facet normal -0.406737 0.913545 0
    outer loop
      vertex -1.39058 4.27975 0
      vertex -2.25 3.89711 5
      vertex -1.39058 4.27975 5
    endloop
  endfacet
  facet normal -0.406737 0.913545 0
    outer loop
      vertex -2.25 3.89711 5
      vertex -1.39058 4.27975 0
      vertex -2.25 3.89711 0
    endloop
  endfacet
  facet normal 0.994522 -0.104529 0
    outer loop
      vertex 4.40166 -0.935602 5
      vertex 4.5 0 0
      vertex 4.5 0 5
    endloop
  endfacet
  facet normal 0.994522 -0.104529 0
    outer loop
      vertex 4.5 0 0
      vertex 4.40166 -0.935602 5
      vertex 4.40166 -0.935602 0
    endloop
  endfacet
  facet normal 0 0 -1
    outer loop
      vertex 1.75 0 0
      vertex 4.5 0 0
      vertex 4.40166 -0.935602 0
    endloop
  endfacet
  facet normal 0 0 -1
    outer loop
      vertex 1.71176 -0.363845 0
      vertex 4.40166 -0.935602 0
      vertex 4.11095 -1.83031 0
    endloop
  endfacet
  facet normal 0 0 -1
    outer loop
      vertex 4.5 0 0
      vertex 1.75 0 0
      vertex 4.40166 0.935602 0
    endloop
  endfacet
  facet normal 0 0 -1
    outer loop
      vertex 1.5987 -0.711788 0
      vertex 4.11095 -1.83031 0
      vertex 3.64058 -2.64503 0
    endloop
  endfacet
  facet normal 0 0 -1
    outer loop
      vertex 1.71176 0.363845 0
      vertex 4.40166 0.935602 0
      vertex 1.75 0 0
    endloop
  endfacet
  facet normal 0 0 -1
    outer loop
      vertex 1.41578 -1.02862 0
      vertex 3.64058 -2.64503 0
      vertex 3.01109 -3.34415 0
    endloop
  endfacet
  facet normal -0 0 -1
    outer loop
      vertex 4.40166 0.935602 0
      vertex 1.71176 0.363845 0
      vertex 4.11095 1.83031 0
    endloop
  endfacet
  facet normal 0 0 -1
    outer loop
      vertex 1.17098 -1.3005 0
      vertex 3.01109 -3.34415 0
      vertex 2.25 -3.89711 0
    endloop
  endfacet
  facet normal 0 0 -1
    outer loop
      vertex 1.5987 0.711788 0
      vertex 4.11095 1.83031 0
      vertex 1.71176 0.363845 0
    endloop
  endfacet
  facet normal -0 0 -1
    outer loop
      vertex 4.11095 1.83031 0
      vertex 1.5987 0.711788 0
      vertex 3.64058 2.64503 0
    endloop
  endfacet
  facet normal 0 0 -1
    outer loop
      vertex 4.40166 -0.935602 0
      vertex 1.71176 -0.363845 0
      vertex 1.75 0 0
    endloop
  endfacet
  facet normal 0 0 -1
    outer loop
      vertex 4.11095 -1.83031 0
      vertex 1.5987 -0.711788 0
      vertex 1.71176 -0.363845 0
    endloop
  endfacet
  facet normal 0 0 -1
    outer loop
      vertex 3.64058 -2.64503 0
      vertex 1.41578 -1.02862 0
      vertex 1.5987 -0.711788 0
    endloop
  endfacet
  facet normal 0 0 -1
    outer loop
      vertex 0.875 -1.51554 0
      vertex 2.25 -3.89711 0
      vertex 1.39058 -4.27975 0
    endloop
  endfacet
  facet normal 0 0 -1
    outer loop
      vertex 3.01109 -3.34415 0
      vertex 1.17098 -1.3005 0
      vertex 1.41578 -1.02862 0
    endloop
  endfacet
  facet normal 0 0 -1
    outer loop
      vertex 2.25 -3.89711 0
      vertex 0.875 -1.51554 0
      vertex 1.17098 -1.3005 0
    endloop
  endfacet
  facet normal 0 0 -1
    outer loop
      vertex 1.39058 -4.27975 0
      vertex 0.540779 -1.66435 0
      vertex 0.875 -1.51554 0
    endloop
  endfacet
  facet normal 0 0 -1
    outer loop
      vertex 0.470378 -4.47535 0
      vertex 0.540779 -1.66435 0
      vertex 1.39058 -4.27975 0
    endloop
  endfacet
  facet normal 0 0 -1
    outer loop
      vertex 0.470378 -4.47535 0
      vertex 0.182924 -1.74041 0
      vertex 0.540779 -1.66435 0
    endloop
  endfacet
  facet normal 0 0 -1
    outer loop
      vertex 0.470378 -4.47535 0
      vertex -0.182924 -1.74041 0
      vertex 0.182924 -1.74041 0
    endloop
  endfacet
  facet normal 0 0 -1
    outer loop
      vertex -0.470378 -4.47535 0
      vertex -0.182924 -1.74041 0
      vertex 0.470378 -4.47535 0
    endloop
  endfacet
  facet normal 0 0 -1
    outer loop
      vertex -0.470378 -4.47535 0
      vertex -0.540779 -1.66435 0
      vertex -0.182924 -1.74041 0
    endloop
  endfacet
  facet normal 0 0 -1
    outer loop
      vertex -1.39058 -4.27975 0
      vertex -0.540779 -1.66435 0
      vertex -0.470378 -4.47535 0
    endloop
  endfacet
  facet normal -0 0 -1
    outer loop
      vertex -0.540779 -1.66435 0
      vertex -1.39058 -4.27975 0
      vertex -0.875 -1.51554 0
    endloop
  endfacet
  facet normal 0 0 -1
    outer loop
      vertex -2.25 -3.89711 0
      vertex -0.875 -1.51554 0
      vertex -1.39058 -4.27975 0
    endloop
  endfacet
  facet normal -0 0 -1
    outer loop
      vertex -0.875 -1.51554 0
      vertex -2.25 -3.89711 0
      vertex -1.17098 -1.3005 0
    endloop
  endfacet
  facet normal 0 0 -1
    outer loop
      vertex -3.01109 -3.34415 0
      vertex -1.17098 -1.3005 0
      vertex -2.25 -3.89711 0
    endloop
  endfacet
  facet normal -0 0 -1
    outer loop
      vertex -1.17098 -1.3005 0
      vertex -3.01109 -3.34415 0
      vertex -1.41578 -1.02862 0
    endloop
  endfacet
  facet normal 0 0 -1
    outer loop
      vertex -3.64058 -2.64503 0
      vertex -1.41578 -1.02862 0
      vertex -3.01109 -3.34415 0
    endloop
  endfacet
  facet normal -0 0 -1
    outer loop
      vertex -1.41578 -1.02862 0
      vertex -3.64058 -2.64503 0
      vertex -1.5987 -0.711788 0
    endloop
  endfacet
  facet normal 0 0 -1
    outer loop
      vertex -4.11095 -1.83031 0
      vertex -1.5987 -0.711788 0
      vertex -3.64058 -2.64503 0
    endloop
  endfacet
  facet normal -0 0 -1
    outer loop
      vertex -1.5987 -0.711788 0
      vertex -4.11095 -1.83031 0
      vertex -1.71176 -0.363845 0
    endloop
  endfacet
  facet normal 0 0 -1
    outer loop
      vertex -1.75 0 0
      vertex -3.01109 3.34415 0
      vertex -2.25 3.89711 0
    endloop
  endfacet
  facet normal 0 0 -1
    outer loop
      vertex -4.40166 -0.935602 0
      vertex -1.71176 -0.363845 0
      vertex -4.11095 -1.83031 0
    endloop
  endfacet
  facet normal 0 0 -1
    outer loop
      vertex -1.75 0 0
      vertex -3.64058 2.64503 0
      vertex -3.01109 3.34415 0
    endloop
  endfacet
  facet normal -0 0 -1
    outer loop
      vertex -1.71176 -0.363845 0
      vertex -4.40166 -0.935602 0
      vertex -1.75 0 0
    endloop
  endfacet
  facet normal 0 0 -1
    outer loop
      vertex -1.75 0 0
      vertex -4.11095 1.83031 0
      vertex -3.64058 2.64503 0
    endloop
  endfacet
  facet normal 0 0 -1
    outer loop
      vertex -4.5 0 0
      vertex -1.75 0 0
      vertex -4.40166 -0.935602 0
    endloop
  endfacet
  facet normal 0 0 -1
    outer loop
      vertex -1.75 0 0
      vertex -4.40166 0.935602 0
      vertex -4.11095 1.83031 0
    endloop
  endfacet
  facet normal 0 0 -1
    outer loop
      vertex -1.75 0 0
      vertex -4.5 0 0
      vertex -4.40166 0.935602 0
    endloop
  endfacet
  facet normal 0 0 -1
    outer loop
      vertex 1.41578 1.02862 0
      vertex 3.64058 2.64503 0
      vertex 1.5987 0.711788 0
    endloop
  endfacet
  facet normal -0 0 -1
    outer loop
      vertex 3.64058 2.64503 0
      vertex 1.41578 1.02862 0
      vertex 3.01109 3.34415 0
    endloop
  endfacet
  facet normal 0 0 -1
    outer loop
      vertex 1.17098 1.3005 0
      vertex 3.01109 3.34415 0
      vertex 1.41578 1.02862 0
    endloop
  endfacet
  facet normal -0 0 -1
    outer loop
      vertex 3.01109 3.34415 0
      vertex 1.17098 1.3005 0
      vertex 2.25 3.89711 0
    endloop
  endfacet
  facet normal 0 0 -1
    outer loop
      vertex 0.875 1.51554 0
      vertex 2.25 3.89711 0
      vertex 1.17098 1.3005 0
    endloop
  endfacet
  facet normal -0 0 -1
    outer loop
      vertex 2.25 3.89711 0
      vertex 0.875 1.51554 0
      vertex 1.39058 4.27975 0
    endloop
  endfacet
  facet normal 0 0 -1
    outer loop
      vertex 0.540779 1.66435 0
      vertex 1.39058 4.27975 0
      vertex 0.875 1.51554 0
    endloop
  endfacet
  facet normal 0 0 -1
    outer loop
      vertex 0.540779 1.66435 0
      vertex 0.470378 4.47535 0
      vertex 1.39058 4.27975 0
    endloop
  endfacet
  facet normal 0 0 -1
    outer loop
      vertex 0.182924 1.74041 0
      vertex 0.470378 4.47535 0
      vertex 0.540779 1.66435 0
    endloop
  endfacet
  facet normal 0 0 -1
    outer loop
      vertex -0.182924 1.74041 0
      vertex 0.470378 4.47535 0
      vertex 0.182924 1.74041 0
    endloop
  endfacet
  facet normal 0 0 -1
    outer loop
      vertex -0.182924 1.74041 0
      vertex -0.470378 4.47535 0
      vertex 0.470378 4.47535 0
    endloop
  endfacet
  facet normal 0 0 -1
    outer loop
      vertex -0.540779 1.66435 0
      vertex -0.470378 4.47535 0
      vertex -0.182924 1.74041 0
    endloop
  endfacet
  facet normal 0 0 -1
    outer loop
      vertex -1.39058 4.27975 0
      vertex -0.540779 1.66435 0
      vertex -0.874999 1.51554 0
    endloop
  endfacet
  facet normal 0 0 -1
    outer loop
      vertex -2.25 3.89711 0
      vertex -0.874999 1.51554 0
      vertex -1.17098 1.3005 0
    endloop
  endfacet
  facet normal 0 0 -1
    outer loop
      vertex -0.540779 1.66435 0
      vertex -1.39058 4.27975 0
      vertex -0.470378 4.47535 0
    endloop
  endfacet
  facet normal 0 0 -1
    outer loop
      vertex -2.25 3.89711 0
      vertex -1.17098 1.3005 0
      vertex -1.41578 1.02862 0
    endloop
  endfacet
  facet normal 0 0 -1
    outer loop
      vertex -2.25 3.89711 0
      vertex -1.41578 1.02862 0
      vertex -1.5987 0.711788 0
    endloop
  endfacet
  facet normal 0 0 -1
    outer loop
      vertex -2.25 3.89711 0
      vertex -1.5987 0.711788 0
      vertex -1.71176 0.363845 0
    endloop
  endfacet
  facet normal 0 0 -1
    outer loop
      vertex -2.25 3.89711 0
      vertex -1.71176 0.363845 0
      vertex -1.75 0 0
    endloop
  endfacet
  facet normal 0 0 -1
    outer loop
      vertex -0.874999 1.51554 0
      vertex -2.25 3.89711 0
      vertex -1.39058 4.27975 0
    endloop
  endfacet
  facet normal 0.743145 -0.66913 0
    outer loop
      vertex 3.01109 -3.34415 5
      vertex 3.64058 -2.64503 0
      vertex 3.64058 -2.64503 5
    endloop
  endfacet
  facet normal 0.743145 -0.66913 0
    outer loop
      vertex 3.64058 -2.64503 0
      vertex 3.01109 -3.34415 5
      vertex 3.01109 -3.34415 0
    endloop
  endfacet
  facet normal 0.951057 -0.309017 0
    outer loop
      vertex 4.11095 -1.83031 5
      vertex 4.40166 -0.935602 0
      vertex 4.40166 -0.935602 5
    endloop
  endfacet
  facet normal 0.951057 -0.309017 0
    outer loop
      vertex 4.40166 -0.935602 0
      vertex 4.11095 -1.83031 5
      vertex 4.11095 -1.83031 0
    endloop
  endfacet
  facet normal 0.866025 -0.5 0
    outer loop
      vertex 3.64058 -2.64503 5
      vertex 4.11095 -1.83031 0
      vertex 4.11095 -1.83031 5
    endloop
  endfacet
  facet normal 0.866025 -0.5 0
    outer loop
      vertex 4.11095 -1.83031 0
      vertex 3.64058 -2.64503 5
      vertex 3.64058 -2.64503 0
    endloop
  endfacet
  facet normal -0.587785 -0.809017 0
    outer loop
      vertex -3.01109 -3.34415 0
      vertex -2.25 -3.89711 5
      vertex -3.01109 -3.34415 5
    endloop
  endfacet
  facet normal -0.587785 -0.809017 -0
    outer loop
      vertex -2.25 -3.89711 5
      vertex -3.01109 -3.34415 0
      vertex -2.25 -3.89711 0
    endloop
  endfacet
  facet normal -0.866025 -0.5 0
    outer loop
      vertex -3.64058 -2.64503 0
      vertex -4.11095 -1.83031 5
      vertex -4.11095 -1.83031 0
    endloop
  endfacet
  facet normal -0.866025 -0.5 0
    outer loop
      vertex -4.11095 -1.83031 5
      vertex -3.64058 -2.64503 0
      vertex -3.64058 -2.64503 5
    endloop
  endfacet
  facet normal 0.587785 -0.809017 0
    outer loop
      vertex 2.25 -3.89711 0
      vertex 3.01109 -3.34415 5
      vertex 2.25 -3.89711 5
    endloop
  endfacet
  facet normal 0.587785 -0.809017 0
    outer loop
      vertex 3.01109 -3.34415 5
      vertex 2.25 -3.89711 0
      vertex 3.01109 -3.34415 0
    endloop
  endfacet
  facet normal -0.207912 -0.978147 0
    outer loop
      vertex -1.39058 -4.27975 0
      vertex -0.470378 -4.47535 5
      vertex -1.39058 -4.27975 5
    endloop
  endfacet
  facet normal -0.207912 -0.978147 -0
    outer loop
      vertex -0.470378 -4.47535 5
      vertex -1.39058 -4.27975 0
      vertex -0.470378 -4.47535 0
    endloop
  endfacet
  facet normal -0.406736 -0.913546 0
    outer loop
      vertex -2.25 -3.89711 0
      vertex -1.39058 -4.27975 5
      vertex -2.25 -3.89711 5
    endloop
  endfacet
  facet normal -0.406736 -0.913546 -0
    outer loop
      vertex -1.39058 -4.27975 5
      vertex -2.25 -3.89711 0
      vertex -1.39058 -4.27975 0
    endloop
  endfacet
  facet normal -0.743145 -0.66913 0
    outer loop
      vertex -3.01109 -3.34415 0
      vertex -3.64058 -2.64503 5
      vertex -3.64058 -2.64503 0
    endloop
  endfacet
  facet normal -0.743145 -0.66913 0
    outer loop
      vertex -3.64058 -2.64503 5
      vertex -3.01109 -3.34415 0
      vertex -3.01109 -3.34415 5
    endloop
  endfacet
  facet normal -0.951057 -0.309017 0
    outer loop
      vertex -4.11095 -1.83031 0
      vertex -4.40166 -0.935602 5
      vertex -4.40166 -0.935602 0
    endloop
  endfacet
  facet normal -0.951057 -0.309017 0
    outer loop
      vertex -4.40166 -0.935602 5
      vertex -4.11095 -1.83031 0
      vertex -4.11095 -1.83031 5
    endloop
  endfacet
  facet normal -0.994522 -0.104529 0
    outer loop
      vertex -4.40166 -0.935602 0
      vertex -4.5 0 5
      vertex -4.5 0 0
    endloop
  endfacet
  facet normal -0.994522 -0.104529 0
    outer loop
      vertex -4.5 0 5
      vertex -4.40166 -0.935602 0
      vertex -4.40166 -0.935602 5
    endloop
  endfacet
  facet normal 0.406736 -0.913546 0
    outer loop
      vertex 1.39058 -4.27975 0
      vertex 2.25 -3.89711 5
      vertex 1.39058 -4.27975 5
    endloop
  endfacet
  facet normal 0.406736 -0.913546 0
    outer loop
      vertex 2.25 -3.89711 5
      vertex 1.39058 -4.27975 0
      vertex 2.25 -3.89711 0
    endloop
  endfacet
  facet normal 0.207912 -0.978147 0
    outer loop
      vertex 0.470378 -4.47535 0
      vertex 1.39058 -4.27975 5
      vertex 0.470378 -4.47535 5
    endloop
  endfacet
  facet normal 0.207912 -0.978147 0
    outer loop
      vertex 1.39058 -4.27975 5
      vertex 0.470378 -4.47535 0
      vertex 1.39058 -4.27975 0
    endloop
  endfacet
  facet normal -0.994522 -0.10453 0
    outer loop
      vertex 1.75 0 0
      vertex 1.71176 0.363845 5
      vertex 1.71176 0.363845 0
    endloop
  endfacet
  facet normal -0.994522 -0.10453 0
    outer loop
      vertex 1.71176 0.363845 5
      vertex 1.75 0 0
      vertex 1.75 0 5
    endloop
  endfacet
  facet normal 0.994522 -0.10453 0
    outer loop
      vertex -1.75 0 5
      vertex -1.71176 0.363845 0
      vertex -1.71176 0.363845 5
    endloop
  endfacet
  facet normal 0.994522 -0.10453 0
    outer loop
      vertex -1.71176 0.363845 0
      vertex -1.75 0 5
      vertex -1.75 0 0
    endloop
  endfacet
  facet normal 0 -1 0
    outer loop
      vertex -0.182924 1.74041 0
      vertex 0.182924 1.74041 5
      vertex -0.182924 1.74041 5
    endloop
  endfacet
  facet normal 0 -1 -0
    outer loop
      vertex 0.182924 1.74041 5
      vertex -0.182924 1.74041 0
      vertex 0.182924 1.74041 0
    endloop
  endfacet
  facet normal 0 1 -0
    outer loop
      vertex 0.182924 -1.74041 0
      vertex -0.182924 -1.74041 5
      vertex 0.182924 -1.74041 5
    endloop
  endfacet
  facet normal 0 1 0
    outer loop
      vertex -0.182924 -1.74041 5
      vertex 0.182924 -1.74041 0
      vertex -0.182924 -1.74041 0
    endloop
  endfacet
  facet normal -0.587786 -0.809017 0
    outer loop
      vertex 0.875 1.51554 0
      vertex 1.17098 1.3005 5
      vertex 0.875 1.51554 5
    endloop
  endfacet
  facet normal -0.587786 -0.809017 -0
    outer loop
      vertex 1.17098 1.3005 5
      vertex 0.875 1.51554 0
      vertex 1.17098 1.3005 0
    endloop
  endfacet
  facet normal -0.406737 -0.913546 0
    outer loop
      vertex 0.540779 1.66435 0
      vertex 0.875 1.51554 5
      vertex 0.540779 1.66435 5
    endloop
  endfacet
  facet normal -0.406737 -0.913546 -0
    outer loop
      vertex 0.875 1.51554 5
      vertex 0.540779 1.66435 0
      vertex 0.875 1.51554 0
    endloop
  endfacet
  facet normal 0.587784 -0.809018 0
    outer loop
      vertex -1.17098 1.3005 0
      vertex -0.874999 1.51554 5
      vertex -1.17098 1.3005 5
    endloop
  endfacet
  facet normal 0.587784 -0.809018 0
    outer loop
      vertex -0.874999 1.51554 5
      vertex -1.17098 1.3005 0
      vertex -0.874999 1.51554 0
    endloop
  endfacet
  facet normal 0.207911 -0.978148 0
    outer loop
      vertex -0.540779 1.66435 0
      vertex -0.182924 1.74041 5
      vertex -0.540779 1.66435 5
    endloop
  endfacet
  facet normal 0.207911 -0.978148 0
    outer loop
      vertex -0.182924 1.74041 5
      vertex -0.540779 1.66435 0
      vertex -0.182924 1.74041 0
    endloop
  endfacet
  facet normal -0.866025 -0.5 0
    outer loop
      vertex 1.5987 0.711788 0
      vertex 1.41578 1.02862 5
      vertex 1.41578 1.02862 0
    endloop
  endfacet
  facet normal -0.866025 -0.5 0
    outer loop
      vertex 1.41578 1.02862 5
      vertex 1.5987 0.711788 0
      vertex 1.5987 0.711788 5
    endloop
  endfacet
  facet normal -0.951057 -0.309016 0
    outer loop
      vertex 1.71176 0.363845 0
      vertex 1.5987 0.711788 5
      vertex 1.5987 0.711788 0
    endloop
  endfacet
  facet normal -0.951057 -0.309016 0
    outer loop
      vertex 1.5987 0.711788 5
      vertex 1.71176 0.363845 0
      vertex 1.71176 0.363845 5
    endloop
  endfacet
  facet normal -0.743146 -0.66913 0
    outer loop
      vertex 1.41578 1.02862 0
      vertex 1.17098 1.3005 5
      vertex 1.17098 1.3005 0
    endloop
  endfacet
  facet normal -0.743146 -0.66913 0
    outer loop
      vertex 1.17098 1.3005 5
      vertex 1.41578 1.02862 0
      vertex 1.41578 1.02862 5
    endloop
  endfacet
  facet normal -0.207911 -0.978148 0
    outer loop
      vertex 0.182924 1.74041 0
      vertex 0.540779 1.66435 5
      vertex 0.182924 1.74041 5
    endloop
  endfacet
  facet normal -0.207911 -0.978148 -0
    outer loop
      vertex 0.540779 1.66435 5
      vertex 0.182924 1.74041 0
      vertex 0.540779 1.66435 0
    endloop
  endfacet
  facet normal 0.866025 -0.5 0
    outer loop
      vertex -1.5987 0.711788 5
      vertex -1.41578 1.02862 0
      vertex -1.41578 1.02862 5
    endloop
  endfacet
  facet normal 0.866025 -0.5 0
    outer loop
      vertex -1.41578 1.02862 0
      vertex -1.5987 0.711788 5
      vertex -1.5987 0.711788 0
    endloop
  endfacet
  facet normal 0.743146 -0.66913 0
    outer loop
      vertex -1.41578 1.02862 5
      vertex -1.17098 1.3005 0
      vertex -1.17098 1.3005 5
    endloop
  endfacet
  facet normal 0.743146 -0.66913 0
    outer loop
      vertex -1.17098 1.3005 0
      vertex -1.41578 1.02862 5
      vertex -1.41578 1.02862 0
    endloop
  endfacet
  facet normal 0.951057 -0.309016 0
    outer loop
      vertex -1.71176 0.363845 5
      vertex -1.5987 0.711788 0
      vertex -1.5987 0.711788 5
    endloop
  endfacet
  facet normal 0.951057 -0.309016 0
    outer loop
      vertex -1.5987 0.711788 0
      vertex -1.71176 0.363845 5
      vertex -1.71176 0.363845 0
    endloop
  endfacet
  facet normal 0.406737 -0.913545 0
    outer loop
      vertex -0.874999 1.51554 0
      vertex -0.540779 1.66435 5
      vertex -0.874999 1.51554 5
    endloop
  endfacet
  facet normal 0.406737 -0.913545 0
    outer loop
      vertex -0.540779 1.66435 5
      vertex -0.874999 1.51554 0
      vertex -0.540779 1.66435 0
    endloop
  endfacet
  facet normal -0.994522 0.10453 0
    outer loop
      vertex 1.71176 -0.363845 0
      vertex 1.75 0 5
      vertex 1.75 0 0
    endloop
  endfacet
  facet normal -0.994522 0.10453 0
    outer loop
      vertex 1.75 0 5
      vertex 1.71176 -0.363845 0
      vertex 1.71176 -0.363845 5
    endloop
  endfacet
  facet normal -0.207911 0.978148 0
    outer loop
      vertex 0.540779 -1.66435 0
      vertex 0.182924 -1.74041 5
      vertex 0.540779 -1.66435 5
    endloop
  endfacet
  facet normal -0.207911 0.978148 0
    outer loop
      vertex 0.182924 -1.74041 5
      vertex 0.540779 -1.66435 0
      vertex 0.182924 -1.74041 0
    endloop
  endfacet
  facet normal -0.743146 0.66913 0
    outer loop
      vertex 1.17098 -1.3005 0
      vertex 1.41578 -1.02862 5
      vertex 1.41578 -1.02862 0
    endloop
  endfacet
  facet normal -0.743146 0.66913 0
    outer loop
      vertex 1.41578 -1.02862 5
      vertex 1.17098 -1.3005 0
      vertex 1.17098 -1.3005 5
    endloop
  endfacet
  facet normal -0.951057 0.309016 0
    outer loop
      vertex 1.5987 -0.711788 0
      vertex 1.71176 -0.363845 5
      vertex 1.71176 -0.363845 0
    endloop
  endfacet
  facet normal -0.951057 0.309016 0
    outer loop
      vertex 1.71176 -0.363845 5
      vertex 1.5987 -0.711788 0
      vertex 1.5987 -0.711788 5
    endloop
  endfacet
  facet normal -0.866025 0.5 0
    outer loop
      vertex 1.41578 -1.02862 0
      vertex 1.5987 -0.711788 5
      vertex 1.5987 -0.711788 0
    endloop
  endfacet
  facet normal -0.866025 0.5 0
    outer loop
      vertex 1.5987 -0.711788 5
      vertex 1.41578 -1.02862 0
      vertex 1.41578 -1.02862 5
    endloop
  endfacet
  facet normal 0.587786 0.809017 -0
    outer loop
      vertex -0.875 -1.51554 0
      vertex -1.17098 -1.3005 5
      vertex -0.875 -1.51554 5
    endloop
  endfacet
  facet normal 0.587786 0.809017 0
    outer loop
      vertex -1.17098 -1.3005 5
      vertex -0.875 -1.51554 0
      vertex -1.17098 -1.3005 0
    endloop
  endfacet
  facet normal 0.866025 0.5 0
    outer loop
      vertex -1.41578 -1.02862 5
      vertex -1.5987 -0.711788 0
      vertex -1.5987 -0.711788 5
    endloop
  endfacet
  facet normal 0.866025 0.5 0
    outer loop
      vertex -1.5987 -0.711788 0
      vertex -1.41578 -1.02862 5
      vertex -1.41578 -1.02862 0
    endloop
  endfacet
  facet normal -0.587786 0.809017 0
    outer loop
      vertex 1.17098 -1.3005 0
      vertex 0.875 -1.51554 5
      vertex 1.17098 -1.3005 5
    endloop
  endfacet
  facet normal -0.587786 0.809017 0
    outer loop
      vertex 0.875 -1.51554 5
      vertex 1.17098 -1.3005 0
      vertex 0.875 -1.51554 0
    endloop
  endfacet
  facet normal -0.406737 0.913546 0
    outer loop
      vertex 0.875 -1.51554 0
      vertex 0.540779 -1.66435 5
      vertex 0.875 -1.51554 5
    endloop
  endfacet
  facet normal -0.406737 0.913546 0
    outer loop
      vertex 0.540779 -1.66435 5
      vertex 0.875 -1.51554 0
      vertex 0.540779 -1.66435 0
    endloop
  endfacet
  facet normal 0.207911 0.978148 -0
    outer loop
      vertex -0.182924 -1.74041 0
      vertex -0.540779 -1.66435 5
      vertex -0.182924 -1.74041 5
    endloop
  endfacet
  facet normal 0.207911 0.978148 0
    outer loop
      vertex -0.540779 -1.66435 5
      vertex -0.182924 -1.74041 0
      vertex -0.540779 -1.66435 0
    endloop
  endfacet
  facet normal 0.406737 0.913546 -0
    outer loop
      vertex -0.540779 -1.66435 0
      vertex -0.875 -1.51554 5
      vertex -0.540779 -1.66435 5
    endloop
  endfacet
  facet normal 0.406737 0.913546 0
    outer loop
      vertex -0.875 -1.51554 5
      vertex -0.540779 -1.66435 0
      vertex -0.875 -1.51554 0
    endloop
  endfacet
  facet normal 0.743146 0.66913 0
    outer loop
      vertex -1.17098 -1.3005 5
      vertex -1.41578 -1.02862 0
      vertex -1.41578 -1.02862 5
    endloop
  endfacet
  facet normal 0.743146 0.66913 0
    outer loop
      vertex -1.41578 -1.02862 0
      vertex -1.17098 -1.3005 5
      vertex -1.17098 -1.3005 0
    endloop
  endfacet
  facet normal 0.951057 0.309016 0
    outer loop
      vertex -1.5987 -0.711788 5
      vertex -1.71176 -0.363845 0
      vertex -1.71176 -0.363845 5
    endloop
  endfacet
  facet normal 0.951057 0.309016 0
    outer loop
      vertex -1.71176 -0.363845 0
      vertex -1.5987 -0.711788 5
      vertex -1.5987 -0.711788 0
    endloop
  endfacet
  facet normal 0.994522 0.10453 0
    outer loop
      vertex -1.71176 -0.363845 5
      vertex -1.75 0 0
      vertex -1.75 0 5
    endloop
  endfacet
  facet normal 0.994522 0.10453 0
    outer loop
      vertex -1.75 0 0
      vertex -1.71176 -0.363845 5
      vertex -1.71176 -0.363845 0
    endloop
  endfacet
endsolid OpenSCAD_Model
