solid OpenSCAD_Model
  facet normal 0.994522 0.104529 0
    outer loop
      vertex 5.5 0 8
      vertex 5.37981 1.14351 0
      vertex 5.37981 1.14351 8
    endloop
  endfacet
  facet normal 0.994522 0.104529 0
    outer loop
      vertex 5.37981 1.14351 0
      vertex 5.5 0 8
      vertex 5.5 0 0
    endloop
  endfacet
  facet normal -0.994522 0.104529 0
    outer loop
      vertex -5.5 0 0
      vertex -5.37981 1.14351 8
      vertex -5.37981 1.14351 0
    endloop
  endfacet
  facet normal -0.994522 0.104529 0
    outer loop
      vertex -5.37981 1.14351 8
      vertex -5.5 0 0
      vertex -5.5 0 8
    endloop
  endfacet
  facet normal 0 1 -0
    outer loop
      vertex 0.574906 5.46987 0
      vertex -0.574906 5.46987 8
      vertex 0.574906 5.46987 8
    endloop
  endfacet
  facet normal 0 1 0
    outer loop
      vertex -0.574906 5.46987 8
      vertex 0.574906 5.46987 0
      vertex -0.574906 5.46987 0
    endloop
  endfacet
  facet normal 0 -1 0
    outer loop
      vertex -0.574906 -5.46987 0
      vertex 0.574906 -5.46987 8
      vertex -0.574906 -5.46987 8
    endloop
  endfacet
  facet normal 0 -1 -0
    outer loop
      vertex 0.574906 -5.46987 8
      vertex -0.574906 -5.46987 0
      vertex 0.574906 -5.46987 0
    endloop
  endfacet
  facet normal 0.743145 0.66913 0
    outer loop
      vertex 4.44959 3.23282 8
      vertex 3.68022 4.0873 0
      vertex 3.68022 4.0873 8
    endloop
  endfacet
  facet normal 0.743145 0.66913 0
    outer loop
      vertex 3.68022 4.0873 0
      vertex 4.44959 3.23282 8
      vertex 4.44959 3.23282 0
    endloop
  endfacet
  facet normal 0.951057 0.309017 0
    outer loop
      vertex 5.37981 1.14351 8
      vertex 5.0245 2.23705 0
      vertex 5.0245 2.23705 8
    endloop
  endfacet
  facet normal 0.951057 0.309017 0
    outer loop
      vertex 5.0245 2.23705 0
      vertex 5.37981 1.14351 8
      vertex 5.37981 1.14351 0
    endloop
  endfacet
  facet normal -0.587785 0.809017 0
    outer loop
      vertex -2.75 4.76314 0
      vertex -3.68022 4.0873 8
      vertex -2.75 4.76314 8
    endloop
  endfacet
  facet normal -0.587785 0.809017 0
    outer loop
      vertex -3.68022 4.0873 8
      vertex -2.75 4.76314 0
      vertex -3.68022 4.0873 0
    endloop
  endfacet
  facet normal -0.207912 0.978148 0
    outer loop
      vertex -0.574906 5.46987 0
      vertex -1.69959 5.23081 8
      vertex -0.574906 5.46987 8
    endloop
  endfacet
  facet normal -0.207912 0.978148 0
    outer loop
      vertex -1.69959 5.23081 8
      vertex -0.574906 5.46987 0
      vertex -1.69959 5.23081 0
    endloop
  endfacet
  facet normal 0.866025 -0.5 0
    outer loop
      vertex 4.44959 -3.23282 8
      vertex 5.0245 -2.23705 0
      vertex 5.0245 -2.23705 8
    endloop
  endfacet
  facet normal 0.866025 -0.5 0
    outer loop
      vertex 5.0245 -2.23705 0
      vertex 4.44959 -3.23282 8
      vertex 4.44959 -3.23282 0
    endloop
  endfacet
  facet normal 0.866025 0.5 0
    outer loop
      vertex 5.0245 2.23705 8
      vertex 4.44959 3.23282 0
      vertex 4.44959 3.23282 8
    endloop
  endfacet
  facet normal 0.866025 0.5 0
    outer loop
      vertex 4.44959 3.23282 0
      vertex 5.0245 2.23705 8
      vertex 5.0245 2.23705 0
    endloop
  endfacet
  facet normal 0.406737 0.913545 -0
    outer loop
      vertex 2.75 4.76314 0
      vertex 1.69959 5.23081 8
      vertex 2.75 4.76314 8
    endloop
  endfacet
  facet normal 0.406737 0.913545 0
    outer loop
      vertex 1.69959 5.23081 8
      vertex 2.75 4.76314 0
      vertex 1.69959 5.23081 0
    endloop
  endfacet
  facet normal 0.207912 0.978148 -0
    outer loop
      vertex 1.69959 5.23081 0
      vertex 0.574906 5.46987 8
      vertex 1.69959 5.23081 8
    endloop
  endfacet
  facet normal 0.207912 0.978148 0
    outer loop
      vertex 0.574906 5.46987 8
      vertex 1.69959 5.23081 0
      vertex 0.574906 5.46987 0
    endloop
  endfacet
  facet normal 0.587785 0.809017 -0
    outer loop
      vertex 3.68022 4.0873 0
      vertex 2.75 4.76314 8
      vertex 3.68022 4.0873 8
    endloop
  endfacet
  facet normal 0.587785 0.809017 0
    outer loop
      vertex 2.75 4.76314 8
      vertex 3.68022 4.0873 0
      vertex 2.75 4.76314 0
    endloop
  endfacet
  facet normal -0.866025 0.5 0
    outer loop
      vertex -5.0245 2.23705 0
      vertex -4.44959 3.23282 8
      vertex -4.44959 3.23282 0
    endloop
  endfacet
  facet normal -0.866025 0.5 0
    outer loop
      vertex -4.44959 3.23282 8
      vertex -5.0245 2.23705 0
      vertex -5.0245 2.23705 8
    endloop
  endfacet
  facet normal -0.743145 0.66913 0
    outer loop
      vertex -4.44959 3.23282 0
      vertex -3.68022 4.0873 8
      vertex -3.68022 4.0873 0
    endloop
  endfacet
  facet normal -0.743145 0.66913 0
    outer loop
      vertex -3.68022 4.0873 8
      vertex -4.44959 3.23282 0
      vertex -4.44959 3.23282 8
    endloop
  endfacet
  facet normal -0.951057 0.309017 0
    outer loop
      vertex -5.37981 1.14351 0
      vertex -5.0245 2.23705 8
      vertex -5.0245 2.23705 0
    endloop
  endfacet
  facet normal -0.951057 0.309017 0
    outer loop
      vertex -5.0245 2.23705 8
      vertex -5.37981 1.14351 0
      vertex -5.37981 1.14351 8
    endloop
  endfacet
  facet normal 0 0 1
    outer loop
      vertex 3.57083 0 8
      vertex 5.5 0 8
      vertex 5.37981 1.14351 8
    endloop
  endfacet
  facet normal 0 0 1
    outer loop
      vertex 3.48809 0.756915 8
      vertex 5.37981 1.14351 8
      vertex 5.0245 2.23705 8
    endloop
  endfacet
  facet normal 0 0 1
    outer loop
      vertex 5.5 0 8
      vertex 3.57083 0 8
      vertex 5.37981 -1.14351 8
    endloop
  endfacet
  facet normal 0 0 1
    outer loop
      vertex 3.26212 1.45239 8
      vertex 5.0245 2.23705 8
      vertex 4.44959 3.23282 8
    endloop
  endfacet
  facet normal -0 0 1
    outer loop
      vertex 3.4944 -0.727257 8
      vertex 5.37981 -1.14351 8
      vertex 3.57083 0 8
    endloop
  endfacet
  facet normal 0 0 1
    outer loop
      vertex 2.87866 2.11021 8
      vertex 4.44959 3.23282 8
      vertex 3.68022 4.0873 8
    endloop
  endfacet
  facet normal -0 0 1
    outer loop
      vertex 3.4928 -0.742417 8
      vertex 5.37981 -1.14351 8
      vertex 3.4944 -0.727257 8
    endloop
  endfacet
  facet normal -0 0 1
    outer loop
      vertex 3.48809 -0.756915 8
      vertex 5.37981 -1.14351 8
      vertex 3.4928 -0.742417 8
    endloop
  endfacet
  facet normal 0 0 1
    outer loop
      vertex 5.37981 1.14351 8
      vertex 3.4944 0.727257 8
      vertex 3.57083 0 8
    endloop
  endfacet
  facet normal 0 0 1
    outer loop
      vertex 5.37981 1.14351 8
      vertex 3.4928 0.742417 8
      vertex 3.4944 0.727257 8
    endloop
  endfacet
  facet normal 0 0 1
    outer loop
      vertex 5.37981 1.14351 8
      vertex 3.48809 0.756915 8
      vertex 3.4928 0.742417 8
    endloop
  endfacet
  facet normal 0 0 1
    outer loop
      vertex 5.0245 2.23705 8
      vertex 3.26212 1.45239 8
      vertex 3.48809 0.756915 8
    endloop
  endfacet
  facet normal 0 0 1
    outer loop
      vertex 4.44959 3.23282 8
      vertex 2.89649 2.08568 8
      vertex 3.26212 1.45239 8
    endloop
  endfacet
  facet normal 0 0 1
    outer loop
      vertex 4.44959 3.23282 8
      vertex 2.88886 2.09888 8
      vertex 2.89649 2.08568 8
    endloop
  endfacet
  facet normal 0 0 1
    outer loop
      vertex 4.44959 3.23282 8
      vertex 2.87866 2.11021 8
      vertex 2.88886 2.09888 8
    endloop
  endfacet
  facet normal 0 0 1
    outer loop
      vertex 2.38935 2.65365 8
      vertex 3.68022 4.0873 8
      vertex 2.75 4.76314 8
    endloop
  endfacet
  facet normal 0 0 1
    outer loop
      vertex 3.68022 4.0873 8
      vertex 2.38935 2.65365 8
      vertex 2.87866 2.11021 8
    endloop
  endfacet
  facet normal 0 0 1
    outer loop
      vertex 2.75 4.76314 8
      vertex 1.79775 3.08347 8
      vertex 2.38935 2.65365 8
    endloop
  endfacet
  facet normal 0 0 1
    outer loop
      vertex 2.75 4.76314 8
      vertex 1.78542 3.09243 8
      vertex 1.79775 3.08347 8
    endloop
  endfacet
  facet normal 0 0 1
    outer loop
      vertex 2.75 4.76314 8
      vertex 1.77149 3.09863 8
      vertex 1.78542 3.09243 8
    endloop
  endfacet
  facet normal 0 0 1
    outer loop
      vertex 1.69959 5.23081 8
      vertex 1.77149 3.09863 8
      vertex 2.75 4.76314 8
    endloop
  endfacet
  facet normal 0 0 1
    outer loop
      vertex 1.69959 5.23081 8
      vertex 1.10345 3.39606 8
      vertex 1.77149 3.09863 8
    endloop
  endfacet
  facet normal 0 0 1
    outer loop
      vertex 0.574906 5.46987 8
      vertex 1.10345 3.39606 8
      vertex 1.69959 5.23081 8
    endloop
  endfacet
  facet normal 0 0 1
    outer loop
      vertex 0.574906 5.46987 8
      vertex 0.388164 3.5481 8
      vertex 1.10345 3.39606 8
    endloop
  endfacet
  facet normal 0 0 1
    outer loop
      vertex 0.574906 5.46987 8
      vertex 0.373254 3.55127 8
      vertex 0.388164 3.5481 8
    endloop
  endfacet
  facet normal 0 0 1
    outer loop
      vertex 0.574906 5.46987 8
      vertex -0.373254 3.55127 8
      vertex 0.373254 3.55127 8
    endloop
  endfacet
  facet normal -0 0 1
    outer loop
      vertex -0.574906 5.46987 8
      vertex -0.373254 3.55127 8
      vertex 0.574906 5.46987 8
    endloop
  endfacet
  facet normal 0 0 1
    outer loop
      vertex -0.373254 3.55127 8
      vertex -0.574906 5.46987 8
      vertex -0.388164 3.5481 8
    endloop
  endfacet
  facet normal 0 0 1
    outer loop
      vertex -0.574906 5.46987 8
      vertex -1.10345 3.39606 8
      vertex -0.388164 3.5481 8
    endloop
  endfacet
  facet normal -0 0 1
    outer loop
      vertex -1.69959 5.23081 8
      vertex -1.10345 3.39606 8
      vertex -0.574906 5.46987 8
    endloop
  endfacet
  facet normal 0 0 1
    outer loop
      vertex -1.69959 5.23081 8
      vertex -1.77149 3.09863 8
      vertex -1.10345 3.39606 8
    endloop
  endfacet
  facet normal -0 0 1
    outer loop
      vertex -2.75 4.76314 8
      vertex -1.77149 3.09863 8
      vertex -1.69959 5.23081 8
    endloop
  endfacet
  facet normal 0 0 1
    outer loop
      vertex -1.77149 3.09863 8
      vertex -2.75 4.76314 8
      vertex -1.78542 3.09243 8
    endloop
  endfacet
  facet normal 0 0 1
    outer loop
      vertex -1.78542 3.09243 8
      vertex -2.75 4.76314 8
      vertex -1.79775 3.08347 8
    endloop
  endfacet
  facet normal 0 0 1
    outer loop
      vertex -1.79775 3.08347 8
      vertex -2.75 4.76314 8
      vertex -2.38935 2.65365 8
    endloop
  endfacet
  facet normal -0 0 1
    outer loop
      vertex -3.68022 4.0873 8
      vertex -2.38935 2.65365 8
      vertex -2.75 4.76314 8
    endloop
  endfacet
  facet normal 0 0 1
    outer loop
      vertex -2.38935 2.65365 8
      vertex -3.68022 4.0873 8
      vertex -2.87866 2.11021 8
    endloop
  endfacet
  facet normal -0 0 1
    outer loop
      vertex -4.44959 3.23282 8
      vertex -2.87866 2.11021 8
      vertex -3.68022 4.0873 8
    endloop
  endfacet
  facet normal 0 0 1
    outer loop
      vertex -2.87866 2.11021 8
      vertex -4.44959 3.23282 8
      vertex -2.88886 2.09888 8
    endloop
  endfacet
  facet normal 0 0 1
    outer loop
      vertex -2.88886 2.09888 8
      vertex -4.44959 3.23282 8
      vertex -2.89649 2.08568 8
    endloop
  endfacet
  facet normal 0 0 1
    outer loop
      vertex -2.89649 2.08568 8
      vertex -4.44959 3.23282 8
      vertex -3.26212 1.45239 8
    endloop
  endfacet
  facet normal 0 0 1
    outer loop
      vertex -5.37981 1.14351 8
      vertex -3.4944 0.727257 8
      vertex -3.4928 0.742417 8
    endloop
  endfacet
  facet normal 0 0 1
    outer loop
      vertex -3.26212 1.45239 8
      vertex -5.0245 2.23705 8
      vertex -3.48809 0.756915 8
    endloop
  endfacet
  facet normal -0 0 1
    outer loop
      vertex -5.0245 2.23705 8
      vertex -3.26212 1.45239 8
      vertex -4.44959 3.23282 8
    endloop
  endfacet
  facet normal 0 0 1
    outer loop
      vertex 5.37981 -1.14351 8
      vertex 3.48809 -0.756915 8
      vertex 5.0245 -2.23705 8
    endloop
  endfacet
  facet normal -0 0 1
    outer loop
      vertex 3.26212 -1.45239 8
      vertex 5.0245 -2.23705 8
      vertex 3.48809 -0.756915 8
    endloop
  endfacet
  facet normal 0 0 1
    outer loop
      vertex 5.0245 -2.23705 8
      vertex 3.26212 -1.45239 8
      vertex 4.44959 -3.23282 8
    endloop
  endfacet
  facet normal -0 0 1
    outer loop
      vertex 2.89649 -2.08568 8
      vertex 4.44959 -3.23282 8
      vertex 3.26212 -1.45239 8
    endloop
  endfacet
  facet normal -0 0 1
    outer loop
      vertex 2.88886 -2.09888 8
      vertex 4.44959 -3.23282 8
      vertex 2.89649 -2.08568 8
    endloop
  endfacet
  facet normal -0 0 1
    outer loop
      vertex 2.87866 -2.11021 8
      vertex 4.44959 -3.23282 8
      vertex 2.88886 -2.09888 8
    endloop
  endfacet
  facet normal 0 0 1
    outer loop
      vertex 4.44959 -3.23282 8
      vertex 2.87866 -2.11021 8
      vertex 3.68022 -4.0873 8
    endloop
  endfacet
  facet normal -0 0 1
    outer loop
      vertex 2.38935 -2.65365 8
      vertex 3.68022 -4.0873 8
      vertex 2.87866 -2.11021 8
    endloop
  endfacet
  facet normal 0 0 1
    outer loop
      vertex 3.68022 -4.0873 8
      vertex 2.38935 -2.65365 8
      vertex 2.75 -4.76314 8
    endloop
  endfacet
  facet normal -0 0 1
    outer loop
      vertex 1.79775 -3.08347 8
      vertex 2.75 -4.76314 8
      vertex 2.38935 -2.65365 8
    endloop
  endfacet
  facet normal -0 0 1
    outer loop
      vertex 1.78542 -3.09243 8
      vertex 2.75 -4.76314 8
      vertex 1.79775 -3.08347 8
    endloop
  endfacet
  facet normal -0 0 1
    outer loop
      vertex 1.77149 -3.09863 8
      vertex 2.75 -4.76314 8
      vertex 1.78542 -3.09243 8
    endloop
  endfacet
  facet normal 0 0 1
    outer loop
      vertex 1.77149 -3.09863 8
      vertex 1.69959 -5.23081 8
      vertex 2.75 -4.76314 8
    endloop
  endfacet
  facet normal -0 0 1
    outer loop
      vertex 1.10345 -3.39606 8
      vertex 1.69959 -5.23081 8
      vertex 1.77149 -3.09863 8
    endloop
  endfacet
  facet normal 0 0 1
    outer loop
      vertex 1.10345 -3.39606 8
      vertex 0.574906 -5.46987 8
      vertex 1.69959 -5.23081 8
    endloop
  endfacet
  facet normal -0 0 1
    outer loop
      vertex 0.388164 -3.5481 8
      vertex 0.574906 -5.46987 8
      vertex 1.10345 -3.39606 8
    endloop
  endfacet
  facet normal -0 0 1
    outer loop
      vertex 0.373254 -3.55127 8
      vertex 0.574906 -5.46987 8
      vertex 0.388164 -3.5481 8
    endloop
  endfacet
  facet normal -0 0 1
    outer loop
      vertex -0.373254 -3.55127 8
      vertex 0.574906 -5.46987 8
      vertex 0.373254 -3.55127 8
    endloop
  endfacet
  facet normal 0 0 1
    outer loop
      vertex -0.574906 -5.46987 8
      vertex -0.373254 -3.55127 8
      vertex -0.388164 -3.5481 8
    endloop
  endfacet
  facet normal 0 0 1
    outer loop
      vertex -0.373254 -3.55127 8
      vertex -0.574906 -5.46987 8
      vertex 0.574906 -5.46987 8
    endloop
  endfacet
  facet normal 0 0 1
    outer loop
      vertex -1.10345 -3.39606 8
      vertex -0.574906 -5.46987 8
      vertex -0.388164 -3.5481 8
    endloop
  endfacet
  facet normal 0 0 1
    outer loop
      vertex -1.10345 -3.39606 8
      vertex -1.69959 -5.23081 8
      vertex -0.574906 -5.46987 8
    endloop
  endfacet
  facet normal 0 0 1
    outer loop
      vertex -1.77149 -3.09863 8
      vertex -1.69959 -5.23081 8
      vertex -1.10345 -3.39606 8
    endloop
  endfacet
  facet normal 0 0 1
    outer loop
      vertex -2.75 -4.76314 8
      vertex -1.77149 -3.09863 8
      vertex -1.78542 -3.09243 8
    endloop
  endfacet
  facet normal 0 0 1
    outer loop
      vertex -2.75 -4.76314 8
      vertex -1.78542 -3.09243 8
      vertex -1.79775 -3.08347 8
    endloop
  endfacet
  facet normal 0 0 1
    outer loop
      vertex -2.75 -4.76314 8
      vertex -1.79775 -3.08347 8
      vertex -2.38935 -2.65365 8
    endloop
  endfacet
  facet normal 0 0 1
    outer loop
      vertex -1.77149 -3.09863 8
      vertex -2.75 -4.76314 8
      vertex -1.69959 -5.23081 8
    endloop
  endfacet
  facet normal 0 0 1
    outer loop
      vertex -3.68022 -4.0873 8
      vertex -2.38935 -2.65365 8
      vertex -2.87866 -2.11021 8
    endloop
  endfacet
  facet normal 0 0 1
    outer loop
      vertex -4.44959 -3.23282 8
      vertex -2.87866 -2.11021 8
      vertex -2.88886 -2.09888 8
    endloop
  endfacet
  facet normal 0 0 1
    outer loop
      vertex -4.44959 -3.23282 8
      vertex -2.88886 -2.09888 8
      vertex -2.89649 -2.08568 8
    endloop
  endfacet
  facet normal 0 0 1
    outer loop
      vertex -4.44959 -3.23282 8
      vertex -2.89649 -2.08568 8
      vertex -3.26212 -1.45239 8
    endloop
  endfacet
  facet normal 0 0 1
    outer loop
      vertex -5.0245 -2.23705 8
      vertex -3.26212 -1.45239 8
      vertex -3.48809 -0.756915 8
    endloop
  endfacet
  facet normal 0 0 1
    outer loop
      vertex -5.37981 -1.14351 8
      vertex -3.48809 -0.756915 8
      vertex -3.4928 -0.742417 8
    endloop
  endfacet
  facet normal 0 0 1
    outer loop
      vertex -5.37981 -1.14351 8
      vertex -3.4944 -0.727257 8
      vertex -3.57083 0 8
    endloop
  endfacet
  facet normal 0 0 1
    outer loop
      vertex -2.38935 -2.65365 8
      vertex -3.68022 -4.0873 8
      vertex -2.75 -4.76314 8
    endloop
  endfacet
  facet normal 0 0 1
    outer loop
      vertex -3.4944 -0.727257 8
      vertex -5.37981 -1.14351 8
      vertex -3.4928 -0.742417 8
    endloop
  endfacet
  facet normal -0 0 1
    outer loop
      vertex -5.37981 1.14351 8
      vertex -3.48809 0.756915 8
      vertex -5.0245 2.23705 8
    endloop
  endfacet
  facet normal 0 0 1
    outer loop
      vertex -3.48809 0.756915 8
      vertex -5.37981 1.14351 8
      vertex -3.4928 0.742417 8
    endloop
  endfacet
  facet normal 0 0 1
    outer loop
      vertex -2.87866 -2.11021 8
      vertex -4.44959 -3.23282 8
      vertex -3.68022 -4.0873 8
    endloop
  endfacet
  facet normal 0 0 1
    outer loop
      vertex -3.4944 0.727257 8
      vertex -5.37981 1.14351 8
      vertex -3.57083 0 8
    endloop
  endfacet
  facet normal 0 0 1
    outer loop
      vertex -3.26212 -1.45239 8
      vertex -5.0245 -2.23705 8
      vertex -4.44959 -3.23282 8
    endloop
  endfacet
  facet normal 0 0 1
    outer loop
      vertex -5.5 0 8
      vertex -3.57083 0 8
      vertex -5.37981 1.14351 8
    endloop
  endfacet
  facet normal 0 0 1
    outer loop
      vertex -3.48809 -0.756915 8
      vertex -5.37981 -1.14351 8
      vertex -5.0245 -2.23705 8
    endloop
  endfacet
  facet normal 0 0 1
    outer loop
      vertex -3.57083 0 8
      vertex -5.5 0 8
      vertex -5.37981 -1.14351 8
    endloop
  endfacet
  facet normal -0.406737 0.913545 0
    outer loop
      vertex -1.69959 5.23081 0
      vertex -2.75 4.76314 8
      vertex -1.69959 5.23081 8
    endloop
  endfacet
  facet normal -0.406737 0.913545 0
    outer loop
      vertex -2.75 4.76314 8
      vertex -1.69959 5.23081 0
      vertex -2.75 4.76314 0
    endloop
  endfacet
  facet normal 0 0 -1
    outer loop
      vertex 1.75 0 0
      vertex 5.5 0 0
      vertex 5.37981 -1.14351 0
    endloop
  endfacet
  facet normal 0 0 -1
    outer loop
      vertex 1.71176 -0.363845 0
      vertex 5.37981 -1.14351 0
      vertex 5.0245 -2.23705 0
    endloop
  endfacet
  facet normal 0 0 -1
    outer loop
      vertex 5.5 0 0
      vertex 1.75 0 0
      vertex 5.37981 1.14351 0
    endloop
  endfacet
  facet normal 0 0 -1
    outer loop
      vertex 1.5987 -0.711788 0
      vertex 5.0245 -2.23705 0
      vertex 4.44959 -3.23282 0
    endloop
  endfacet
  facet normal 0 0 -1
    outer loop
      vertex 1.71176 0.363845 0
      vertex 5.37981 1.14351 0
      vertex 1.75 0 0
    endloop
  endfacet
  facet normal 0 0 -1
    outer loop
      vertex 1.41578 -1.02862 0
      vertex 4.44959 -3.23282 0
      vertex 3.68022 -4.0873 0
    endloop
  endfacet
  facet normal -0 0 -1
    outer loop
      vertex 5.37981 1.14351 0
      vertex 1.71176 0.363845 0
      vertex 5.0245 2.23705 0
    endloop
  endfacet
  facet normal 0 0 -1
    outer loop
      vertex 1.17098 -1.3005 0
      vertex 3.68022 -4.0873 0
      vertex 2.75 -4.76314 0
    endloop
  endfacet
  facet normal 0 0 -1
    outer loop
      vertex 1.5987 0.711788 0
      vertex 5.0245 2.23705 0
      vertex 1.71176 0.363845 0
    endloop
  endfacet
  facet normal -0 0 -1
    outer loop
      vertex 5.0245 2.23705 0
      vertex 1.5987 0.711788 0
      vertex 4.44959 3.23282 0
    endloop
  endfacet
  facet normal 0 0 -1
    outer loop
      vertex 5.37981 -1.14351 0
      vertex 1.71176 -0.363845 0
      vertex 1.75 0 0
    endloop
  endfacet
  facet normal 0 0 -1
    outer loop
      vertex 0.875 -1.51554 0
      vertex 2.75 -4.76314 0
      vertex 1.69959 -5.23081 0
    endloop
  endfacet
  facet normal 0 0 -1
    outer loop
      vertex 5.0245 -2.23705 0
      vertex 1.5987 -0.711788 0
      vertex 1.71176 -0.363845 0
    endloop
  endfacet
  facet normal 0 0 -1
    outer loop
      vertex 4.44959 -3.23282 0
      vertex 1.41578 -1.02862 0
      vertex 1.5987 -0.711788 0
    endloop
  endfacet
  facet normal 0 0 -1
    outer loop
      vertex 3.68022 -4.0873 0
      vertex 1.17098 -1.3005 0
      vertex 1.41578 -1.02862 0
    endloop
  endfacet
  facet normal 0 0 -1
    outer loop
      vertex 2.75 -4.76314 0
      vertex 0.875 -1.51554 0
      vertex 1.17098 -1.3005 0
    endloop
  endfacet
  facet normal 0 0 -1
    outer loop
      vertex 0.540779 -1.66435 0
      vertex 1.69959 -5.23081 0
      vertex 0.574906 -5.46987 0
    endloop
  endfacet
  facet normal 0 0 -1
    outer loop
      vertex 1.69959 -5.23081 0
      vertex 0.540779 -1.66435 0
      vertex 0.875 -1.51554 0
    endloop
  endfacet
  facet normal 0 0 -1
    outer loop
      vertex 0.574906 -5.46987 0
      vertex 0.182924 -1.74041 0
      vertex 0.540779 -1.66435 0
    endloop
  endfacet
  facet normal 0 0 -1
    outer loop
      vertex 0.574906 -5.46987 0
      vertex -0.182924 -1.74041 0
      vertex 0.182924 -1.74041 0
    endloop
  endfacet
  facet normal 0 0 -1
    outer loop
      vertex -0.574906 -5.46987 0
      vertex -0.182924 -1.74041 0
      vertex 0.574906 -5.46987 0
    endloop
  endfacet
  facet normal -0 0 -1
    outer loop
      vertex -0.182924 -1.74041 0
      vertex -0.574906 -5.46987 0
      vertex -0.540779 -1.66435 0
    endloop
  endfacet
  facet normal 0 0 -1
    outer loop
      vertex -1.69959 -5.23081 0
      vertex -0.540779 -1.66435 0
      vertex -0.574906 -5.46987 0
    endloop
  endfacet
  facet normal -0 0 -1
    outer loop
      vertex -0.540779 -1.66435 0
      vertex -1.69959 -5.23081 0
      vertex -0.875 -1.51554 0
    endloop
  endfacet
  facet normal 0 0 -1
    outer loop
      vertex -2.75 -4.76314 0
      vertex -0.875 -1.51554 0
      vertex -1.69959 -5.23081 0
    endloop
  endfacet
  facet normal -0 0 -1
    outer loop
      vertex -0.875 -1.51554 0
      vertex -2.75 -4.76314 0
      vertex -1.17098 -1.3005 0
    endloop
  endfacet
  facet normal 0 0 -1
    outer loop
      vertex -3.68022 -4.0873 0
      vertex -1.17098 -1.3005 0
      vertex -2.75 -4.76314 0
    endloop
  endfacet
  facet normal -0 0 -1
    outer loop
      vertex -1.17098 -1.3005 0
      vertex -3.68022 -4.0873 0
      vertex -1.41578 -1.02862 0
    endloop
  endfacet
  facet normal 0 0 -1
    outer loop
      vertex -4.44959 -3.23282 0
      vertex -1.41578 -1.02862 0
      vertex -3.68022 -4.0873 0
    endloop
  endfacet
  facet normal -0 0 -1
    outer loop
      vertex -1.41578 -1.02862 0
      vertex -4.44959 -3.23282 0
      vertex -1.5987 -0.711788 0
    endloop
  endfacet
  facet normal 0 0 -1
    outer loop
      vertex -5.0245 -2.23705 0
      vertex -1.5987 -0.711788 0
      vertex -4.44959 -3.23282 0
    endloop
  endfacet
  facet normal -0 0 -1
    outer loop
      vertex -1.5987 -0.711788 0
      vertex -5.0245 -2.23705 0
      vertex -1.71176 -0.363845 0
    endloop
  endfacet
  facet normal 0 0 -1
    outer loop
      vertex -1.75 0 0
      vertex -3.68022 4.0873 0
      vertex -2.75 4.76314 0
    endloop
  endfacet
  facet normal 0 0 -1
    outer loop
      vertex -5.37981 -1.14351 0
      vertex -1.71176 -0.363845 0
      vertex -5.0245 -2.23705 0
    endloop
  endfacet
  facet normal 0 0 -1
    outer loop
      vertex -1.75 0 0
      vertex -4.44959 3.23282 0
      vertex -3.68022 4.0873 0
    endloop
  endfacet
  facet normal -0 0 -1
    outer loop
      vertex -1.71176 -0.363845 0
      vertex -5.37981 -1.14351 0
      vertex -1.75 0 0
    endloop
  endfacet
  facet normal 0 0 -1
    outer loop
      vertex -1.75 0 0
      vertex -5.0245 2.23705 0
      vertex -4.44959 3.23282 0
    endloop
  endfacet
  facet normal 0 0 -1
    outer loop
      vertex -5.5 0 0
      vertex -1.75 0 0
      vertex -5.37981 -1.14351 0
    endloop
  endfacet
  facet normal 0 0 -1
    outer loop
      vertex -1.75 0 0
      vertex -5.37981 1.14351 0
      vertex -5.0245 2.23705 0
    endloop
  endfacet
  facet normal 0 0 -1
    outer loop
      vertex -1.75 0 0
      vertex -5.5 0 0
      vertex -5.37981 1.14351 0
    endloop
  endfacet
  facet normal 0 0 -1
    outer loop
      vertex 1.41578 1.02862 0
      vertex 4.44959 3.23282 0
      vertex 1.5987 0.711788 0
    endloop
  endfacet
  facet normal -0 0 -1
    outer loop
      vertex 4.44959 3.23282 0
      vertex 1.41578 1.02862 0
      vertex 3.68022 4.0873 0
    endloop
  endfacet
  facet normal 0 0 -1
    outer loop
      vertex 1.17098 1.3005 0
      vertex 3.68022 4.0873 0
      vertex 1.41578 1.02862 0
    endloop
  endfacet
  facet normal -0 0 -1
    outer loop
      vertex 3.68022 4.0873 0
      vertex 1.17098 1.3005 0
      vertex 2.75 4.76314 0
    endloop
  endfacet
  facet normal 0 0 -1
    outer loop
      vertex 0.875 1.51554 0
      vertex 2.75 4.76314 0
      vertex 1.17098 1.3005 0
    endloop
  endfacet
  facet normal -0 0 -1
    outer loop
      vertex 2.75 4.76314 0
      vertex 0.875 1.51554 0
      vertex 1.69959 5.23081 0
    endloop
  endfacet
  facet normal 0 0 -1
    outer loop
      vertex 0.540779 1.66435 0
      vertex 1.69959 5.23081 0
      vertex 0.875 1.51554 0
    endloop
  endfacet
  facet normal -0 0 -1
    outer loop
      vertex 1.69959 5.23081 0
      vertex 0.540779 1.66435 0
      vertex 0.574906 5.46987 0
    endloop
  endfacet
  facet normal 0 0 -1
    outer loop
      vertex 0.182924 1.74041 0
      vertex 0.574906 5.46987 0
      vertex 0.540779 1.66435 0
    endloop
  endfacet
  facet normal 0 0 -1
    outer loop
      vertex -0.182924 1.74041 0
      vertex 0.574906 5.46987 0
      vertex 0.182924 1.74041 0
    endloop
  endfacet
  facet normal 0 0 -1
    outer loop
      vertex -0.574906 5.46987 0
      vertex -0.182924 1.74041 0
      vertex -0.540779 1.66435 0
    endloop
  endfacet
  facet normal 0 0 -1
    outer loop
      vertex -0.182924 1.74041 0
      vertex -0.574906 5.46987 0
      vertex 0.574906 5.46987 0
    endloop
  endfacet
  facet normal 0 0 -1
    outer loop
      vertex -1.69959 5.23081 0
      vertex -0.540779 1.66435 0
      vertex -0.874999 1.51554 0
    endloop
  endfacet
  facet normal 0 0 -1
    outer loop
      vertex -2.75 4.76314 0
      vertex -0.874999 1.51554 0
      vertex -1.17098 1.3005 0
    endloop
  endfacet
  facet normal 0 0 -1
    outer loop
      vertex -2.75 4.76314 0
      vertex -1.17098 1.3005 0
      vertex -1.41578 1.02862 0
    endloop
  endfacet
  facet normal 0 0 -1
    outer loop
      vertex -2.75 4.76314 0
      vertex -1.41578 1.02862 0
      vertex -1.5987 0.711788 0
    endloop
  endfacet
  facet normal 0 0 -1
    outer loop
      vertex -0.540779 1.66435 0
      vertex -1.69959 5.23081 0
      vertex -0.574906 5.46987 0
    endloop
  endfacet
  facet normal 0 0 -1
    outer loop
      vertex -2.75 4.76314 0
      vertex -1.5987 0.711788 0
      vertex -1.71176 0.363845 0
    endloop
  endfacet
  facet normal 0 0 -1
    outer loop
      vertex -2.75 4.76314 0
      vertex -1.71176 0.363845 0
      vertex -1.75 0 0
    endloop
  endfacet
  facet normal 0 0 -1
    outer loop
      vertex -0.874999 1.51554 0
      vertex -2.75 4.76314 0
      vertex -1.69959 5.23081 0
    endloop
  endfacet
  facet normal 0.207912 -0.978148 0
    outer loop
      vertex 0.574906 -5.46987 0
      vertex 1.69959 -5.23081 8
      vertex 0.574906 -5.46987 8
    endloop
  endfacet
  facet normal 0.207912 -0.978148 0
    outer loop
      vertex 1.69959 -5.23081 8
      vertex 0.574906 -5.46987 0
      vertex 1.69959 -5.23081 0
    endloop
  endfacet
  facet normal 0.587785 -0.809017 0
    outer loop
      vertex 2.75 -4.76314 0
      vertex 3.68022 -4.0873 8
      vertex 2.75 -4.76314 8
    endloop
  endfacet
  facet normal 0.587785 -0.809017 0
    outer loop
      vertex 3.68022 -4.0873 8
      vertex 2.75 -4.76314 0
      vertex 3.68022 -4.0873 0
    endloop
  endfacet
  facet normal 0.743145 -0.66913 0
    outer loop
      vertex 3.68022 -4.0873 8
      vertex 4.44959 -3.23282 0
      vertex 4.44959 -3.23282 8
    endloop
  endfacet
  facet normal 0.743145 -0.66913 0
    outer loop
      vertex 4.44959 -3.23282 0
      vertex 3.68022 -4.0873 8
      vertex 3.68022 -4.0873 0
    endloop
  endfacet
  facet normal 0.951057 -0.309017 0
    outer loop
      vertex 5.0245 -2.23705 8
      vertex 5.37981 -1.14351 0
      vertex 5.37981 -1.14351 8
    endloop
  endfacet
  facet normal 0.951057 -0.309017 0
    outer loop
      vertex 5.37981 -1.14351 0
      vertex 5.0245 -2.23705 8
      vertex 5.0245 -2.23705 0
    endloop
  endfacet
  facet normal 0.994522 -0.104529 0
    outer loop
      vertex 5.37981 -1.14351 8
      vertex 5.5 0 0
      vertex 5.5 0 8
    endloop
  endfacet
  facet normal 0.994522 -0.104529 0
    outer loop
      vertex 5.5 0 0
      vertex 5.37981 -1.14351 8
      vertex 5.37981 -1.14351 0
    endloop
  endfacet
  facet normal -0.587785 -0.809017 0
    outer loop
      vertex -3.68022 -4.0873 0
      vertex -2.75 -4.76314 8
      vertex -3.68022 -4.0873 8
    endloop
  endfacet
  facet normal -0.587785 -0.809017 -0
    outer loop
      vertex -2.75 -4.76314 8
      vertex -3.68022 -4.0873 0
      vertex -2.75 -4.76314 0
    endloop
  endfacet
  facet normal -0.866025 -0.5 0
    outer loop
      vertex -4.44959 -3.23282 0
      vertex -5.0245 -2.23705 8
      vertex -5.0245 -2.23705 0
    endloop
  endfacet
  facet normal -0.866025 -0.5 0
    outer loop
      vertex -5.0245 -2.23705 8
      vertex -4.44959 -3.23282 0
      vertex -4.44959 -3.23282 8
    endloop
  endfacet
  facet normal -0.743145 -0.66913 0
    outer loop
      vertex -3.68022 -4.0873 0
      vertex -4.44959 -3.23282 8
      vertex -4.44959 -3.23282 0
    endloop
  endfacet
  facet normal -0.743145 -0.66913 0
    outer loop
      vertex -4.44959 -3.23282 8
      vertex -3.68022 -4.0873 0
      vertex -3.68022 -4.0873 8
    endloop
  endfacet
  facet normal 0.406737 -0.913545 0
    outer loop
      vertex 1.69959 -5.23081 0
      vertex 2.75 -4.76314 8
      vertex 1.69959 -5.23081 8
    endloop
  endfacet
  facet normal 0.406737 -0.913545 0
    outer loop
      vertex 2.75 -4.76314 8
      vertex 1.69959 -5.23081 0
      vertex 2.75 -4.76314 0
    endloop
  endfacet
  facet normal -0.207912 -0.978148 0
    outer loop
      vertex -1.69959 -5.23081 0
      vertex -0.574906 -5.46987 8
      vertex -1.69959 -5.23081 8
    endloop
  endfacet
  facet normal -0.207912 -0.978148 -0
    outer loop
      vertex -0.574906 -5.46987 8
      vertex -1.69959 -5.23081 0
      vertex -0.574906 -5.46987 0
    endloop
  endfacet
  facet normal -0.951057 -0.309017 0
    outer loop
      vertex -5.0245 -2.23705 0
      vertex -5.37981 -1.14351 8
      vertex -5.37981 -1.14351 0
    endloop
  endfacet
  facet normal -0.951057 -0.309017 0
    outer loop
      vertex -5.37981 -1.14351 8
      vertex -5.0245 -2.23705 0
      vertex -5.0245 -2.23705 8
    endloop
  endfacet
  facet normal -0.994522 -0.104529 0
    outer loop
      vertex -5.37981 -1.14351 0
      vertex -5.5 0 8
      vertex -5.5 0 0
    endloop
  endfacet
  facet normal -0.994522 -0.104529 0
    outer loop
      vertex -5.5 0 8
      vertex -5.37981 -1.14351 0
      vertex -5.37981 -1.14351 8
    endloop
  endfacet
  facet normal -0.406737 -0.913545 0
    outer loop
      vertex -2.75 -4.76314 0
      vertex -1.69959 -5.23081 8
      vertex -2.75 -4.76314 8
    endloop
  endfacet
  facet normal -0.406737 -0.913545 -0
    outer loop
      vertex -1.69959 -5.23081 8
      vertex -2.75 -4.76314 0
      vertex -1.69959 -5.23081 0
    endloop
  endfacet
  facet normal -0.994522 -0.10453 0
    outer loop
      vertex 1.75 0 0
      vertex 1.71176 0.363845 5.7
      vertex 1.71176 0.363845 0
    endloop
  endfacet
  facet normal -0.994522 -0.10453 0
    outer loop
      vertex 1.71176 0.363845 5.7
      vertex 1.75 0 0
      vertex 1.75 0 5.7
    endloop
  endfacet
  facet normal 0.994522 -0.10453 0
    outer loop
      vertex -1.75 0 5.7
      vertex -1.71176 0.363845 0
      vertex -1.71176 0.363845 5.7
    endloop
  endfacet
  facet normal 0.994522 -0.10453 0
    outer loop
      vertex -1.71176 0.363845 0
      vertex -1.75 0 5.7
      vertex -1.75 0 0
    endloop
  endfacet
  facet normal 0 -1 0
    outer loop
      vertex -0.182924 1.74041 0
      vertex 0.182924 1.74041 5.7
      vertex -0.182924 1.74041 5.7
    endloop
  endfacet
  facet normal 0 -1 -0
    outer loop
      vertex 0.182924 1.74041 5.7
      vertex -0.182924 1.74041 0
      vertex 0.182924 1.74041 0
    endloop
  endfacet
  facet normal 0 1 -0
    outer loop
      vertex 0.182924 -1.74041 0
      vertex -0.182924 -1.74041 5.7
      vertex 0.182924 -1.74041 5.7
    endloop
  endfacet
  facet normal 0 1 0
    outer loop
      vertex -0.182924 -1.74041 5.7
      vertex 0.182924 -1.74041 0
      vertex -0.182924 -1.74041 0
    endloop
  endfacet
  facet normal -0.587786 -0.809017 0
    outer loop
      vertex 0.875 1.51554 0
      vertex 1.17098 1.3005 5.7
      vertex 0.875 1.51554 5.7
    endloop
  endfacet
  facet normal -0.587786 -0.809017 -0
    outer loop
      vertex 1.17098 1.3005 5.7
      vertex 0.875 1.51554 0
      vertex 1.17098 1.3005 0
    endloop
  endfacet
  facet normal -0.406737 -0.913546 0
    outer loop
      vertex 0.540779 1.66435 0
      vertex 0.875 1.51554 5.7
      vertex 0.540779 1.66435 5.7
    endloop
  endfacet
  facet normal -0.406737 -0.913546 -0
    outer loop
      vertex 0.875 1.51554 5.7
      vertex 0.540779 1.66435 0
      vertex 0.875 1.51554 0
    endloop
  endfacet
  facet normal 0.587784 -0.809018 0
    outer loop
      vertex -1.17098 1.3005 0
      vertex -0.874999 1.51554 5.7
      vertex -1.17098 1.3005 5.7
    endloop
  endfacet
  facet normal 0.587784 -0.809018 0
    outer loop
      vertex -0.874999 1.51554 5.7
      vertex -1.17098 1.3005 0
      vertex -0.874999 1.51554 0
    endloop
  endfacet
  facet normal 0.207911 -0.978148 0
    outer loop
      vertex -0.540779 1.66435 0
      vertex -0.182924 1.74041 5.7
      vertex -0.540779 1.66435 5.7
    endloop
  endfacet
  facet normal 0.207911 -0.978148 0
    outer loop
      vertex -0.182924 1.74041 5.7
      vertex -0.540779 1.66435 0
      vertex -0.182924 1.74041 0
    endloop
  endfacet
  facet normal -0.866025 -0.5 0
    outer loop
      vertex 1.5987 0.711788 0
      vertex 1.41578 1.02862 5.7
      vertex 1.41578 1.02862 0
    endloop
  endfacet
  facet normal -0.866025 -0.5 0
    outer loop
      vertex 1.41578 1.02862 5.7
      vertex 1.5987 0.711788 0
      vertex 1.5987 0.711788 5.7
    endloop
  endfacet
  facet normal -0.951057 -0.309016 0
    outer loop
      vertex 1.71176 0.363845 0
      vertex 1.5987 0.711788 5.7
      vertex 1.5987 0.711788 0
    endloop
  endfacet
  facet normal -0.951057 -0.309016 0
    outer loop
      vertex 1.5987 0.711788 5.7
      vertex 1.71176 0.363845 0
      vertex 1.71176 0.363845 5.7
    endloop
  endfacet
  facet normal -0.743146 -0.66913 0
    outer loop
      vertex 1.41578 1.02862 0
      vertex 1.17098 1.3005 5.7
      vertex 1.17098 1.3005 0
    endloop
  endfacet
  facet normal -0.743146 -0.66913 0
    outer loop
      vertex 1.17098 1.3005 5.7
      vertex 1.41578 1.02862 0
      vertex 1.41578 1.02862 5.7
    endloop
  endfacet
  facet normal -0.207911 -0.978148 0
    outer loop
      vertex 0.182924 1.74041 0
      vertex 0.540779 1.66435 5.7
      vertex 0.182924 1.74041 5.7
    endloop
  endfacet
  facet normal -0.207911 -0.978148 -0
    outer loop
      vertex 0.540779 1.66435 5.7
      vertex 0.182924 1.74041 0
      vertex 0.540779 1.66435 0
    endloop
  endfacet
  facet normal 0.866025 -0.5 0
    outer loop
      vertex -1.5987 0.711788 5.7
      vertex -1.41578 1.02862 0
      vertex -1.41578 1.02862 5.7
    endloop
  endfacet
  facet normal 0.866025 -0.5 0
    outer loop
      vertex -1.41578 1.02862 0
      vertex -1.5987 0.711788 5.7
      vertex -1.5987 0.711788 0
    endloop
  endfacet
  facet normal 0.743146 -0.66913 0
    outer loop
      vertex -1.41578 1.02862 5.7
      vertex -1.17098 1.3005 0
      vertex -1.17098 1.3005 5.7
    endloop
  endfacet
  facet normal 0.743146 -0.66913 0
    outer loop
      vertex -1.17098 1.3005 0
      vertex -1.41578 1.02862 5.7
      vertex -1.41578 1.02862 0
    endloop
  endfacet
  facet normal 0.951057 -0.309016 0
    outer loop
      vertex -1.71176 0.363845 5.7
      vertex -1.5987 0.711788 0
      vertex -1.5987 0.711788 5.7
    endloop
  endfacet
  facet normal 0.951057 -0.309016 0
    outer loop
      vertex -1.5987 0.711788 0
      vertex -1.71176 0.363845 5.7
      vertex -1.71176 0.363845 0
    endloop
  endfacet
  facet normal 0.406737 -0.913545 0
    outer loop
      vertex -0.874999 1.51554 0
      vertex -0.540779 1.66435 5.7
      vertex -0.874999 1.51554 5.7
    endloop
  endfacet
  facet normal 0.406737 -0.913545 0
    outer loop
      vertex -0.540779 1.66435 5.7
      vertex -0.874999 1.51554 0
      vertex -0.540779 1.66435 0
    endloop
  endfacet
  facet normal -0.994522 0.10453 0
    outer loop
      vertex 1.71176 -0.363845 0
      vertex 1.75 0 5.7
      vertex 1.75 0 0
    endloop
  endfacet
  facet normal -0.994522 0.10453 0
    outer loop
      vertex 1.75 0 5.7
      vertex 1.71176 -0.363845 0
      vertex 1.71176 -0.363845 5.7
    endloop
  endfacet
  facet normal -0.207911 0.978148 0
    outer loop
      vertex 0.540779 -1.66435 0
      vertex 0.182924 -1.74041 5.7
      vertex 0.540779 -1.66435 5.7
    endloop
  endfacet
  facet normal -0.207911 0.978148 0
    outer loop
      vertex 0.182924 -1.74041 5.7
      vertex 0.540779 -1.66435 0
      vertex 0.182924 -1.74041 0
    endloop
  endfacet
  facet normal -0.743146 0.66913 0
    outer loop
      vertex 1.17098 -1.3005 0
      vertex 1.41578 -1.02862 5.7
      vertex 1.41578 -1.02862 0
    endloop
  endfacet
  facet normal -0.743146 0.66913 0
    outer loop
      vertex 1.41578 -1.02862 5.7
      vertex 1.17098 -1.3005 0
      vertex 1.17098 -1.3005 5.7
    endloop
  endfacet
  facet normal -0.951057 0.309016 0
    outer loop
      vertex 1.5987 -0.711788 0
      vertex 1.71176 -0.363845 5.7
      vertex 1.71176 -0.363845 0
    endloop
  endfacet
  facet normal -0.951057 0.309016 0
    outer loop
      vertex 1.71176 -0.363845 5.7
      vertex 1.5987 -0.711788 0
      vertex 1.5987 -0.711788 5.7
    endloop
  endfacet
  facet normal -0.866025 0.5 0
    outer loop
      vertex 1.41578 -1.02862 0
      vertex 1.5987 -0.711788 5.7
      vertex 1.5987 -0.711788 0
    endloop
  endfacet
  facet normal -0.866025 0.5 0
    outer loop
      vertex 1.5987 -0.711788 5.7
      vertex 1.41578 -1.02862 0
      vertex 1.41578 -1.02862 5.7
    endloop
  endfacet
  facet normal 0.587786 0.809017 -0
    outer loop
      vertex -0.875 -1.51554 0
      vertex -1.17098 -1.3005 5.7
      vertex -0.875 -1.51554 5.7
    endloop
  endfacet
  facet normal 0.587786 0.809017 0
    outer loop
      vertex -1.17098 -1.3005 5.7
      vertex -0.875 -1.51554 0
      vertex -1.17098 -1.3005 0
    endloop
  endfacet
  facet normal 0.866025 0.5 0
    outer loop
      vertex -1.41578 -1.02862 5.7
      vertex -1.5987 -0.711788 0
      vertex -1.5987 -0.711788 5.7
    endloop
  endfacet
  facet normal 0.866025 0.5 0
    outer loop
      vertex -1.5987 -0.711788 0
      vertex -1.41578 -1.02862 5.7
      vertex -1.41578 -1.02862 0
    endloop
  endfacet
  facet normal -0.587786 0.809017 0
    outer loop
      vertex 1.17098 -1.3005 0
      vertex 0.875 -1.51554 5.7
      vertex 1.17098 -1.3005 5.7
    endloop
  endfacet
  facet normal -0.587786 0.809017 0
    outer loop
      vertex 0.875 -1.51554 5.7
      vertex 1.17098 -1.3005 0
      vertex 0.875 -1.51554 0
    endloop
  endfacet
  facet normal -0.406737 0.913546 0
    outer loop
      vertex 0.875 -1.51554 0
      vertex 0.540779 -1.66435 5.7
      vertex 0.875 -1.51554 5.7
    endloop
  endfacet
  facet normal -0.406737 0.913546 0
    outer loop
      vertex 0.540779 -1.66435 5.7
      vertex 0.875 -1.51554 0
      vertex 0.540779 -1.66435 0
    endloop
  endfacet
  facet normal 0.207911 0.978148 -0
    outer loop
      vertex -0.182924 -1.74041 0
      vertex -0.540779 -1.66435 5.7
      vertex -0.182924 -1.74041 5.7
    endloop
  endfacet
  facet normal 0.207911 0.978148 0
    outer loop
      vertex -0.540779 -1.66435 5.7
      vertex -0.182924 -1.74041 0
      vertex -0.540779 -1.66435 0
    endloop
  endfacet
  facet normal 0.406737 0.913546 -0
    outer loop
      vertex -0.540779 -1.66435 0
      vertex -0.875 -1.51554 5.7
      vertex -0.540779 -1.66435 5.7
    endloop
  endfacet
  facet normal 0.406737 0.913546 0
    outer loop
      vertex -0.875 -1.51554 5.7
      vertex -0.540779 -1.66435 0
      vertex -0.875 -1.51554 0
    endloop
  endfacet
  facet normal 0.743146 0.66913 0
    outer loop
      vertex -1.17098 -1.3005 5.7
      vertex -1.41578 -1.02862 0
      vertex -1.41578 -1.02862 5.7
    endloop
  endfacet
  facet normal 0.743146 0.66913 0
    outer loop
      vertex -1.41578 -1.02862 0
      vertex -1.17098 -1.3005 5.7
      vertex -1.17098 -1.3005 0
    endloop
  endfacet
  facet normal 0.951057 0.309016 0
    outer loop
      vertex -1.5987 -0.711788 5.7
      vertex -1.71176 -0.363845 0
      vertex -1.71176 -0.363845 5.7
    endloop
  endfacet
  facet normal 0.951057 0.309016 0
    outer loop
      vertex -1.71176 -0.363845 0
      vertex -1.5987 -0.711788 5.7
      vertex -1.5987 -0.711788 0
    endloop
  endfacet
  facet normal 0.994522 0.10453 0
    outer loop
      vertex -1.71176 -0.363845 5.7
      vertex -1.75 0 0
      vertex -1.75 0 5.7
    endloop
  endfacet
  facet normal 0.994522 0.10453 0
    outer loop
      vertex -1.75 0 0
      vertex -1.71176 -0.363845 5.7
      vertex -1.71176 -0.363845 0
    endloop
  endfacet
  facet normal -0.58389 0.525737 0.618606
    outer loop
      vertex 2.38935 -2.65365 8
      vertex 2.87866 -2.11021 8
      vertex 1.17098 -1.3005 5.7
    endloop
  endfacet
  facet normal -0.781397 -0.0821286 0.618606
    outer loop
      vertex 3.57083 0 8
      vertex 3.4944 0.727257 8
      vertex 1.75 0 5.7
    endloop
  endfacet
  facet normal -0.781397 -0.0821262 0.618606
    outer loop
      vertex 1.71176 0.363845 5.7
      vertex 3.4944 0.727257 8
      vertex 3.4928 0.742417 8
    endloop
  endfacet
  facet normal -0.781397 -0.0821296 0.618606
    outer loop
      vertex 3.4944 0.727257 8
      vertex 1.71176 0.363845 5.7
      vertex 1.75 0 5.7
    endloop
  endfacet
  facet normal -0.781397 0.0821296 0.618606
    outer loop
      vertex 1.71176 -0.363845 5.7
      vertex 3.4944 -0.727257 8
      vertex 1.75 0 5.7
    endloop
  endfacet
  facet normal -0.781397 0.0821262 0.618606
    outer loop
      vertex 3.4944 -0.727257 8
      vertex 1.71176 -0.363845 5.7
      vertex 3.4928 -0.742417 8
    endloop
  endfacet
  facet normal 0.747246 0.242794 0.618606
    outer loop
      vertex -3.4928 -0.742417 8
      vertex -1.5987 -0.711788 5.7
      vertex -1.71176 -0.363845 5.7
    endloop
  endfacet
  facet normal 0.747245 0.242801 0.618605
    outer loop
      vertex -1.5987 -0.711788 5.7
      vertex -3.4928 -0.742417 8
      vertex -3.48809 -0.756915 8
    endloop
  endfacet
  facet normal -0.163355 0.768532 0.618607
    outer loop
      vertex 0.540779 -1.66435 5.7
      vertex 0.373254 -3.55127 8
      vertex 0.388164 -3.5481 8
    endloop
  endfacet
  facet normal -0.163356 0.768532 0.618606
    outer loop
      vertex 0.373254 -3.55127 8
      vertex 0.540779 -1.66435 5.7
      vertex 0.182924 -1.74041 5.7
    endloop
  endfacet
  facet normal -0.461826 0.635645 0.618606
    outer loop
      vertex 1.17098 -1.3005 5.7
      vertex 1.78542 -3.09243 8
      vertex 1.79775 -3.08347 8
    endloop
  endfacet
  facet normal -0.461824 0.635645 0.618606
    outer loop
      vertex 1.78542 -3.09243 8
      vertex 1.17098 -1.3005 5.7
      vertex 0.875 -1.51554 5.7
    endloop
  endfacet
  facet normal 0.163358 -0.768532 0.618606
    outer loop
      vertex -0.540779 1.66435 5.7
      vertex -0.388164 3.5481 8
      vertex -1.10345 3.39606 8
    endloop
  endfacet
  facet normal -0.319573 -0.717774 0.618606
    outer loop
      vertex 1.77149 3.09863 8
      vertex 1.10345 3.39606 8
      vertex 0.540779 1.66435 5.7
    endloop
  endfacet
  facet normal -0.747246 0.242795 0.618606
    outer loop
      vertex 3.26212 -1.45239 8
      vertex 3.48809 -0.756915 8
      vertex 1.5987 -0.711788 5.7
    endloop
  endfacet
  facet normal -0.781397 0.0821286 0.618606
    outer loop
      vertex 3.4944 -0.727257 8
      vertex 3.57083 0 8
      vertex 1.75 0 5.7
    endloop
  endfacet
  facet normal -0.680437 0.392851 0.618606
    outer loop
      vertex 2.89649 -2.08568 8
      vertex 3.26212 -1.45239 8
      vertex 1.5987 -0.711788 5.7
    endloop
  endfacet
  facet normal -0.461824 0.635645 0.618606
    outer loop
      vertex 1.79775 -3.08347 8
      vertex 2.38935 -2.65365 8
      vertex 1.17098 -1.3005 5.7
    endloop
  endfacet
  facet normal 0.461824 0.635645 0.618606
    outer loop
      vertex -1.17098 -1.3005 5.7
      vertex -1.78542 -3.09243 8
      vertex -0.875 -1.51554 5.7
    endloop
  endfacet
  facet normal 0.461826 0.635645 0.618606
    outer loop
      vertex -1.78542 -3.09243 8
      vertex -1.17098 -1.3005 5.7
      vertex -1.79775 -3.08347 8
    endloop
  endfacet
  facet normal 0.319573 0.717774 0.618606
    outer loop
      vertex -1.10345 -3.39606 8
      vertex -0.540779 -1.66435 5.7
      vertex -1.77149 -3.09863 8
    endloop
  endfacet
  facet normal -0.747246 0.242794 0.618606
    outer loop
      vertex 1.5987 -0.711788 5.7
      vertex 3.4928 -0.742417 8
      vertex 1.71176 -0.363845 5.7
    endloop
  endfacet
  facet normal -0.747245 0.242801 0.618605
    outer loop
      vertex 3.4928 -0.742417 8
      vertex 1.5987 -0.711788 5.7
      vertex 3.48809 -0.756915 8
    endloop
  endfacet
  facet normal -0.680437 0.392851 0.618606
    outer loop
      vertex 1.41578 -1.02862 5.7
      vertex 2.89649 -2.08568 8
      vertex 1.5987 -0.711788 5.7
    endloop
  endfacet
  facet normal -0.68044 0.392846 0.618606
    outer loop
      vertex 2.89649 -2.08568 8
      vertex 1.41578 -1.02862 5.7
      vertex 2.88886 -2.09888 8
    endloop
  endfacet
  facet normal -0.583889 0.525738 0.618606
    outer loop
      vertex 1.41578 -1.02862 5.7
      vertex 2.87866 -2.11021 8
      vertex 2.88886 -2.09888 8
    endloop
  endfacet
  facet normal -0.58389 0.525736 0.618606
    outer loop
      vertex 2.87866 -2.11021 8
      vertex 1.41578 -1.02862 5.7
      vertex 1.17098 -1.3005 5.7
    endloop
  endfacet
  facet normal 0 0.785701 0.618606
    outer loop
      vertex 0.182924 -1.74041 5.7
      vertex -0.373254 -3.55127 8
      vertex 0.373254 -3.55127 8
    endloop
  endfacet
  facet normal 0 0.785701 0.618606
    outer loop
      vertex -0.373254 -3.55127 8
      vertex 0.182924 -1.74041 5.7
      vertex -0.182924 -1.74041 5.7
    endloop
  endfacet
  facet normal 0.680437 0.392851 0.618606
    outer loop
      vertex -2.89649 -2.08568 8
      vertex -1.41578 -1.02862 5.7
      vertex -1.5987 -0.711788 5.7
    endloop
  endfacet
  facet normal 0.68044 0.392846 0.618606
    outer loop
      vertex -1.41578 -1.02862 5.7
      vertex -2.89649 -2.08568 8
      vertex -2.88886 -2.09888 8
    endloop
  endfacet
  facet normal 0.747246 -0.242795 0.618606
    outer loop
      vertex -1.5987 0.711788 5.7
      vertex -3.26212 1.45239 8
      vertex -3.48809 0.756915 8
    endloop
  endfacet
  facet normal 0 -0.785701 0.618606
    outer loop
      vertex -0.182924 1.74041 5.7
      vertex 0.373254 3.55127 8
      vertex -0.373254 3.55127 8
    endloop
  endfacet
  facet normal 0 -0.785701 0.618606
    outer loop
      vertex 0.373254 3.55127 8
      vertex -0.182924 1.74041 5.7
      vertex 0.182924 1.74041 5.7
    endloop
  endfacet
  facet normal -0.461824 -0.635645 0.618606
    outer loop
      vertex 1.17098 1.3005 5.7
      vertex 1.78542 3.09243 8
      vertex 0.875 1.51554 5.7
    endloop
  endfacet
  facet normal -0.461826 -0.635645 0.618606
    outer loop
      vertex 1.78542 3.09243 8
      vertex 1.17098 1.3005 5.7
      vertex 1.79775 3.08347 8
    endloop
  endfacet
  facet normal -0.319573 0.717774 0.618606
    outer loop
      vertex 1.10345 -3.39606 8
      vertex 1.77149 -3.09863 8
      vertex 0.540779 -1.66435 5.7
    endloop
  endfacet
  facet normal -0.163358 0.768532 0.618606
    outer loop
      vertex 1.10345 -3.39606 8
      vertex 0.540779 -1.66435 5.7
      vertex 0.388164 -3.5481 8
    endloop
  endfacet
  facet normal 0.680437 0.392851 0.618606
    outer loop
      vertex -2.89649 -2.08568 8
      vertex -1.5987 -0.711788 5.7
      vertex -3.26212 -1.45239 8
    endloop
  endfacet
  facet normal 0.747246 0.242795 0.618606
    outer loop
      vertex -3.26212 -1.45239 8
      vertex -1.5987 -0.711788 5.7
      vertex -3.48809 -0.756915 8
    endloop
  endfacet
  facet normal 0.163358 0.768532 0.618606
    outer loop
      vertex -0.388164 -3.5481 8
      vertex -0.540779 -1.66435 5.7
      vertex -1.10345 -3.39606 8
    endloop
  endfacet
  facet normal 0.163356 0.768532 0.618606
    outer loop
      vertex -0.540779 -1.66435 5.7
      vertex -0.373254 -3.55127 8
      vertex -0.182924 -1.74041 5.7
    endloop
  endfacet
  facet normal 0.163355 0.768532 0.618607
    outer loop
      vertex -0.373254 -3.55127 8
      vertex -0.540779 -1.66435 5.7
      vertex -0.388164 -3.5481 8
    endloop
  endfacet
  facet normal 0.319573 0.717774 0.618606
    outer loop
      vertex -0.875 -1.51554 5.7
      vertex -1.77149 -3.09863 8
      vertex -0.540779 -1.66435 5.7
    endloop
  endfacet
  facet normal 0.31957 0.717776 0.618606
    outer loop
      vertex -1.77149 -3.09863 8
      vertex -0.875 -1.51554 5.7
      vertex -1.78542 -3.09243 8
    endloop
  endfacet
  facet normal 0.58389 0.525737 0.618606
    outer loop
      vertex -2.38935 -2.65365 8
      vertex -1.17098 -1.3005 5.7
      vertex -2.87866 -2.11021 8
    endloop
  endfacet
  facet normal 0.461824 0.635645 0.618606
    outer loop
      vertex -1.79775 -3.08347 8
      vertex -1.17098 -1.3005 5.7
      vertex -2.38935 -2.65365 8
    endloop
  endfacet
  facet normal 0.319573 -0.717774 0.618606
    outer loop
      vertex -0.540779 1.66435 5.7
      vertex -1.10345 3.39606 8
      vertex -1.77149 3.09863 8
    endloop
  endfacet
  facet normal 0.781397 -0.0821286 0.618606
    outer loop
      vertex -1.75 0 5.7
      vertex -3.4944 0.727257 8
      vertex -3.57083 0 8
    endloop
  endfacet
  facet normal 0.747245 -0.242801 0.618605
    outer loop
      vertex -3.4928 0.742417 8
      vertex -1.5987 0.711788 5.7
      vertex -3.48809 0.756915 8
    endloop
  endfacet
  facet normal 0.747246 -0.242794 0.618606
    outer loop
      vertex -1.5987 0.711788 5.7
      vertex -3.4928 0.742417 8
      vertex -1.71176 0.363845 5.7
    endloop
  endfacet
  facet normal 0.680437 -0.392851 0.618606
    outer loop
      vertex -1.5987 0.711788 5.7
      vertex -2.89649 2.08568 8
      vertex -3.26212 1.45239 8
    endloop
  endfacet
  facet normal -0.319573 -0.717774 0.618606
    outer loop
      vertex 0.875 1.51554 5.7
      vertex 1.77149 3.09863 8
      vertex 0.540779 1.66435 5.7
    endloop
  endfacet
  facet normal -0.31957 -0.717776 0.618606
    outer loop
      vertex 1.77149 3.09863 8
      vertex 0.875 1.51554 5.7
      vertex 1.78542 3.09243 8
    endloop
  endfacet
  facet normal 0.163355 -0.768532 0.618607
    outer loop
      vertex -0.540779 1.66435 5.7
      vertex -0.373254 3.55127 8
      vertex -0.388164 3.5481 8
    endloop
  endfacet
  facet normal 0.163356 -0.768532 0.618606
    outer loop
      vertex -0.373254 3.55127 8
      vertex -0.540779 1.66435 5.7
      vertex -0.182924 1.74041 5.7
    endloop
  endfacet
  facet normal -0.68044 -0.392846 0.618606
    outer loop
      vertex 1.41578 1.02862 5.7
      vertex 2.89649 2.08568 8
      vertex 2.88886 2.09888 8
    endloop
  endfacet
  facet normal -0.680437 -0.392851 0.618606
    outer loop
      vertex 2.89649 2.08568 8
      vertex 1.41578 1.02862 5.7
      vertex 1.5987 0.711788 5.7
    endloop
  endfacet
  facet normal -0.461824 -0.635645 0.618606
    outer loop
      vertex 2.38935 2.65365 8
      vertex 1.79775 3.08347 8
      vertex 1.17098 1.3005 5.7
    endloop
  endfacet
  facet normal -0.31957 0.717776 0.618606
    outer loop
      vertex 0.875 -1.51554 5.7
      vertex 1.77149 -3.09863 8
      vertex 1.78542 -3.09243 8
    endloop
  endfacet
  facet normal -0.319573 0.717774 0.618606
    outer loop
      vertex 1.77149 -3.09863 8
      vertex 0.875 -1.51554 5.7
      vertex 0.540779 -1.66435 5.7
    endloop
  endfacet
  facet normal 0.58389 0.525736 0.618606
    outer loop
      vertex -1.41578 -1.02862 5.7
      vertex -2.87866 -2.11021 8
      vertex -1.17098 -1.3005 5.7
    endloop
  endfacet
  facet normal 0.583889 0.525738 0.618606
    outer loop
      vertex -2.87866 -2.11021 8
      vertex -1.41578 -1.02862 5.7
      vertex -2.88886 -2.09888 8
    endloop
  endfacet
  facet normal 0.781397 0.0821286 0.618606
    outer loop
      vertex -3.4944 -0.727257 8
      vertex -1.75 0 5.7
      vertex -3.57083 0 8
    endloop
  endfacet
  facet normal 0.461824 -0.635645 0.618606
    outer loop
      vertex -1.17098 1.3005 5.7
      vertex -1.79775 3.08347 8
      vertex -2.38935 2.65365 8
    endloop
  endfacet
  facet normal -0.680437 -0.392851 0.618606
    outer loop
      vertex 3.26212 1.45239 8
      vertex 2.89649 2.08568 8
      vertex 1.5987 0.711788 5.7
    endloop
  endfacet
  facet normal -0.58389 -0.525737 0.618606
    outer loop
      vertex 2.87866 2.11021 8
      vertex 2.38935 2.65365 8
      vertex 1.17098 1.3005 5.7
    endloop
  endfacet
  facet normal -0.583889 -0.525738 0.618606
    outer loop
      vertex 2.87866 2.11021 8
      vertex 1.41578 1.02862 5.7
      vertex 2.88886 2.09888 8
    endloop
  endfacet
  facet normal -0.58389 -0.525736 0.618606
    outer loop
      vertex 1.41578 1.02862 5.7
      vertex 2.87866 2.11021 8
      vertex 1.17098 1.3005 5.7
    endloop
  endfacet
  facet normal 0.781397 0.0821296 0.618606
    outer loop
      vertex -3.4944 -0.727257 8
      vertex -1.71176 -0.363845 5.7
      vertex -1.75 0 5.7
    endloop
  endfacet
  facet normal 0.781397 0.0821262 0.618606
    outer loop
      vertex -1.71176 -0.363845 5.7
      vertex -3.4944 -0.727257 8
      vertex -3.4928 -0.742417 8
    endloop
  endfacet
  facet normal 0.58389 -0.525737 0.618606
    outer loop
      vertex -1.17098 1.3005 5.7
      vertex -2.38935 2.65365 8
      vertex -2.87866 2.11021 8
    endloop
  endfacet
  facet normal 0.461826 -0.635645 0.618606
    outer loop
      vertex -1.17098 1.3005 5.7
      vertex -1.78542 3.09243 8
      vertex -1.79775 3.08347 8
    endloop
  endfacet
  facet normal 0.461823 -0.635646 0.618606
    outer loop
      vertex -1.78542 3.09243 8
      vertex -1.17098 1.3005 5.7
      vertex -0.874999 1.51554 5.7
    endloop
  endfacet
  facet normal 0.31957 -0.717775 0.618606
    outer loop
      vertex -0.874999 1.51554 5.7
      vertex -1.77149 3.09863 8
      vertex -1.78542 3.09243 8
    endloop
  endfacet
  facet normal 0.319574 -0.717773 0.618606
    outer loop
      vertex -1.77149 3.09863 8
      vertex -0.874999 1.51554 5.7
      vertex -0.540779 1.66435 5.7
    endloop
  endfacet
  facet normal -0.163356 -0.768532 0.618606
    outer loop
      vertex 0.540779 1.66435 5.7
      vertex 0.373254 3.55127 8
      vertex 0.182924 1.74041 5.7
    endloop
  endfacet
  facet normal -0.163355 -0.768532 0.618607
    outer loop
      vertex 0.373254 3.55127 8
      vertex 0.540779 1.66435 5.7
      vertex 0.388164 3.5481 8
    endloop
  endfacet
  facet normal -0.163358 -0.768532 0.618606
    outer loop
      vertex 0.540779 1.66435 5.7
      vertex 1.10345 3.39606 8
      vertex 0.388164 3.5481 8
    endloop
  endfacet
  facet normal -0.747246 -0.242795 0.618606
    outer loop
      vertex 3.48809 0.756915 8
      vertex 3.26212 1.45239 8
      vertex 1.5987 0.711788 5.7
    endloop
  endfacet
  facet normal -0.747245 -0.242801 0.618605
    outer loop
      vertex 1.5987 0.711788 5.7
      vertex 3.4928 0.742417 8
      vertex 3.48809 0.756915 8
    endloop
  endfacet
  facet normal -0.747246 -0.242794 0.618606
    outer loop
      vertex 3.4928 0.742417 8
      vertex 1.5987 0.711788 5.7
      vertex 1.71176 0.363845 5.7
    endloop
  endfacet
  facet normal 0.781397 -0.0821262 0.618606
    outer loop
      vertex -3.4944 0.727257 8
      vertex -1.71176 0.363845 5.7
      vertex -3.4928 0.742417 8
    endloop
  endfacet
  facet normal 0.781397 -0.0821296 0.618606
    outer loop
      vertex -1.71176 0.363845 5.7
      vertex -3.4944 0.727257 8
      vertex -1.75 0 5.7
    endloop
  endfacet
  facet normal 0.68044 -0.392846 0.618606
    outer loop
      vertex -2.89649 2.08568 8
      vertex -1.41578 1.02862 5.7
      vertex -2.88886 2.09888 8
    endloop
  endfacet
  facet normal 0.680437 -0.392851 0.618606
    outer loop
      vertex -1.41578 1.02862 5.7
      vertex -2.89649 2.08568 8
      vertex -1.5987 0.711788 5.7
    endloop
  endfacet
  facet normal 0.58389 -0.525736 0.618606
    outer loop
      vertex -2.87866 2.11021 8
      vertex -1.41578 1.02862 5.7
      vertex -1.17098 1.3005 5.7
    endloop
  endfacet
  facet normal 0.583889 -0.525738 0.618606
    outer loop
      vertex -1.41578 1.02862 5.7
      vertex -2.87866 2.11021 8
      vertex -2.88886 2.09888 8
    endloop
  endfacet
endsolid OpenSCAD_Model
