solid OpenSCAD_Model
  facet normal 0.994522 0.104529 0
    outer loop
      vertex 5.5 0 8
      vertex 5.37981 1.14351 0
      vertex 5.37981 1.14351 8
    endloop
  endfacet
  facet normal 0.994522 0.104529 0
    outer loop
      vertex 5.37981 1.14351 0
      vertex 5.5 0 8
      vertex 5.5 0 0
    endloop
  endfacet
  facet normal -0.994522 0.104529 0
    outer loop
      vertex -5.5 0 0
      vertex -5.37981 1.14351 8
      vertex -5.37981 1.14351 0
    endloop
  endfacet
  facet normal -0.994522 0.104529 0
    outer loop
      vertex -5.37981 1.14351 8
      vertex -5.5 0 0
      vertex -5.5 0 8
    endloop
  endfacet
  facet normal 0 1 -0
    outer loop
      vertex 0.574906 5.46987 0
      vertex -0.574906 5.46987 8
      vertex 0.574906 5.46987 8
    endloop
  endfacet
  facet normal 0 1 0
    outer loop
      vertex -0.574906 5.46987 8
      vertex 0.574906 5.46987 0
      vertex -0.574906 5.46987 0
    endloop
  endfacet
  facet normal 0 -1 0
    outer loop
      vertex -0.574906 -5.46987 0
      vertex 0.574906 -5.46987 8
      vertex -0.574906 -5.46987 8
    endloop
  endfacet
  facet normal 0 -1 -0
    outer loop
      vertex 0.574906 -5.46987 8
      vertex -0.574906 -5.46987 0
      vertex 0.574906 -5.46987 0
    endloop
  endfacet
  facet normal 0.743145 0.66913 0
    outer loop
      vertex 4.44959 3.23282 8
      vertex 3.68022 4.0873 0
      vertex 3.68022 4.0873 8
    endloop
  endfacet
  facet normal 0.743145 0.66913 0
    outer loop
      vertex 3.68022 4.0873 0
      vertex 4.44959 3.23282 8
      vertex 4.44959 3.23282 0
    endloop
  endfacet
  facet normal 0.951057 0.309017 0
    outer loop
      vertex 5.37981 1.14351 8
      vertex 5.0245 2.23705 0
      vertex 5.0245 2.23705 8
    endloop
  endfacet
  facet normal 0.951057 0.309017 0
    outer loop
      vertex 5.0245 2.23705 0
      vertex 5.37981 1.14351 8
      vertex 5.37981 1.14351 0
    endloop
  endfacet
  facet normal -0.587785 0.809017 0
    outer loop
      vertex -2.75 4.76314 0
      vertex -3.68022 4.0873 8
      vertex -2.75 4.76314 8
    endloop
  endfacet
  facet normal -0.587785 0.809017 0
    outer loop
      vertex -3.68022 4.0873 8
      vertex -2.75 4.76314 0
      vertex -3.68022 4.0873 0
    endloop
  endfacet
  facet normal -0.207912 0.978148 0
    outer loop
      vertex -0.574906 5.46987 0
      vertex -1.69959 5.23081 8
      vertex -0.574906 5.46987 8
    endloop
  endfacet
  facet normal -0.207912 0.978148 0
    outer loop
      vertex -1.69959 5.23081 8
      vertex -0.574906 5.46987 0
      vertex -1.69959 5.23081 0
    endloop
  endfacet
  facet normal 0.866025 -0.5 0
    outer loop
      vertex 4.44959 -3.23282 8
      vertex 5.0245 -2.23705 0
      vertex 5.0245 -2.23705 8
    endloop
  endfacet
  facet normal 0.866025 -0.5 0
    outer loop
      vertex 5.0245 -2.23705 0
      vertex 4.44959 -3.23282 8
      vertex 4.44959 -3.23282 0
    endloop
  endfacet
  facet normal 0.866025 0.5 0
    outer loop
      vertex 5.0245 2.23705 8
      vertex 4.44959 3.23282 0
      vertex 4.44959 3.23282 8
    endloop
  endfacet
  facet normal 0.866025 0.5 0
    outer loop
      vertex 4.44959 3.23282 0
      vertex 5.0245 2.23705 8
      vertex 5.0245 2.23705 0
    endloop
  endfacet
  facet normal 0.406737 0.913545 -0
    outer loop
      vertex 2.75 4.76314 0
      vertex 1.69959 5.23081 8
      vertex 2.75 4.76314 8
    endloop
  endfacet
  facet normal 0.406737 0.913545 0
    outer loop
      vertex 1.69959 5.23081 8
      vertex 2.75 4.76314 0
      vertex 1.69959 5.23081 0
    endloop
  endfacet
  facet normal 0.207912 0.978148 -0
    outer loop
      vertex 1.69959 5.23081 0
      vertex 0.574906 5.46987 8
      vertex 1.69959 5.23081 8
    endloop
  endfacet
  facet normal 0.207912 0.978148 0
    outer loop
      vertex 0.574906 5.46987 8
      vertex 1.69959 5.23081 0
      vertex 0.574906 5.46987 0
    endloop
  endfacet
  facet normal 0.587785 0.809017 -0
    outer loop
      vertex 3.68022 4.0873 0
      vertex 2.75 4.76314 8
      vertex 3.68022 4.0873 8
    endloop
  endfacet
  facet normal 0.587785 0.809017 0
    outer loop
      vertex 2.75 4.76314 8
      vertex 3.68022 4.0873 0
      vertex 2.75 4.76314 0
    endloop
  endfacet
  facet normal -0.866025 0.5 0
    outer loop
      vertex -5.0245 2.23705 0
      vertex -4.44959 3.23282 8
      vertex -4.44959 3.23282 0
    endloop
  endfacet
  facet normal -0.866025 0.5 0
    outer loop
      vertex -4.44959 3.23282 8
      vertex -5.0245 2.23705 0
      vertex -5.0245 2.23705 8
    endloop
  endfacet
  facet normal -0.743145 0.66913 0
    outer loop
      vertex -4.44959 3.23282 0
      vertex -3.68022 4.0873 8
      vertex -3.68022 4.0873 0
    endloop
  endfacet
  facet normal -0.743145 0.66913 0
    outer loop
      vertex -3.68022 4.0873 8
      vertex -4.44959 3.23282 0
      vertex -4.44959 3.23282 8
    endloop
  endfacet
  facet normal -0.951057 0.309017 0
    outer loop
      vertex -5.37981 1.14351 0
      vertex -5.0245 2.23705 8
      vertex -5.0245 2.23705 0
    endloop
  endfacet
  facet normal -0.951057 0.309017 0
    outer loop
      vertex -5.0245 2.23705 8
      vertex -5.37981 1.14351 0
      vertex -5.37981 1.14351 8
    endloop
  endfacet
  facet normal 0 0 1
    outer loop
      vertex 1.75 0 8
      vertex 5.5 0 8
      vertex 5.37981 1.14351 8
    endloop
  endfacet
  facet normal 0 0 1
    outer loop
      vertex 1.71176 0.363845 8
      vertex 5.37981 1.14351 8
      vertex 5.0245 2.23705 8
    endloop
  endfacet
  facet normal 0 0 1
    outer loop
      vertex 5.5 0 8
      vertex 1.75 0 8
      vertex 5.37981 -1.14351 8
    endloop
  endfacet
  facet normal 0 0 1
    outer loop
      vertex 1.5987 0.711788 8
      vertex 5.0245 2.23705 8
      vertex 4.44959 3.23282 8
    endloop
  endfacet
  facet normal -0 0 1
    outer loop
      vertex 1.71176 -0.363845 8
      vertex 5.37981 -1.14351 8
      vertex 1.75 0 8
    endloop
  endfacet
  facet normal 0 0 1
    outer loop
      vertex 1.41578 1.02862 8
      vertex 4.44959 3.23282 8
      vertex 3.68022 4.0873 8
    endloop
  endfacet
  facet normal 0 0 1
    outer loop
      vertex 5.37981 -1.14351 8
      vertex 1.71176 -0.363845 8
      vertex 5.0245 -2.23705 8
    endloop
  endfacet
  facet normal 0 0 1
    outer loop
      vertex 1.17098 1.3005 8
      vertex 3.68022 4.0873 8
      vertex 2.75 4.76314 8
    endloop
  endfacet
  facet normal -0 0 1
    outer loop
      vertex 1.5987 -0.711788 8
      vertex 5.0245 -2.23705 8
      vertex 1.71176 -0.363845 8
    endloop
  endfacet
  facet normal 0 0 1
    outer loop
      vertex 5.0245 -2.23705 8
      vertex 1.5987 -0.711788 8
      vertex 4.44959 -3.23282 8
    endloop
  endfacet
  facet normal 0 0 1
    outer loop
      vertex 5.37981 1.14351 8
      vertex 1.71176 0.363845 8
      vertex 1.75 0 8
    endloop
  endfacet
  facet normal 0 0 1
    outer loop
      vertex 0.875 1.51554 8
      vertex 2.75 4.76314 8
      vertex 1.69959 5.23081 8
    endloop
  endfacet
  facet normal 0 0 1
    outer loop
      vertex 5.0245 2.23705 8
      vertex 1.5987 0.711788 8
      vertex 1.71176 0.363845 8
    endloop
  endfacet
  facet normal 0 0 1
    outer loop
      vertex 4.44959 3.23282 8
      vertex 1.41578 1.02862 8
      vertex 1.5987 0.711788 8
    endloop
  endfacet
  facet normal 0 0 1
    outer loop
      vertex 3.68022 4.0873 8
      vertex 1.17098 1.3005 8
      vertex 1.41578 1.02862 8
    endloop
  endfacet
  facet normal 0 0 1
    outer loop
      vertex 2.75 4.76314 8
      vertex 0.875 1.51554 8
      vertex 1.17098 1.3005 8
    endloop
  endfacet
  facet normal 0 0 1
    outer loop
      vertex 0.540779 1.66435 8
      vertex 1.69959 5.23081 8
      vertex 0.574906 5.46987 8
    endloop
  endfacet
  facet normal 0 0 1
    outer loop
      vertex 1.69959 5.23081 8
      vertex 0.540779 1.66435 8
      vertex 0.875 1.51554 8
    endloop
  endfacet
  facet normal 0 0 1
    outer loop
      vertex 0.574906 5.46987 8
      vertex 0.182924 1.74041 8
      vertex 0.540779 1.66435 8
    endloop
  endfacet
  facet normal 0 0 1
    outer loop
      vertex 0.574906 5.46987 8
      vertex -0.182924 1.74041 8
      vertex 0.182924 1.74041 8
    endloop
  endfacet
  facet normal -0 0 1
    outer loop
      vertex -0.574906 5.46987 8
      vertex -0.182924 1.74041 8
      vertex 0.574906 5.46987 8
    endloop
  endfacet
  facet normal 0 0 1
    outer loop
      vertex -0.182924 1.74041 8
      vertex -0.574906 5.46987 8
      vertex -0.540779 1.66435 8
    endloop
  endfacet
  facet normal -0 0 1
    outer loop
      vertex -1.69959 5.23081 8
      vertex -0.540779 1.66435 8
      vertex -0.574906 5.46987 8
    endloop
  endfacet
  facet normal 0 0 1
    outer loop
      vertex -0.540779 1.66435 8
      vertex -1.69959 5.23081 8
      vertex -0.874999 1.51554 8
    endloop
  endfacet
  facet normal -0 0 1
    outer loop
      vertex -2.75 4.76314 8
      vertex -0.874999 1.51554 8
      vertex -1.69959 5.23081 8
    endloop
  endfacet
  facet normal 0 0 1
    outer loop
      vertex -0.874999 1.51554 8
      vertex -2.75 4.76314 8
      vertex -1.17098 1.3005 8
    endloop
  endfacet
  facet normal -0 0 1
    outer loop
      vertex -3.68022 4.0873 8
      vertex -1.17098 1.3005 8
      vertex -2.75 4.76314 8
    endloop
  endfacet
  facet normal 0 0 1
    outer loop
      vertex -1.17098 1.3005 8
      vertex -3.68022 4.0873 8
      vertex -1.41578 1.02862 8
    endloop
  endfacet
  facet normal -0 0 1
    outer loop
      vertex -4.44959 3.23282 8
      vertex -1.41578 1.02862 8
      vertex -3.68022 4.0873 8
    endloop
  endfacet
  facet normal 0 0 1
    outer loop
      vertex -1.41578 1.02862 8
      vertex -4.44959 3.23282 8
      vertex -1.5987 0.711788 8
    endloop
  endfacet
  facet normal -0 0 1
    outer loop
      vertex 1.41578 -1.02862 8
      vertex 4.44959 -3.23282 8
      vertex 1.5987 -0.711788 8
    endloop
  endfacet
  facet normal 0 0 1
    outer loop
      vertex 4.44959 -3.23282 8
      vertex 1.41578 -1.02862 8
      vertex 3.68022 -4.0873 8
    endloop
  endfacet
  facet normal -0 0 1
    outer loop
      vertex 1.17098 -1.3005 8
      vertex 3.68022 -4.0873 8
      vertex 1.41578 -1.02862 8
    endloop
  endfacet
  facet normal 0 0 1
    outer loop
      vertex 3.68022 -4.0873 8
      vertex 1.17098 -1.3005 8
      vertex 2.75 -4.76314 8
    endloop
  endfacet
  facet normal -0 0 1
    outer loop
      vertex 0.875 -1.51554 8
      vertex 2.75 -4.76314 8
      vertex 1.17098 -1.3005 8
    endloop
  endfacet
  facet normal 0 0 1
    outer loop
      vertex 2.75 -4.76314 8
      vertex 0.875 -1.51554 8
      vertex 1.69959 -5.23081 8
    endloop
  endfacet
  facet normal -0 0 1
    outer loop
      vertex 0.540779 -1.66435 8
      vertex 1.69959 -5.23081 8
      vertex 0.875 -1.51554 8
    endloop
  endfacet
  facet normal 0 0 1
    outer loop
      vertex 1.69959 -5.23081 8
      vertex 0.540779 -1.66435 8
      vertex 0.574906 -5.46987 8
    endloop
  endfacet
  facet normal -0 0 1
    outer loop
      vertex 0.182924 -1.74041 8
      vertex 0.574906 -5.46987 8
      vertex 0.540779 -1.66435 8
    endloop
  endfacet
  facet normal -0 0 1
    outer loop
      vertex -0.182924 -1.74041 8
      vertex 0.574906 -5.46987 8
      vertex 0.182924 -1.74041 8
    endloop
  endfacet
  facet normal 0 0 1
    outer loop
      vertex -0.574906 -5.46987 8
      vertex -0.182924 -1.74041 8
      vertex -0.540779 -1.66435 8
    endloop
  endfacet
  facet normal 0 0 1
    outer loop
      vertex -0.182924 -1.74041 8
      vertex -0.574906 -5.46987 8
      vertex 0.574906 -5.46987 8
    endloop
  endfacet
  facet normal 0 0 1
    outer loop
      vertex -1.69959 -5.23081 8
      vertex -0.540779 -1.66435 8
      vertex -0.875 -1.51554 8
    endloop
  endfacet
  facet normal 0 0 1
    outer loop
      vertex -2.75 -4.76314 8
      vertex -0.875 -1.51554 8
      vertex -1.17098 -1.3005 8
    endloop
  endfacet
  facet normal 0 0 1
    outer loop
      vertex -3.68022 -4.0873 8
      vertex -1.17098 -1.3005 8
      vertex -1.41578 -1.02862 8
    endloop
  endfacet
  facet normal 0 0 1
    outer loop
      vertex -4.44959 -3.23282 8
      vertex -1.41578 -1.02862 8
      vertex -1.5987 -0.711788 8
    endloop
  endfacet
  facet normal 0 0 1
    outer loop
      vertex -0.540779 -1.66435 8
      vertex -1.69959 -5.23081 8
      vertex -0.574906 -5.46987 8
    endloop
  endfacet
  facet normal 0 0 1
    outer loop
      vertex -5.0245 -2.23705 8
      vertex -1.5987 -0.711788 8
      vertex -1.71176 -0.363845 8
    endloop
  endfacet
  facet normal 0 0 1
    outer loop
      vertex -5.37981 -1.14351 8
      vertex -1.71176 -0.363845 8
      vertex -1.75 0 8
    endloop
  endfacet
  facet normal -0 0 1
    outer loop
      vertex -5.0245 2.23705 8
      vertex -1.5987 0.711788 8
      vertex -4.44959 3.23282 8
    endloop
  endfacet
  facet normal 0 0 1
    outer loop
      vertex -0.875 -1.51554 8
      vertex -2.75 -4.76314 8
      vertex -1.69959 -5.23081 8
    endloop
  endfacet
  facet normal 0 0 1
    outer loop
      vertex -1.5987 0.711788 8
      vertex -5.0245 2.23705 8
      vertex -1.71176 0.363845 8
    endloop
  endfacet
  facet normal 0 0 1
    outer loop
      vertex -1.17098 -1.3005 8
      vertex -3.68022 -4.0873 8
      vertex -2.75 -4.76314 8
    endloop
  endfacet
  facet normal -0 0 1
    outer loop
      vertex -5.37981 1.14351 8
      vertex -1.71176 0.363845 8
      vertex -5.0245 2.23705 8
    endloop
  endfacet
  facet normal 0 0 1
    outer loop
      vertex -1.41578 -1.02862 8
      vertex -4.44959 -3.23282 8
      vertex -3.68022 -4.0873 8
    endloop
  endfacet
  facet normal 0 0 1
    outer loop
      vertex -1.71176 0.363845 8
      vertex -5.37981 1.14351 8
      vertex -1.75 0 8
    endloop
  endfacet
  facet normal 0 0 1
    outer loop
      vertex -1.5987 -0.711788 8
      vertex -5.0245 -2.23705 8
      vertex -4.44959 -3.23282 8
    endloop
  endfacet
  facet normal 0 0 1
    outer loop
      vertex -5.5 0 8
      vertex -1.75 0 8
      vertex -5.37981 1.14351 8
    endloop
  endfacet
  facet normal 0 0 1
    outer loop
      vertex -1.71176 -0.363845 8
      vertex -5.37981 -1.14351 8
      vertex -5.0245 -2.23705 8
    endloop
  endfacet
  facet normal 0 0 1
    outer loop
      vertex -1.75 0 8
      vertex -5.5 0 8
      vertex -5.37981 -1.14351 8
    endloop
  endfacet
  facet normal -0.406737 0.913545 0
    outer loop
      vertex -1.69959 5.23081 0
      vertex -2.75 4.76314 8
      vertex -1.69959 5.23081 8
    endloop
  endfacet
  facet normal -0.406737 0.913545 0
    outer loop
      vertex -2.75 4.76314 8
      vertex -1.69959 5.23081 0
      vertex -2.75 4.76314 0
    endloop
  endfacet
  facet normal 0.994522 -0.104529 0
    outer loop
      vertex 5.37981 -1.14351 8
      vertex 5.5 0 0
      vertex 5.5 0 8
    endloop
  endfacet
  facet normal 0.994522 -0.104529 0
    outer loop
      vertex 5.5 0 0
      vertex 5.37981 -1.14351 8
      vertex 5.37981 -1.14351 0
    endloop
  endfacet
  facet normal 0 0 -1
    outer loop
      vertex 1.75 0 0
      vertex 5.5 0 0
      vertex 5.37981 -1.14351 0
    endloop
  endfacet
  facet normal 0 0 -1
    outer loop
      vertex 1.71176 -0.363845 0
      vertex 5.37981 -1.14351 0
      vertex 5.0245 -2.23705 0
    endloop
  endfacet
  facet normal 0 0 -1
    outer loop
      vertex 5.5 0 0
      vertex 1.75 0 0
      vertex 5.37981 1.14351 0
    endloop
  endfacet
  facet normal 0 0 -1
    outer loop
      vertex 1.5987 -0.711788 0
      vertex 5.0245 -2.23705 0
      vertex 4.44959 -3.23282 0
    endloop
  endfacet
  facet normal 0 0 -1
    outer loop
      vertex 1.71176 0.363845 0
      vertex 5.37981 1.14351 0
      vertex 1.75 0 0
    endloop
  endfacet
  facet normal 0 0 -1
    outer loop
      vertex 1.41578 -1.02862 0
      vertex 4.44959 -3.23282 0
      vertex 3.68022 -4.0873 0
    endloop
  endfacet
  facet normal -0 0 -1
    outer loop
      vertex 5.37981 1.14351 0
      vertex 1.71176 0.363845 0
      vertex 5.0245 2.23705 0
    endloop
  endfacet
  facet normal 0 0 -1
    outer loop
      vertex 1.17098 -1.3005 0
      vertex 3.68022 -4.0873 0
      vertex 2.75 -4.76314 0
    endloop
  endfacet
  facet normal 0 0 -1
    outer loop
      vertex 1.5987 0.711788 0
      vertex 5.0245 2.23705 0
      vertex 1.71176 0.363845 0
    endloop
  endfacet
  facet normal -0 0 -1
    outer loop
      vertex 5.0245 2.23705 0
      vertex 1.5987 0.711788 0
      vertex 4.44959 3.23282 0
    endloop
  endfacet
  facet normal 0 0 -1
    outer loop
      vertex 5.37981 -1.14351 0
      vertex 1.71176 -0.363845 0
      vertex 1.75 0 0
    endloop
  endfacet
  facet normal 0 0 -1
    outer loop
      vertex 0.875 -1.51554 0
      vertex 2.75 -4.76314 0
      vertex 1.69959 -5.23081 0
    endloop
  endfacet
  facet normal 0 0 -1
    outer loop
      vertex 5.0245 -2.23705 0
      vertex 1.5987 -0.711788 0
      vertex 1.71176 -0.363845 0
    endloop
  endfacet
  facet normal 0 0 -1
    outer loop
      vertex 4.44959 -3.23282 0
      vertex 1.41578 -1.02862 0
      vertex 1.5987 -0.711788 0
    endloop
  endfacet
  facet normal 0 0 -1
    outer loop
      vertex 3.68022 -4.0873 0
      vertex 1.17098 -1.3005 0
      vertex 1.41578 -1.02862 0
    endloop
  endfacet
  facet normal 0 0 -1
    outer loop
      vertex 2.75 -4.76314 0
      vertex 0.875 -1.51554 0
      vertex 1.17098 -1.3005 0
    endloop
  endfacet
  facet normal 0 0 -1
    outer loop
      vertex 0.540779 -1.66435 0
      vertex 1.69959 -5.23081 0
      vertex 0.574906 -5.46987 0
    endloop
  endfacet
  facet normal 0 0 -1
    outer loop
      vertex 1.69959 -5.23081 0
      vertex 0.540779 -1.66435 0
      vertex 0.875 -1.51554 0
    endloop
  endfacet
  facet normal 0 0 -1
    outer loop
      vertex 0.574906 -5.46987 0
      vertex 0.182924 -1.74041 0
      vertex 0.540779 -1.66435 0
    endloop
  endfacet
  facet normal 0 0 -1
    outer loop
      vertex 0.574906 -5.46987 0
      vertex -0.182924 -1.74041 0
      vertex 0.182924 -1.74041 0
    endloop
  endfacet
  facet normal 0 0 -1
    outer loop
      vertex -0.574906 -5.46987 0
      vertex -0.182924 -1.74041 0
      vertex 0.574906 -5.46987 0
    endloop
  endfacet
  facet normal -0 0 -1
    outer loop
      vertex -0.182924 -1.74041 0
      vertex -0.574906 -5.46987 0
      vertex -0.540779 -1.66435 0
    endloop
  endfacet
  facet normal 0 0 -1
    outer loop
      vertex -1.69959 -5.23081 0
      vertex -0.540779 -1.66435 0
      vertex -0.574906 -5.46987 0
    endloop
  endfacet
  facet normal -0 0 -1
    outer loop
      vertex -0.540779 -1.66435 0
      vertex -1.69959 -5.23081 0
      vertex -0.875 -1.51554 0
    endloop
  endfacet
  facet normal 0 0 -1
    outer loop
      vertex -2.75 -4.76314 0
      vertex -0.875 -1.51554 0
      vertex -1.69959 -5.23081 0
    endloop
  endfacet
  facet normal -0 0 -1
    outer loop
      vertex -0.875 -1.51554 0
      vertex -2.75 -4.76314 0
      vertex -1.17098 -1.3005 0
    endloop
  endfacet
  facet normal 0 0 -1
    outer loop
      vertex -3.68022 -4.0873 0
      vertex -1.17098 -1.3005 0
      vertex -2.75 -4.76314 0
    endloop
  endfacet
  facet normal -0 0 -1
    outer loop
      vertex -1.17098 -1.3005 0
      vertex -3.68022 -4.0873 0
      vertex -1.41578 -1.02862 0
    endloop
  endfacet
  facet normal 0 0 -1
    outer loop
      vertex -4.44959 -3.23282 0
      vertex -1.41578 -1.02862 0
      vertex -3.68022 -4.0873 0
    endloop
  endfacet
  facet normal -0 0 -1
    outer loop
      vertex -1.41578 -1.02862 0
      vertex -4.44959 -3.23282 0
      vertex -1.5987 -0.711788 0
    endloop
  endfacet
  facet normal 0 0 -1
    outer loop
      vertex -5.0245 -2.23705 0
      vertex -1.5987 -0.711788 0
      vertex -4.44959 -3.23282 0
    endloop
  endfacet
  facet normal -0 0 -1
    outer loop
      vertex -1.5987 -0.711788 0
      vertex -5.0245 -2.23705 0
      vertex -1.71176 -0.363845 0
    endloop
  endfacet
  facet normal 0 0 -1
    outer loop
      vertex -1.75 0 0
      vertex -3.68022 4.0873 0
      vertex -2.75 4.76314 0
    endloop
  endfacet
  facet normal 0 0 -1
    outer loop
      vertex -5.37981 -1.14351 0
      vertex -1.71176 -0.363845 0
      vertex -5.0245 -2.23705 0
    endloop
  endfacet
  facet normal 0 0 -1
    outer loop
      vertex -1.75 0 0
      vertex -4.44959 3.23282 0
      vertex -3.68022 4.0873 0
    endloop
  endfacet
  facet normal -0 0 -1
    outer loop
      vertex -1.71176 -0.363845 0
      vertex -5.37981 -1.14351 0
      vertex -1.75 0 0
    endloop
  endfacet
  facet normal 0 0 -1
    outer loop
      vertex -1.75 0 0
      vertex -5.0245 2.23705 0
      vertex -4.44959 3.23282 0
    endloop
  endfacet
  facet normal 0 0 -1
    outer loop
      vertex -5.5 0 0
      vertex -1.75 0 0
      vertex -5.37981 -1.14351 0
    endloop
  endfacet
  facet normal 0 0 -1
    outer loop
      vertex -1.75 0 0
      vertex -5.37981 1.14351 0
      vertex -5.0245 2.23705 0
    endloop
  endfacet
  facet normal 0 0 -1
    outer loop
      vertex -1.75 0 0
      vertex -5.5 0 0
      vertex -5.37981 1.14351 0
    endloop
  endfacet
  facet normal 0 0 -1
    outer loop
      vertex 1.41578 1.02862 0
      vertex 4.44959 3.23282 0
      vertex 1.5987 0.711788 0
    endloop
  endfacet
  facet normal -0 0 -1
    outer loop
      vertex 4.44959 3.23282 0
      vertex 1.41578 1.02862 0
      vertex 3.68022 4.0873 0
    endloop
  endfacet
  facet normal 0 0 -1
    outer loop
      vertex 1.17098 1.3005 0
      vertex 3.68022 4.0873 0
      vertex 1.41578 1.02862 0
    endloop
  endfacet
  facet normal -0 0 -1
    outer loop
      vertex 3.68022 4.0873 0
      vertex 1.17098 1.3005 0
      vertex 2.75 4.76314 0
    endloop
  endfacet
  facet normal 0 0 -1
    outer loop
      vertex 0.875 1.51554 0
      vertex 2.75 4.76314 0
      vertex 1.17098 1.3005 0
    endloop
  endfacet
  facet normal -0 0 -1
    outer loop
      vertex 2.75 4.76314 0
      vertex 0.875 1.51554 0
      vertex 1.69959 5.23081 0
    endloop
  endfacet
  facet normal 0 0 -1
    outer loop
      vertex 0.540779 1.66435 0
      vertex 1.69959 5.23081 0
      vertex 0.875 1.51554 0
    endloop
  endfacet
  facet normal -0 0 -1
    outer loop
      vertex 1.69959 5.23081 0
      vertex 0.540779 1.66435 0
      vertex 0.574906 5.46987 0
    endloop
  endfacet
  facet normal 0 0 -1
    outer loop
      vertex 0.182924 1.74041 0
      vertex 0.574906 5.46987 0
      vertex 0.540779 1.66435 0
    endloop
  endfacet
  facet normal 0 0 -1
    outer loop
      vertex -0.182924 1.74041 0
      vertex 0.574906 5.46987 0
      vertex 0.182924 1.74041 0
    endloop
  endfacet
  facet normal 0 0 -1
    outer loop
      vertex -0.574906 5.46987 0
      vertex -0.182924 1.74041 0
      vertex -0.540779 1.66435 0
    endloop
  endfacet
  facet normal 0 0 -1
    outer loop
      vertex -0.182924 1.74041 0
      vertex -0.574906 5.46987 0
      vertex 0.574906 5.46987 0
    endloop
  endfacet
  facet normal 0 0 -1
    outer loop
      vertex -1.69959 5.23081 0
      vertex -0.540779 1.66435 0
      vertex -0.874999 1.51554 0
    endloop
  endfacet
  facet normal 0 0 -1
    outer loop
      vertex -2.75 4.76314 0
      vertex -0.874999 1.51554 0
      vertex -1.17098 1.3005 0
    endloop
  endfacet
  facet normal 0 0 -1
    outer loop
      vertex -2.75 4.76314 0
      vertex -1.17098 1.3005 0
      vertex -1.41578 1.02862 0
    endloop
  endfacet
  facet normal 0 0 -1
    outer loop
      vertex -2.75 4.76314 0
      vertex -1.41578 1.02862 0
      vertex -1.5987 0.711788 0
    endloop
  endfacet
  facet normal 0 0 -1
    outer loop
      vertex -0.540779 1.66435 0
      vertex -1.69959 5.23081 0
      vertex -0.574906 5.46987 0
    endloop
  endfacet
  facet normal 0 0 -1
    outer loop
      vertex -2.75 4.76314 0
      vertex -1.5987 0.711788 0
      vertex -1.71176 0.363845 0
    endloop
  endfacet
  facet normal 0 0 -1
    outer loop
      vertex -2.75 4.76314 0
      vertex -1.71176 0.363845 0
      vertex -1.75 0 0
    endloop
  endfacet
  facet normal 0 0 -1
    outer loop
      vertex -0.874999 1.51554 0
      vertex -2.75 4.76314 0
      vertex -1.69959 5.23081 0
    endloop
  endfacet
  facet normal 0.207912 -0.978148 0
    outer loop
      vertex 0.574906 -5.46987 0
      vertex 1.69959 -5.23081 8
      vertex 0.574906 -5.46987 8
    endloop
  endfacet
  facet normal 0.207912 -0.978148 0
    outer loop
      vertex 1.69959 -5.23081 8
      vertex 0.574906 -5.46987 0
      vertex 1.69959 -5.23081 0
    endloop
  endfacet
  facet normal 0.587785 -0.809017 0
    outer loop
      vertex 2.75 -4.76314 0
      vertex 3.68022 -4.0873 8
      vertex 2.75 -4.76314 8
    endloop
  endfacet
  facet normal 0.587785 -0.809017 0
    outer loop
      vertex 3.68022 -4.0873 8
      vertex 2.75 -4.76314 0
      vertex 3.68022 -4.0873 0
    endloop
  endfacet
  facet normal 0.743145 -0.66913 0
    outer loop
      vertex 3.68022 -4.0873 8
      vertex 4.44959 -3.23282 0
      vertex 4.44959 -3.23282 8
    endloop
  endfacet
  facet normal 0.743145 -0.66913 0
    outer loop
      vertex 4.44959 -3.23282 0
      vertex 3.68022 -4.0873 8
      vertex 3.68022 -4.0873 0
    endloop
  endfacet
  facet normal 0.951057 -0.309017 0
    outer loop
      vertex 5.0245 -2.23705 8
      vertex 5.37981 -1.14351 0
      vertex 5.37981 -1.14351 8
    endloop
  endfacet
  facet normal 0.951057 -0.309017 0
    outer loop
      vertex 5.37981 -1.14351 0
      vertex 5.0245 -2.23705 8
      vertex 5.0245 -2.23705 0
    endloop
  endfacet
  facet normal -0.406737 -0.913545 0
    outer loop
      vertex -2.75 -4.76314 0
      vertex -1.69959 -5.23081 8
      vertex -2.75 -4.76314 8
    endloop
  endfacet
  facet normal -0.406737 -0.913545 -0
    outer loop
      vertex -1.69959 -5.23081 8
      vertex -2.75 -4.76314 0
      vertex -1.69959 -5.23081 0
    endloop
  endfacet
  facet normal -0.866025 -0.5 0
    outer loop
      vertex -4.44959 -3.23282 0
      vertex -5.0245 -2.23705 8
      vertex -5.0245 -2.23705 0
    endloop
  endfacet
  facet normal -0.866025 -0.5 0
    outer loop
      vertex -5.0245 -2.23705 8
      vertex -4.44959 -3.23282 0
      vertex -4.44959 -3.23282 8
    endloop
  endfacet
  facet normal 0.406737 -0.913545 0
    outer loop
      vertex 1.69959 -5.23081 0
      vertex 2.75 -4.76314 8
      vertex 1.69959 -5.23081 8
    endloop
  endfacet
  facet normal 0.406737 -0.913545 0
    outer loop
      vertex 2.75 -4.76314 8
      vertex 1.69959 -5.23081 0
      vertex 2.75 -4.76314 0
    endloop
  endfacet
  facet normal -0.207912 -0.978148 0
    outer loop
      vertex -1.69959 -5.23081 0
      vertex -0.574906 -5.46987 8
      vertex -1.69959 -5.23081 8
    endloop
  endfacet
  facet normal -0.207912 -0.978148 -0
    outer loop
      vertex -0.574906 -5.46987 8
      vertex -1.69959 -5.23081 0
      vertex -0.574906 -5.46987 0
    endloop
  endfacet
  facet normal -0.587785 -0.809017 0
    outer loop
      vertex -3.68022 -4.0873 0
      vertex -2.75 -4.76314 8
      vertex -3.68022 -4.0873 8
    endloop
  endfacet
  facet normal -0.587785 -0.809017 -0
    outer loop
      vertex -2.75 -4.76314 8
      vertex -3.68022 -4.0873 0
      vertex -2.75 -4.76314 0
    endloop
  endfacet
  facet normal -0.743145 -0.66913 0
    outer loop
      vertex -3.68022 -4.0873 0
      vertex -4.44959 -3.23282 8
      vertex -4.44959 -3.23282 0
    endloop
  endfacet
  facet normal -0.743145 -0.66913 0
    outer loop
      vertex -4.44959 -3.23282 8
      vertex -3.68022 -4.0873 0
      vertex -3.68022 -4.0873 8
    endloop
  endfacet
  facet normal -0.951057 -0.309017 0
    outer loop
      vertex -5.0245 -2.23705 0
      vertex -5.37981 -1.14351 8
      vertex -5.37981 -1.14351 0
    endloop
  endfacet
  facet normal -0.951057 -0.309017 0
    outer loop
      vertex -5.37981 -1.14351 8
      vertex -5.0245 -2.23705 0
      vertex -5.0245 -2.23705 8
    endloop
  endfacet
  facet normal -0.994522 -0.104529 0
    outer loop
      vertex -5.37981 -1.14351 0
      vertex -5.5 0 8
      vertex -5.5 0 0
    endloop
  endfacet
  facet normal -0.994522 -0.104529 0
    outer loop
      vertex -5.5 0 8
      vertex -5.37981 -1.14351 0
      vertex -5.37981 -1.14351 8
    endloop
  endfacet
  facet normal -0.994522 -0.10453 0
    outer loop
      vertex 1.75 0 0
      vertex 1.71176 0.363845 8
      vertex 1.71176 0.363845 0
    endloop
  endfacet
  facet normal -0.994522 -0.10453 0
    outer loop
      vertex 1.71176 0.363845 8
      vertex 1.75 0 0
      vertex 1.75 0 8
    endloop
  endfacet
  facet normal 0.994522 -0.10453 0
    outer loop
      vertex -1.75 0 8
      vertex -1.71176 0.363845 0
      vertex -1.71176 0.363845 8
    endloop
  endfacet
  facet normal 0.994522 -0.10453 0
    outer loop
      vertex -1.71176 0.363845 0
      vertex -1.75 0 8
      vertex -1.75 0 0
    endloop
  endfacet
  facet normal 0 -1 0
    outer loop
      vertex -0.182924 1.74041 0
      vertex 0.182924 1.74041 8
      vertex -0.182924 1.74041 8
    endloop
  endfacet
  facet normal 0 -1 -0
    outer loop
      vertex 0.182924 1.74041 8
      vertex -0.182924 1.74041 0
      vertex 0.182924 1.74041 0
    endloop
  endfacet
  facet normal 0 1 -0
    outer loop
      vertex 0.182924 -1.74041 0
      vertex -0.182924 -1.74041 8
      vertex 0.182924 -1.74041 8
    endloop
  endfacet
  facet normal 0 1 0
    outer loop
      vertex -0.182924 -1.74041 8
      vertex 0.182924 -1.74041 0
      vertex -0.182924 -1.74041 0
    endloop
  endfacet
  facet normal -0.587786 -0.809017 0
    outer loop
      vertex 0.875 1.51554 0
      vertex 1.17098 1.3005 8
      vertex 0.875 1.51554 8
    endloop
  endfacet
  facet normal -0.587786 -0.809017 -0
    outer loop
      vertex 1.17098 1.3005 8
      vertex 0.875 1.51554 0
      vertex 1.17098 1.3005 0
    endloop
  endfacet
  facet normal -0.406737 -0.913546 0
    outer loop
      vertex 0.540779 1.66435 0
      vertex 0.875 1.51554 8
      vertex 0.540779 1.66435 8
    endloop
  endfacet
  facet normal -0.406737 -0.913546 -0
    outer loop
      vertex 0.875 1.51554 8
      vertex 0.540779 1.66435 0
      vertex 0.875 1.51554 0
    endloop
  endfacet
  facet normal 0.587784 -0.809018 0
    outer loop
      vertex -1.17098 1.3005 0
      vertex -0.874999 1.51554 8
      vertex -1.17098 1.3005 8
    endloop
  endfacet
  facet normal 0.587784 -0.809018 0
    outer loop
      vertex -0.874999 1.51554 8
      vertex -1.17098 1.3005 0
      vertex -0.874999 1.51554 0
    endloop
  endfacet
  facet normal 0.207911 -0.978148 0
    outer loop
      vertex -0.540779 1.66435 0
      vertex -0.182924 1.74041 8
      vertex -0.540779 1.66435 8
    endloop
  endfacet
  facet normal 0.207911 -0.978148 0
    outer loop
      vertex -0.182924 1.74041 8
      vertex -0.540779 1.66435 0
      vertex -0.182924 1.74041 0
    endloop
  endfacet
  facet normal -0.951057 0.309016 0
    outer loop
      vertex 1.5987 -0.711788 0
      vertex 1.71176 -0.363845 8
      vertex 1.71176 -0.363845 0
    endloop
  endfacet
  facet normal -0.951057 0.309016 0
    outer loop
      vertex 1.71176 -0.363845 8
      vertex 1.5987 -0.711788 0
      vertex 1.5987 -0.711788 8
    endloop
  endfacet
  facet normal -0.866025 -0.5 0
    outer loop
      vertex 1.5987 0.711788 0
      vertex 1.41578 1.02862 8
      vertex 1.41578 1.02862 0
    endloop
  endfacet
  facet normal -0.866025 -0.5 0
    outer loop
      vertex 1.41578 1.02862 8
      vertex 1.5987 0.711788 0
      vertex 1.5987 0.711788 8
    endloop
  endfacet
  facet normal -0.951057 -0.309016 0
    outer loop
      vertex 1.71176 0.363845 0
      vertex 1.5987 0.711788 8
      vertex 1.5987 0.711788 0
    endloop
  endfacet
  facet normal -0.951057 -0.309016 0
    outer loop
      vertex 1.5987 0.711788 8
      vertex 1.71176 0.363845 0
      vertex 1.71176 0.363845 8
    endloop
  endfacet
  facet normal -0.743146 -0.66913 0
    outer loop
      vertex 1.41578 1.02862 0
      vertex 1.17098 1.3005 8
      vertex 1.17098 1.3005 0
    endloop
  endfacet
  facet normal -0.743146 -0.66913 0
    outer loop
      vertex 1.17098 1.3005 8
      vertex 1.41578 1.02862 0
      vertex 1.41578 1.02862 8
    endloop
  endfacet
  facet normal -0.207911 -0.978148 0
    outer loop
      vertex 0.182924 1.74041 0
      vertex 0.540779 1.66435 8
      vertex 0.182924 1.74041 8
    endloop
  endfacet
  facet normal -0.207911 -0.978148 -0
    outer loop
      vertex 0.540779 1.66435 8
      vertex 0.182924 1.74041 0
      vertex 0.540779 1.66435 0
    endloop
  endfacet
  facet normal 0.866025 -0.5 0
    outer loop
      vertex -1.5987 0.711788 8
      vertex -1.41578 1.02862 0
      vertex -1.41578 1.02862 8
    endloop
  endfacet
  facet normal 0.866025 -0.5 0
    outer loop
      vertex -1.41578 1.02862 0
      vertex -1.5987 0.711788 8
      vertex -1.5987 0.711788 0
    endloop
  endfacet
  facet normal 0.743146 -0.66913 0
    outer loop
      vertex -1.41578 1.02862 8
      vertex -1.17098 1.3005 0
      vertex -1.17098 1.3005 8
    endloop
  endfacet
  facet normal 0.743146 -0.66913 0
    outer loop
      vertex -1.17098 1.3005 0
      vertex -1.41578 1.02862 8
      vertex -1.41578 1.02862 0
    endloop
  endfacet
  facet normal 0.951057 -0.309016 0
    outer loop
      vertex -1.71176 0.363845 8
      vertex -1.5987 0.711788 0
      vertex -1.5987 0.711788 8
    endloop
  endfacet
  facet normal 0.951057 -0.309016 0
    outer loop
      vertex -1.5987 0.711788 0
      vertex -1.71176 0.363845 8
      vertex -1.71176 0.363845 0
    endloop
  endfacet
  facet normal 0.406737 -0.913545 0
    outer loop
      vertex -0.874999 1.51554 0
      vertex -0.540779 1.66435 8
      vertex -0.874999 1.51554 8
    endloop
  endfacet
  facet normal 0.406737 -0.913545 0
    outer loop
      vertex -0.540779 1.66435 8
      vertex -0.874999 1.51554 0
      vertex -0.540779 1.66435 0
    endloop
  endfacet
  facet normal -0.994522 0.10453 0
    outer loop
      vertex 1.71176 -0.363845 0
      vertex 1.75 0 8
      vertex 1.75 0 0
    endloop
  endfacet
  facet normal -0.994522 0.10453 0
    outer loop
      vertex 1.75 0 8
      vertex 1.71176 -0.363845 0
      vertex 1.71176 -0.363845 8
    endloop
  endfacet
  facet normal -0.207911 0.978148 0
    outer loop
      vertex 0.540779 -1.66435 0
      vertex 0.182924 -1.74041 8
      vertex 0.540779 -1.66435 8
    endloop
  endfacet
  facet normal -0.207911 0.978148 0
    outer loop
      vertex 0.182924 -1.74041 8
      vertex 0.540779 -1.66435 0
      vertex 0.182924 -1.74041 0
    endloop
  endfacet
  facet normal -0.866025 0.5 0
    outer loop
      vertex 1.41578 -1.02862 0
      vertex 1.5987 -0.711788 8
      vertex 1.5987 -0.711788 0
    endloop
  endfacet
  facet normal -0.866025 0.5 0
    outer loop
      vertex 1.5987 -0.711788 8
      vertex 1.41578 -1.02862 0
      vertex 1.41578 -1.02862 8
    endloop
  endfacet
  facet normal 0.866025 0.5 0
    outer loop
      vertex -1.41578 -1.02862 8
      vertex -1.5987 -0.711788 0
      vertex -1.5987 -0.711788 8
    endloop
  endfacet
  facet normal 0.866025 0.5 0
    outer loop
      vertex -1.5987 -0.711788 0
      vertex -1.41578 -1.02862 8
      vertex -1.41578 -1.02862 0
    endloop
  endfacet
  facet normal 0.743146 0.66913 0
    outer loop
      vertex -1.17098 -1.3005 8
      vertex -1.41578 -1.02862 0
      vertex -1.41578 -1.02862 8
    endloop
  endfacet
  facet normal 0.743146 0.66913 0
    outer loop
      vertex -1.41578 -1.02862 0
      vertex -1.17098 -1.3005 8
      vertex -1.17098 -1.3005 0
    endloop
  endfacet
  facet normal -0.587786 0.809017 0
    outer loop
      vertex 1.17098 -1.3005 0
      vertex 0.875 -1.51554 8
      vertex 1.17098 -1.3005 8
    endloop
  endfacet
  facet normal -0.587786 0.809017 0
    outer loop
      vertex 0.875 -1.51554 8
      vertex 1.17098 -1.3005 0
      vertex 0.875 -1.51554 0
    endloop
  endfacet
  facet normal -0.406737 0.913546 0
    outer loop
      vertex 0.875 -1.51554 0
      vertex 0.540779 -1.66435 8
      vertex 0.875 -1.51554 8
    endloop
  endfacet
  facet normal -0.406737 0.913546 0
    outer loop
      vertex 0.540779 -1.66435 8
      vertex 0.875 -1.51554 0
      vertex 0.540779 -1.66435 0
    endloop
  endfacet
  facet normal 0.207911 0.978148 -0
    outer loop
      vertex -0.182924 -1.74041 0
      vertex -0.540779 -1.66435 8
      vertex -0.182924 -1.74041 8
    endloop
  endfacet
  facet normal 0.207911 0.978148 0
    outer loop
      vertex -0.540779 -1.66435 8
      vertex -0.182924 -1.74041 0
      vertex -0.540779 -1.66435 0
    endloop
  endfacet
  facet normal 0.951057 0.309016 0
    outer loop
      vertex -1.5987 -0.711788 8
      vertex -1.71176 -0.363845 0
      vertex -1.71176 -0.363845 8
    endloop
  endfacet
  facet normal 0.951057 0.309016 0
    outer loop
      vertex -1.71176 -0.363845 0
      vertex -1.5987 -0.711788 8
      vertex -1.5987 -0.711788 0
    endloop
  endfacet
  facet normal 0.994522 0.10453 0
    outer loop
      vertex -1.71176 -0.363845 8
      vertex -1.75 0 0
      vertex -1.75 0 8
    endloop
  endfacet
  facet normal 0.994522 0.10453 0
    outer loop
      vertex -1.75 0 0
      vertex -1.71176 -0.363845 8
      vertex -1.71176 -0.363845 0
    endloop
  endfacet
  facet normal -0.743146 0.66913 0
    outer loop
      vertex 1.17098 -1.3005 0
      vertex 1.41578 -1.02862 8
      vertex 1.41578 -1.02862 0
    endloop
  endfacet
  facet normal -0.743146 0.66913 0
    outer loop
      vertex 1.41578 -1.02862 8
      vertex 1.17098 -1.3005 0
      vertex 1.17098 -1.3005 8
    endloop
  endfacet
  facet normal 0.406737 0.913546 -0
    outer loop
      vertex -0.540779 -1.66435 0
      vertex -0.875 -1.51554 8
      vertex -0.540779 -1.66435 8
    endloop
  endfacet
  facet normal 0.406737 0.913546 0
    outer loop
      vertex -0.875 -1.51554 8
      vertex -0.540779 -1.66435 0
      vertex -0.875 -1.51554 0
    endloop
  endfacet
  facet normal 0.587786 0.809017 -0
    outer loop
      vertex -0.875 -1.51554 0
      vertex -1.17098 -1.3005 8
      vertex -0.875 -1.51554 8
    endloop
  endfacet
  facet normal 0.587786 0.809017 0
    outer loop
      vertex -1.17098 -1.3005 8
      vertex -0.875 -1.51554 0
      vertex -1.17098 -1.3005 0
    endloop
  endfacet
endsolid OpenSCAD_Model
